<svg width="165" height="165" viewBox="0 0 165 165" fill="none" xmlns="http://www.w3.org/2000/svg">
<path d="M165 82.5C165 95.5194 161.919 108.354 156.008 119.954C150.097 131.555 141.525 141.591 130.992 149.244C120.459 156.896 108.265 161.948 95.4058 163.984C82.5468 166.021 69.3882 164.985 57.0061 160.962L69.753 121.731C75.9441 123.743 82.5234 124.26 88.9529 123.242C95.3825 122.224 101.48 119.698 106.746 115.872C112.013 112.046 116.299 107.027 119.254 101.227C122.209 95.4269 123.75 89.0097 123.75 82.5H165Z" fill="#8AFEF5"/>
<path d="M61.1474 162.189C46.0703 158.149 32.4486 149.915 21.8643 138.443C11.28 126.97 4.16742 112.731 1.35257 97.3777L41.9263 89.9388C43.3337 97.6154 46.89 104.735 52.1822 110.471C57.4743 116.207 64.2852 120.324 71.8237 122.344L61.1474 162.189Z" fill="#2CD9CA"/>
<path d="M1.51576 98.2417C-1.46257 82.9196 -0.0330657 67.0668 5.63826 52.5246C11.3096 37.9824 20.99 25.3475 33.5553 16.0872L58.0277 49.2936C51.745 53.9237 46.9048 60.2412 44.0691 67.5123C41.2335 74.7834 40.5187 82.7098 42.0079 90.3709L1.51576 98.2417Z" fill="#51BCFF"/>
<path d="M32.8503 16.6126C45.3161 7.21886 60.1911 1.55431 75.7477 0.276786C91.3043 -1.00074 106.904 2.16118 120.736 9.39533L101.618 45.9477C94.7021 42.3306 86.9022 40.7496 79.1239 41.3884C71.3456 42.0272 63.9081 44.8594 57.6751 49.5563L32.8503 16.6126Z" fill="#0D82CA"/>
<path d="M119.954 8.99197C132.435 15.3512 143.091 24.7834 150.918 36.3997L116.709 59.4499C112.795 53.6417 107.467 48.9256 101.227 45.746L119.954 8.99197Z" fill="#265877"/>
<path d="M150.622 35.9643C152.698 39.0031 154.569 42.1774 156.221 45.466L119.36 63.983C118.534 62.3387 117.599 60.7515 116.561 59.2321L150.622 35.9643Z" fill="#916BB9"/>
<path d="M156.08 45.1871C157.744 48.4694 159.187 51.8594 160.399 55.3343L121.45 68.9172C120.844 67.1797 120.122 65.4847 119.29 63.8436L156.08 45.1871Z" fill="#5F3888"/>
<path d="M160.239 54.8805C161.471 58.3483 162.47 61.8947 163.229 65.4958L122.864 73.9979C122.485 72.1973 121.986 70.4242 121.37 68.6902L160.239 54.8805Z" fill="#401C67"/>
<path d="M163.132 65.0442C163.927 68.7138 164.47 72.4333 164.757 76.1768L123.629 79.3384C123.485 77.4666 123.213 75.6069 122.816 73.7721L163.132 65.0442Z" fill="#DE58F9"/>
<path d="M164.741 75.9724C164.923 78.2606 165.009 80.5554 164.999 82.8507L123.75 82.6754C123.755 81.5277 123.711 80.3803 123.621 79.2362L164.741 75.9724Z" fill="#9527AB"/>
</svg>
