<svg width="60" height="50" viewBox="0 0 60 50" fill="none" xmlns="http://www.w3.org/2000/svg">
<g filter="url(#filter0_d_121_1820)">
<path d="M32.3291 36.6562V42H5.16504V37.4077L18.3574 23.0186C19.8047 21.3857 20.9458 19.9756 21.7808 18.7881C22.6157 17.6006 23.2002 16.5337 23.5342 15.5874C23.8867 14.6226 24.063 13.6855 24.063 12.7764C24.063 11.4961 23.8218 10.3735 23.3394 9.40869C22.8755 8.42529 22.189 7.65527 21.2798 7.09863C20.3706 6.52344 19.2666 6.23584 17.9678 6.23584C16.4648 6.23584 15.2031 6.56055 14.1826 7.20996C13.1621 7.85937 12.3921 8.75928 11.8726 9.90967C11.353 11.0415 11.0933 12.3403 11.0933 13.8062H4.38574C4.38574 11.4497 4.92383 9.29736 6 7.34912C7.07617 5.38232 8.63477 3.82373 10.6758 2.67334C12.7168 1.50439 15.1753 0.919922 18.0513 0.919922C20.7603 0.919922 23.061 1.37451 24.9536 2.28369C26.8462 3.19287 28.2842 4.48242 29.2676 6.15234C30.2695 7.82227 30.7705 9.79834 30.7705 12.0806C30.7705 13.3423 30.5664 14.5947 30.1582 15.8379C29.75 17.0811 29.1655 18.3242 28.4048 19.5674C27.6626 20.792 26.7812 22.0259 25.7607 23.269C24.7402 24.4937 23.6177 25.7368 22.3931 26.9985L13.626 36.6562H32.3291ZM55.875 1.3374V42H49.1675V9.29736L39.2314 12.665V7.12646L55.0679 1.3374H55.875Z" fill="#009A8D"/>
</g>
<defs>
<filter id="filter0_d_121_1820" x="0.385742" y="0.919922" width="59.4893" height="49.0801" filterUnits="userSpaceOnUse" color-interpolation-filters="sRGB">
<feFlood flood-opacity="0" result="BackgroundImageFix"/>
<feColorMatrix in="SourceAlpha" type="matrix" values="0 0 0 0 0 0 0 0 0 0 0 0 0 0 0 0 0 0 127 0" result="hardAlpha"/>
<feOffset dy="4"/>
<feGaussianBlur stdDeviation="2"/>
<feComposite in2="hardAlpha" operator="out"/>
<feColorMatrix type="matrix" values="0 0 0 0 0 0 0 0 0 0 0 0 0 0 0 0 0 0 0.25 0"/>
<feBlend mode="normal" in2="BackgroundImageFix" result="effect1_dropShadow_121_1820"/>
<feBlend mode="normal" in="SourceGraphic" in2="effect1_dropShadow_121_1820" result="shape"/>
</filter>
</defs>
</svg>
