<svg width="59" height="16" viewBox="0 0 59 16" fill="none" xmlns="http://www.w3.org/2000/svg">
<rect y="4" width="8" height="8" rx="2" fill="#009A8D"/>
<path d="M17.75 3.46875V12H16.2793V3.46875H17.75ZM22.877 3.46875L19.4199 7.57617L17.4512 9.66211L17.1934 8.20312L18.5996 6.46875L21.084 3.46875H22.877ZM21.2949 12L18.4883 7.95703L19.502 6.95508L23.041 12H21.2949ZM27.8945 10.5059V5.66016H29.3125V12H27.9766L27.8945 10.5059ZM28.0938 9.1875L28.5684 9.17578C28.5684 9.60156 28.5215 9.99414 28.4277 10.3535C28.334 10.709 28.1895 11.0195 27.9941 11.2852C27.7988 11.5469 27.5488 11.752 27.2441 11.9004C26.9395 12.0449 26.5742 12.1172 26.1484 12.1172C25.8398 12.1172 25.5566 12.0723 25.2988 11.9824C25.041 11.8926 24.8184 11.7539 24.6309 11.5664C24.4473 11.3789 24.3047 11.1348 24.2031 10.834C24.1016 10.5332 24.0508 10.1738 24.0508 9.75586V5.66016H25.4629V9.76758C25.4629 9.99805 25.4902 10.1914 25.5449 10.3477C25.5996 10.5 25.6738 10.623 25.7676 10.7168C25.8613 10.8105 25.9707 10.877 26.0957 10.916C26.2207 10.9551 26.3535 10.9746 26.4941 10.9746C26.8965 10.9746 27.2129 10.8965 27.4434 10.7402C27.6777 10.5801 27.8438 10.3652 27.9414 10.0957C28.043 9.82617 28.0938 9.52344 28.0938 9.1875ZM32.6602 7.01367V12H31.248V5.66016H32.5781L32.6602 7.01367ZM32.4082 8.5957L31.9512 8.58984C31.9551 8.14062 32.0176 7.72852 32.1387 7.35352C32.2637 6.97852 32.4355 6.65625 32.6543 6.38672C32.877 6.11719 33.1426 5.91016 33.4512 5.76562C33.7598 5.61719 34.1035 5.54297 34.4824 5.54297C34.7871 5.54297 35.0625 5.58594 35.3086 5.67188C35.5586 5.75391 35.7715 5.88867 35.9473 6.07617C36.127 6.26367 36.2637 6.50781 36.3574 6.80859C36.4512 7.10547 36.498 7.4707 36.498 7.9043V12H35.0801V7.89844C35.0801 7.59375 35.0352 7.35352 34.9453 7.17773C34.8594 6.99805 34.7324 6.87109 34.5645 6.79688C34.4004 6.71875 34.1953 6.67969 33.9492 6.67969C33.707 6.67969 33.4902 6.73047 33.2988 6.83203C33.1074 6.93359 32.9453 7.07227 32.8125 7.24805C32.6836 7.42383 32.584 7.62695 32.5137 7.85742C32.4434 8.08789 32.4082 8.33398 32.4082 8.5957ZM42.3066 10.6875V3H43.7246V12H42.4414L42.3066 10.6875ZM38.1816 8.90039V8.77734C38.1816 8.29688 38.2383 7.85938 38.3516 7.46484C38.4648 7.06641 38.6289 6.72461 38.8438 6.43945C39.0586 6.15039 39.3203 5.92969 39.6289 5.77734C39.9375 5.62109 40.2852 5.54297 40.6719 5.54297C41.0547 5.54297 41.3906 5.61719 41.6797 5.76562C41.9688 5.91406 42.2148 6.12695 42.418 6.4043C42.6211 6.67773 42.7832 7.00586 42.9043 7.38867C43.0254 7.76758 43.1113 8.18945 43.1621 8.6543V9.04688C43.1113 9.5 43.0254 9.91406 42.9043 10.2891C42.7832 10.6641 42.6211 10.9883 42.418 11.2617C42.2148 11.5352 41.9668 11.7461 41.6738 11.8945C41.3848 12.043 41.0469 12.1172 40.6602 12.1172C40.2773 12.1172 39.9316 12.0371 39.623 11.877C39.3184 11.7168 39.0586 11.4922 38.8438 11.2031C38.6289 10.9141 38.4648 10.5742 38.3516 10.1836C38.2383 9.78906 38.1816 9.36133 38.1816 8.90039ZM39.5938 8.77734V8.90039C39.5938 9.18945 39.6191 9.45898 39.6699 9.70898C39.7246 9.95898 39.8086 10.1797 39.9219 10.3711C40.0352 10.5586 40.1816 10.707 40.3613 10.8164C40.5449 10.9219 40.7637 10.9746 41.0176 10.9746C41.3379 10.9746 41.6016 10.9043 41.8086 10.7637C42.0156 10.623 42.1777 10.4336 42.2949 10.1953C42.416 9.95312 42.498 9.68359 42.541 9.38672V8.32617C42.5176 8.0957 42.4688 7.88086 42.3945 7.68164C42.3242 7.48242 42.2285 7.30859 42.1074 7.16016C41.9863 7.00781 41.8359 6.89062 41.6562 6.80859C41.4805 6.72266 41.2715 6.67969 41.0293 6.67969C40.7715 6.67969 40.5527 6.73438 40.373 6.84375C40.1934 6.95312 40.0449 7.10352 39.9277 7.29492C39.8145 7.48633 39.7305 7.70898 39.6758 7.96289C39.6211 8.2168 39.5938 8.48828 39.5938 8.77734ZM48.4961 12.1172C48.0273 12.1172 47.6035 12.041 47.2246 11.8887C46.8496 11.7324 46.5293 11.5156 46.2637 11.2383C46.002 10.9609 45.8008 10.6348 45.6602 10.2598C45.5195 9.88477 45.4492 9.48047 45.4492 9.04688V8.8125C45.4492 8.31641 45.5215 7.86719 45.666 7.46484C45.8105 7.0625 46.0117 6.71875 46.2695 6.43359C46.5273 6.14453 46.832 5.92383 47.1836 5.77148C47.5352 5.61914 47.916 5.54297 48.3262 5.54297C48.7793 5.54297 49.1758 5.61914 49.5156 5.77148C49.8555 5.92383 50.1367 6.13867 50.3594 6.41602C50.5859 6.68945 50.7539 7.01562 50.8633 7.39453C50.9766 7.77344 51.0332 8.19141 51.0332 8.64844V9.25195H46.1348V8.23828H49.6387V8.12695C49.6309 7.87305 49.5801 7.63477 49.4863 7.41211C49.3965 7.18945 49.2578 7.00977 49.0703 6.87305C48.8828 6.73633 48.6328 6.66797 48.3203 6.66797C48.0859 6.66797 47.877 6.71875 47.6934 6.82031C47.5137 6.91797 47.3633 7.06055 47.2422 7.24805C47.1211 7.43555 47.0273 7.66211 46.9609 7.92773C46.8984 8.18945 46.8672 8.48438 46.8672 8.8125V9.04688C46.8672 9.32422 46.9043 9.58203 46.9785 9.82031C47.0566 10.0547 47.1699 10.2598 47.3184 10.4355C47.4668 10.6113 47.6465 10.75 47.8574 10.8516C48.0684 10.9492 48.3086 10.998 48.5781 10.998C48.918 10.998 49.2207 10.9297 49.4863 10.793C49.752 10.6562 49.9824 10.4629 50.1777 10.2129L50.9219 10.9336C50.7852 11.1328 50.6074 11.3242 50.3887 11.5078C50.1699 11.6875 49.9023 11.834 49.5859 11.9473C49.2734 12.0605 48.9102 12.1172 48.4961 12.1172ZM54.0352 7.01367V12H52.623V5.66016H53.9531L54.0352 7.01367ZM53.7832 8.5957L53.3262 8.58984C53.3301 8.14062 53.3926 7.72852 53.5137 7.35352C53.6387 6.97852 53.8105 6.65625 54.0293 6.38672C54.252 6.11719 54.5176 5.91016 54.8262 5.76562C55.1348 5.61719 55.4785 5.54297 55.8574 5.54297C56.1621 5.54297 56.4375 5.58594 56.6836 5.67188C56.9336 5.75391 57.1465 5.88867 57.3223 6.07617C57.502 6.26367 57.6387 6.50781 57.7324 6.80859C57.8262 7.10547 57.873 7.4707 57.873 7.9043V12H56.4551V7.89844C56.4551 7.59375 56.4102 7.35352 56.3203 7.17773C56.2344 6.99805 56.1074 6.87109 55.9395 6.79688C55.7754 6.71875 55.5703 6.67969 55.3242 6.67969C55.082 6.67969 54.8652 6.73047 54.6738 6.83203C54.4824 6.93359 54.3203 7.07227 54.1875 7.24805C54.0586 7.42383 53.959 7.62695 53.8887 7.85742C53.8184 8.08789 53.7832 8.33398 53.7832 8.5957Z" fill="white"/>
</svg>
