<svg width="80" height="16" viewBox="0 0 80 16" fill="none" xmlns="http://www.w3.org/2000/svg">
<rect y="4" width="8" height="8" rx="2" fill="#8AFEF5"/>
<path d="M16.875 3.46875H18.1875L20.6543 10.0488L23.1152 3.46875H24.4277L21.1699 12H20.127L16.875 3.46875ZM16.2773 3.46875H17.5254L17.7422 9.16406V12H16.2773V3.46875ZM23.7773 3.46875H25.0312V12H23.5605V9.16406L23.7773 3.46875ZM28.6484 5.66016V12H27.2305V5.66016H28.6484ZM27.1367 3.99609C27.1367 3.78125 27.207 3.60352 27.3477 3.46289C27.4922 3.31836 27.6914 3.24609 27.9453 3.24609C28.1953 3.24609 28.3926 3.31836 28.5371 3.46289C28.6816 3.60352 28.7539 3.78125 28.7539 3.99609C28.7539 4.20703 28.6816 4.38281 28.5371 4.52344C28.3926 4.66406 28.1953 4.73438 27.9453 4.73438C27.6914 4.73438 27.4922 4.66406 27.3477 4.52344C27.207 4.38281 27.1367 4.20703 27.1367 3.99609ZM33.6016 5.66016V6.69141H30.0273V5.66016H33.6016ZM31.0586 4.10742H32.4707V10.248C32.4707 10.4434 32.498 10.5938 32.5527 10.6992C32.6113 10.8008 32.6914 10.8691 32.793 10.9043C32.8945 10.9395 33.0137 10.957 33.1504 10.957C33.248 10.957 33.3418 10.9512 33.4316 10.9395C33.5215 10.9277 33.5938 10.916 33.6484 10.9043L33.6543 11.9824C33.5371 12.0176 33.4004 12.0488 33.2441 12.0762C33.0918 12.1035 32.916 12.1172 32.7168 12.1172C32.3926 12.1172 32.1055 12.0605 31.8555 11.9473C31.6055 11.8301 31.4102 11.6406 31.2695 11.3789C31.1289 11.1172 31.0586 10.7695 31.0586 10.3359V4.10742ZM38.7656 10.7285V7.70508C38.7656 7.47852 38.7246 7.2832 38.6426 7.11914C38.5605 6.95508 38.4355 6.82812 38.2676 6.73828C38.1035 6.64844 37.8965 6.60352 37.6465 6.60352C37.416 6.60352 37.2168 6.64258 37.0488 6.7207C36.8809 6.79883 36.75 6.9043 36.6562 7.03711C36.5625 7.16992 36.5156 7.32031 36.5156 7.48828H35.1094C35.1094 7.23828 35.1699 6.99609 35.291 6.76172C35.4121 6.52734 35.5879 6.31836 35.8184 6.13477C36.0488 5.95117 36.3242 5.80664 36.6445 5.70117C36.9648 5.5957 37.3242 5.54297 37.7227 5.54297C38.1992 5.54297 38.6211 5.62305 38.9883 5.7832C39.3594 5.94336 39.6504 6.18555 39.8613 6.50977C40.0762 6.83008 40.1836 7.23242 40.1836 7.7168V10.5352C40.1836 10.8242 40.2031 11.084 40.2422 11.3145C40.2852 11.541 40.3457 11.7383 40.4238 11.9062V12H38.9766C38.9102 11.8477 38.8574 11.6543 38.8184 11.4199C38.7832 11.1816 38.7656 10.9512 38.7656 10.7285ZM38.9707 8.14453L38.9824 9.01758H37.9688C37.707 9.01758 37.4766 9.04297 37.2773 9.09375C37.0781 9.14062 36.9121 9.21094 36.7793 9.30469C36.6465 9.39844 36.5469 9.51172 36.4805 9.64453C36.4141 9.77734 36.3809 9.92773 36.3809 10.0957C36.3809 10.2637 36.4199 10.418 36.498 10.5586C36.5762 10.6953 36.6895 10.8027 36.8379 10.8809C36.9902 10.959 37.1738 10.998 37.3887 10.998C37.6777 10.998 37.9297 10.9395 38.1445 10.8223C38.3633 10.7012 38.5352 10.5547 38.6602 10.3828C38.7852 10.207 38.8516 10.041 38.8594 9.88477L39.3164 10.5117C39.2695 10.6719 39.1895 10.8438 39.0762 11.0273C38.9629 11.2109 38.8145 11.3867 38.6309 11.5547C38.4512 11.7188 38.2344 11.8535 37.9805 11.959C37.7305 12.0645 37.4414 12.1172 37.1133 12.1172C36.6992 12.1172 36.3301 12.0352 36.0059 11.8711C35.6816 11.7031 35.4277 11.4785 35.2441 11.1973C35.0605 10.9121 34.9688 10.5898 34.9688 10.2305C34.9688 9.89453 35.0312 9.59766 35.1562 9.33984C35.2852 9.07812 35.4727 8.85938 35.7188 8.68359C35.9688 8.50781 36.2734 8.375 36.6328 8.28516C36.9922 8.19141 37.4023 8.14453 37.8633 8.14453H38.9707ZM43.5781 6.86719V12H42.166V5.66016H43.5137L43.5781 6.86719ZM45.5176 5.61914L45.5059 6.93164C45.4199 6.91602 45.3262 6.9043 45.2246 6.89648C45.127 6.88867 45.0293 6.88477 44.9316 6.88477C44.6895 6.88477 44.4766 6.91992 44.293 6.99023C44.1094 7.05664 43.9551 7.1543 43.8301 7.2832C43.709 7.4082 43.6152 7.56055 43.5488 7.74023C43.4824 7.91992 43.4434 8.12109 43.4316 8.34375L43.1094 8.36719C43.1094 7.96875 43.1484 7.59961 43.2266 7.25977C43.3047 6.91992 43.4219 6.62109 43.5781 6.36328C43.7383 6.10547 43.9375 5.9043 44.1758 5.75977C44.418 5.61523 44.6973 5.54297 45.0137 5.54297C45.0996 5.54297 45.1914 5.55078 45.2891 5.56641C45.3906 5.58203 45.4668 5.59961 45.5176 5.61914ZM46.9082 3H48.3203V10.6465L48.1855 12H46.9082V3ZM52.457 8.77148V8.89453C52.457 9.36328 52.4043 9.79492 52.2988 10.1895C52.1973 10.5801 52.041 10.9199 51.8301 11.209C51.623 11.498 51.3652 11.7227 51.0566 11.8828C50.752 12.0391 50.3984 12.1172 49.9961 12.1172C49.6016 12.1172 49.2578 12.043 48.9648 11.8945C48.6719 11.7461 48.4258 11.5352 48.2266 11.2617C48.0312 10.9883 47.873 10.6621 47.752 10.2832C47.6309 9.9043 47.5449 9.48633 47.4941 9.0293V8.63672C47.5449 8.17578 47.6309 7.75781 47.752 7.38281C47.873 7.00391 48.0312 6.67773 48.2266 6.4043C48.4258 6.12695 48.6699 5.91406 48.959 5.76562C49.252 5.61719 49.5938 5.54297 49.9844 5.54297C50.3906 5.54297 50.748 5.62109 51.0566 5.77734C51.3691 5.93359 51.6289 6.15625 51.8359 6.44531C52.043 6.73047 52.1973 7.07031 52.2988 7.46484C52.4043 7.85938 52.457 8.29492 52.457 8.77148ZM51.0449 8.89453V8.77148C51.0449 8.48633 51.0215 8.21875 50.9746 7.96875C50.9277 7.71484 50.8496 7.49219 50.7402 7.30078C50.6348 7.10938 50.4902 6.95898 50.3066 6.84961C50.127 6.73633 49.9023 6.67969 49.6328 6.67969C49.3828 6.67969 49.168 6.72266 48.9883 6.80859C48.8086 6.89453 48.6582 7.01172 48.5371 7.16016C48.416 7.30859 48.3203 7.48047 48.25 7.67578C48.1836 7.87109 48.1387 8.08203 48.1152 8.30859V9.36914C48.1504 9.66211 48.2246 9.93164 48.3379 10.1777C48.4551 10.4199 48.6191 10.6152 48.8301 10.7637C49.041 10.9082 49.3125 10.9805 49.6445 10.9805C49.9062 10.9805 50.127 10.9277 50.3066 10.8223C50.4863 10.7168 50.6289 10.5703 50.7344 10.3828C50.8438 10.1914 50.9219 9.96875 50.9688 9.71484C51.0195 9.46094 51.0449 9.1875 51.0449 8.89453ZM56.9473 12.1172C56.4785 12.1172 56.0547 12.041 55.6758 11.8887C55.3008 11.7324 54.9805 11.5156 54.7148 11.2383C54.4531 10.9609 54.252 10.6348 54.1113 10.2598C53.9707 9.88477 53.9004 9.48047 53.9004 9.04688V8.8125C53.9004 8.31641 53.9727 7.86719 54.1172 7.46484C54.2617 7.0625 54.4629 6.71875 54.7207 6.43359C54.9785 6.14453 55.2832 5.92383 55.6348 5.77148C55.9863 5.61914 56.3672 5.54297 56.7773 5.54297C57.2305 5.54297 57.627 5.61914 57.9668 5.77148C58.3066 5.92383 58.5879 6.13867 58.8105 6.41602C59.0371 6.68945 59.2051 7.01562 59.3145 7.39453C59.4277 7.77344 59.4844 8.19141 59.4844 8.64844V9.25195H54.5859V8.23828H58.0898V8.12695C58.082 7.87305 58.0312 7.63477 57.9375 7.41211C57.8477 7.18945 57.709 7.00977 57.5215 6.87305C57.334 6.73633 57.084 6.66797 56.7715 6.66797C56.5371 6.66797 56.3281 6.71875 56.1445 6.82031C55.9648 6.91797 55.8145 7.06055 55.6934 7.24805C55.5723 7.43555 55.4785 7.66211 55.4121 7.92773C55.3496 8.18945 55.3184 8.48438 55.3184 8.8125V9.04688C55.3184 9.32422 55.3555 9.58203 55.4297 9.82031C55.5078 10.0547 55.6211 10.2598 55.7695 10.4355C55.918 10.6113 56.0977 10.75 56.3086 10.8516C56.5195 10.9492 56.7598 10.998 57.0293 10.998C57.3691 10.998 57.6719 10.9297 57.9375 10.793C58.2031 10.6562 58.4336 10.4629 58.6289 10.2129L59.373 10.9336C59.2363 11.1328 59.0586 11.3242 58.8398 11.5078C58.6211 11.6875 58.3535 11.834 58.0371 11.9473C57.7246 12.0605 57.3613 12.1172 56.9473 12.1172ZM62.5977 5.66016V12H61.1797V5.66016H62.5977ZM61.0859 3.99609C61.0859 3.78125 61.1562 3.60352 61.2969 3.46289C61.4414 3.31836 61.6406 3.24609 61.8945 3.24609C62.1445 3.24609 62.3418 3.31836 62.4863 3.46289C62.6309 3.60352 62.7031 3.78125 62.7031 3.99609C62.7031 4.20703 62.6309 4.38281 62.4863 4.52344C62.3418 4.66406 62.1445 4.73438 61.8945 4.73438C61.6406 4.73438 61.4414 4.66406 61.2969 4.52344C61.1562 4.38281 61.0859 4.20703 61.0859 3.99609ZM67.5508 5.66016V6.69141H63.9766V5.66016H67.5508ZM65.0078 4.10742H66.4199V10.248C66.4199 10.4434 66.4473 10.5938 66.502 10.6992C66.5605 10.8008 66.6406 10.8691 66.7422 10.9043C66.8438 10.9395 66.9629 10.957 67.0996 10.957C67.1973 10.957 67.291 10.9512 67.3809 10.9395C67.4707 10.9277 67.543 10.916 67.5977 10.9043L67.6035 11.9824C67.4863 12.0176 67.3496 12.0488 67.1934 12.0762C67.041 12.1035 66.8652 12.1172 66.666 12.1172C66.3418 12.1172 66.0547 12.0605 65.8047 11.9473C65.5547 11.8301 65.3594 11.6406 65.2188 11.3789C65.0781 11.1172 65.0078 10.7695 65.0078 10.3359V4.10742ZM71.9355 12.1172C71.4668 12.1172 71.043 12.041 70.6641 11.8887C70.2891 11.7324 69.9688 11.5156 69.7031 11.2383C69.4414 10.9609 69.2402 10.6348 69.0996 10.2598C68.959 9.88477 68.8887 9.48047 68.8887 9.04688V8.8125C68.8887 8.31641 68.9609 7.86719 69.1055 7.46484C69.25 7.0625 69.4512 6.71875 69.709 6.43359C69.9668 6.14453 70.2715 5.92383 70.623 5.77148C70.9746 5.61914 71.3555 5.54297 71.7656 5.54297C72.2188 5.54297 72.6152 5.61914 72.9551 5.77148C73.2949 5.92383 73.5762 6.13867 73.7988 6.41602C74.0254 6.68945 74.1934 7.01562 74.3027 7.39453C74.416 7.77344 74.4727 8.19141 74.4727 8.64844V9.25195H69.5742V8.23828H73.0781V8.12695C73.0703 7.87305 73.0195 7.63477 72.9258 7.41211C72.8359 7.18945 72.6973 7.00977 72.5098 6.87305C72.3223 6.73633 72.0723 6.66797 71.7598 6.66797C71.5254 6.66797 71.3164 6.71875 71.1328 6.82031C70.9531 6.91797 70.8027 7.06055 70.6816 7.24805C70.5605 7.43555 70.4668 7.66211 70.4004 7.92773C70.3379 8.18945 70.3066 8.48438 70.3066 8.8125V9.04688C70.3066 9.32422 70.3438 9.58203 70.418 9.82031C70.4961 10.0547 70.6094 10.2598 70.7578 10.4355C70.9062 10.6113 71.0859 10.75 71.2969 10.8516C71.5078 10.9492 71.748 10.998 72.0176 10.998C72.3574 10.998 72.6602 10.9297 72.9258 10.793C73.1914 10.6562 73.4219 10.4629 73.6172 10.2129L74.3613 10.9336C74.2246 11.1328 74.0469 11.3242 73.8281 11.5078C73.6094 11.6875 73.3418 11.834 73.0254 11.9473C72.7129 12.0605 72.3496 12.1172 71.9355 12.1172ZM77.4922 6.86719V12H76.0801V5.66016H77.4277L77.4922 6.86719ZM79.4316 5.61914L79.4199 6.93164C79.334 6.91602 79.2402 6.9043 79.1387 6.89648C79.041 6.88867 78.9434 6.88477 78.8457 6.88477C78.6035 6.88477 78.3906 6.91992 78.207 6.99023C78.0234 7.05664 77.8691 7.1543 77.7441 7.2832C77.623 7.4082 77.5293 7.56055 77.4629 7.74023C77.3965 7.91992 77.3574 8.12109 77.3457 8.34375L77.0234 8.36719C77.0234 7.96875 77.0625 7.59961 77.1406 7.25977C77.2188 6.91992 77.3359 6.62109 77.4922 6.36328C77.6523 6.10547 77.8516 5.9043 78.0898 5.75977C78.332 5.61523 78.6113 5.54297 78.9277 5.54297C79.0137 5.54297 79.1055 5.55078 79.2031 5.56641C79.3047 5.58203 79.3809 5.59961 79.4316 5.61914Z" fill="white"/>
</svg>
