<svg width="77" height="96" viewBox="0 0 77 96" fill="none" xmlns="http://www.w3.org/2000/svg">
<rect y="64" width="8" height="8" rx="2" fill="#0D82CA"/>
<path d="M18.1836 68.8184H15.9629V67.6523H18.1836C18.5703 67.6523 18.8828 67.5898 19.1211 67.4648C19.3594 67.3398 19.5332 67.168 19.6426 66.9492C19.7559 66.7266 19.8125 66.4727 19.8125 66.1875C19.8125 65.918 19.7559 65.666 19.6426 65.4316C19.5332 65.1934 19.3594 65.002 19.1211 64.8574C18.8828 64.7129 18.5703 64.6406 18.1836 64.6406H16.4141V72H14.9434V63.4688H18.1836C18.8438 63.4688 19.4043 63.5859 19.8652 63.8203C20.3301 64.0508 20.6836 64.3711 20.9258 64.7812C21.168 65.1875 21.2891 65.6523 21.2891 66.1758C21.2891 66.7266 21.168 67.1992 20.9258 67.5938C20.6836 67.9883 20.3301 68.291 19.8652 68.502C19.4043 68.7129 18.8438 68.8184 18.1836 68.8184ZM28.7441 67.0312V68.1973H24.2148V67.0312H28.7441ZM24.5781 63.4688V72H23.1074V63.4688H24.5781ZM29.875 63.4688V72H28.4102V63.4688H29.875ZM35.3672 68.8184H33.1465V67.6523H35.3672C35.7539 67.6523 36.0664 67.5898 36.3047 67.4648C36.543 67.3398 36.7168 67.168 36.8262 66.9492C36.9395 66.7266 36.9961 66.4727 36.9961 66.1875C36.9961 65.918 36.9395 65.666 36.8262 65.4316C36.7168 65.1934 36.543 65.002 36.3047 64.8574C36.0664 64.7129 35.7539 64.6406 35.3672 64.6406H33.5977V72H32.127V63.4688H35.3672C36.0273 63.4688 36.5879 63.5859 37.0488 63.8203C37.5137 64.0508 37.8672 64.3711 38.1094 64.7812C38.3516 65.1875 38.4727 65.6523 38.4727 66.1758C38.4727 66.7266 38.3516 67.1992 38.1094 67.5938C37.8672 67.9883 37.5137 68.291 37.0488 68.502C36.5879 68.7129 36.0273 68.8184 35.3672 68.8184Z" fill="white"/>
<rect y="44" width="8" height="8" rx="2" fill="#51BCFF"/>
<path d="M16.5781 43.4688V52H15.1074V43.4688H16.5781ZM21.7051 43.4688L18.248 47.5762L16.2793 49.6621L16.0215 48.2031L17.4277 46.4688L19.9121 43.4688H21.7051ZM20.123 52L17.3164 47.957L18.3301 46.9551L21.8691 52H20.123ZM22.6152 48.9004V48.7656C22.6152 48.3086 22.6816 47.8848 22.8145 47.4941C22.9473 47.0996 23.1387 46.7578 23.3887 46.4688C23.6426 46.1758 23.9512 45.9492 24.3145 45.7891C24.6816 45.625 25.0957 45.543 25.5566 45.543C26.0215 45.543 26.4355 45.625 26.7988 45.7891C27.166 45.9492 27.4766 46.1758 27.7305 46.4688C27.9844 46.7578 28.1777 47.0996 28.3105 47.4941C28.4434 47.8848 28.5098 48.3086 28.5098 48.7656V48.9004C28.5098 49.3574 28.4434 49.7812 28.3105 50.1719C28.1777 50.5625 27.9844 50.9043 27.7305 51.1973C27.4766 51.4863 27.168 51.7129 26.8047 51.877C26.4414 52.0371 26.0293 52.1172 25.5684 52.1172C25.1035 52.1172 24.6875 52.0371 24.3203 51.877C23.957 51.7129 23.6484 51.4863 23.3945 51.1973C23.1406 50.9043 22.9473 50.5625 22.8145 50.1719C22.6816 49.7812 22.6152 49.3574 22.6152 48.9004ZM24.0273 48.7656V48.9004C24.0273 49.1855 24.0566 49.4551 24.1152 49.709C24.1738 49.9629 24.2656 50.1855 24.3906 50.377C24.5156 50.5684 24.6758 50.7188 24.8711 50.8281C25.0664 50.9375 25.2988 50.9922 25.5684 50.9922C25.8301 50.9922 26.0566 50.9375 26.248 50.8281C26.4434 50.7188 26.6035 50.5684 26.7285 50.377C26.8535 50.1855 26.9453 49.9629 27.0039 49.709C27.0664 49.4551 27.0977 49.1855 27.0977 48.9004V48.7656C27.0977 48.4844 27.0664 48.2188 27.0039 47.9688C26.9453 47.7148 26.8516 47.4902 26.7227 47.2949C26.5977 47.0996 26.4375 46.9473 26.2422 46.8379C26.0508 46.7246 25.8223 46.668 25.5566 46.668C25.291 46.668 25.0605 46.7246 24.8652 46.8379C24.6738 46.9473 24.5156 47.0996 24.3906 47.2949C24.2656 47.4902 24.1738 47.7148 24.1152 47.9688C24.0566 48.2188 24.0273 48.4844 24.0273 48.7656ZM33.0996 45.6602V46.6914H29.5254V45.6602H33.0996ZM30.5566 44.1074H31.9688V50.248C31.9688 50.4434 31.9961 50.5938 32.0508 50.6992C32.1094 50.8008 32.1895 50.8691 32.291 50.9043C32.3926 50.9395 32.5117 50.957 32.6484 50.957C32.7461 50.957 32.8398 50.9512 32.9297 50.9395C33.0195 50.9277 33.0918 50.916 33.1465 50.9043L33.1523 51.9824C33.0352 52.0176 32.8984 52.0488 32.7422 52.0762C32.5898 52.1035 32.4141 52.1172 32.2148 52.1172C31.8906 52.1172 31.6035 52.0605 31.3535 51.9473C31.1035 51.8301 30.9082 51.6406 30.7676 51.3789C30.627 51.1172 30.5566 50.7695 30.5566 50.3359V44.1074ZM36.2012 43V52H34.7832V43H36.2012ZM39.7598 45.6602V52H38.3418V45.6602H39.7598ZM38.248 43.9961C38.248 43.7812 38.3184 43.6035 38.459 43.4629C38.6035 43.3184 38.8027 43.2461 39.0566 43.2461C39.3066 43.2461 39.5039 43.3184 39.6484 43.4629C39.793 43.6035 39.8652 43.7812 39.8652 43.9961C39.8652 44.207 39.793 44.3828 39.6484 44.5234C39.5039 44.6641 39.3066 44.7344 39.0566 44.7344C38.8027 44.7344 38.6035 44.6641 38.459 44.5234C38.3184 44.3828 38.248 44.207 38.248 43.9961ZM43.207 47.0137V52H41.7949V45.6602H43.125L43.207 47.0137ZM42.9551 48.5957L42.498 48.5898C42.502 48.1406 42.5645 47.7285 42.6855 47.3535C42.8105 46.9785 42.9824 46.6562 43.2012 46.3867C43.4238 46.1172 43.6895 45.9102 43.998 45.7656C44.3066 45.6172 44.6504 45.543 45.0293 45.543C45.334 45.543 45.6094 45.5859 45.8555 45.6719C46.1055 45.7539 46.3184 45.8887 46.4941 46.0762C46.6738 46.2637 46.8105 46.5078 46.9043 46.8086C46.998 47.1055 47.0449 47.4707 47.0449 47.9043V52H45.627V47.8984C45.627 47.5938 45.582 47.3535 45.4922 47.1777C45.4062 46.998 45.2793 46.8711 45.1113 46.7969C44.9473 46.7188 44.7422 46.6797 44.4961 46.6797C44.2539 46.6797 44.0371 46.7305 43.8457 46.832C43.6543 46.9336 43.4922 47.0723 43.3594 47.248C43.2305 47.4238 43.1309 47.627 43.0605 47.8574C42.9902 48.0879 42.9551 48.334 42.9551 48.5957Z" fill="white"/>
<rect y="24" width="8" height="8" rx="2" fill="#2CD9CA"/>
<path d="M20.3184 29.2227H21.7832C21.7363 29.7812 21.5801 30.2793 21.3145 30.7168C21.0488 31.1504 20.6758 31.4922 20.1953 31.7422C19.7148 31.9922 19.1309 32.1172 18.4434 32.1172C17.916 32.1172 17.4414 32.0234 17.0195 31.8359C16.5977 31.6445 16.2363 31.375 15.9355 31.0273C15.6348 30.6758 15.4043 30.252 15.2441 29.7559C15.0879 29.2598 15.0098 28.7051 15.0098 28.0918V27.3828C15.0098 26.7695 15.0898 26.2148 15.25 25.7188C15.4141 25.2227 15.6484 24.7988 15.9531 24.4473C16.2578 24.0918 16.623 23.8203 17.0488 23.6328C17.4785 23.4453 17.9609 23.3516 18.4961 23.3516C19.1758 23.3516 19.75 23.4766 20.2188 23.7266C20.6875 23.9766 21.0508 24.3223 21.3086 24.7637C21.5703 25.2051 21.7305 25.7109 21.7891 26.2812H20.3242C20.2852 25.9141 20.1992 25.5996 20.0664 25.3379C19.9375 25.0762 19.7461 24.877 19.4922 24.7402C19.2383 24.5996 18.9062 24.5293 18.4961 24.5293C18.1602 24.5293 17.8672 24.5918 17.6172 24.7168C17.3672 24.8418 17.1582 25.0254 16.9902 25.2676C16.8223 25.5098 16.6953 25.8086 16.6094 26.1641C16.5273 26.5156 16.4863 26.918 16.4863 27.3711V28.0918C16.4863 28.5215 16.5234 28.9121 16.5977 29.2637C16.6758 29.6113 16.793 29.9102 16.9492 30.1602C17.1094 30.4102 17.3125 30.6035 17.5586 30.7402C17.8047 30.877 18.0996 30.9453 18.4434 30.9453C18.8613 30.9453 19.1992 30.8789 19.457 30.7461C19.7188 30.6133 19.916 30.4199 20.0488 30.166C20.1855 29.9082 20.2754 29.5938 20.3184 29.2227ZM28.9863 27.3242V28.5957H23.1387V27.3242H28.9863ZM26.748 24.9336V31.1445H25.3828V24.9336H26.748ZM36.1543 27.3242V28.5957H30.3066V27.3242H36.1543ZM33.916 24.9336V31.1445H32.5508V24.9336H33.916Z" fill="white"/>
<rect y="84" width="8" height="8" rx="2" fill="#265877"/>
<path d="M18.8691 83.4688V92H17.4102V83.4688H18.8691ZM21.5469 83.4688V84.6406H14.7559V83.4688H21.5469ZM24.4258 91.3086L26.1484 85.6602H27.6602L25.1172 92.9668C25.0586 93.123 24.9824 93.293 24.8887 93.4766C24.7949 93.6602 24.6719 93.834 24.5195 93.998C24.3711 94.166 24.1855 94.3008 23.9629 94.4023C23.7402 94.5078 23.4707 94.5605 23.1543 94.5605C23.0293 94.5605 22.9082 94.5488 22.791 94.5254C22.6777 94.5059 22.5703 94.4844 22.4688 94.4609L22.4629 93.3828C22.502 93.3867 22.5488 93.3906 22.6035 93.3945C22.6621 93.3984 22.709 93.4004 22.7441 93.4004C22.9785 93.4004 23.1738 93.3711 23.3301 93.3125C23.4863 93.2578 23.6133 93.168 23.7109 93.043C23.8125 92.918 23.8984 92.75 23.9688 92.5391L24.4258 91.3086ZM23.4531 85.6602L24.959 90.4062L25.2109 91.8945L24.2324 92.1465L21.9297 85.6602H23.4531ZM30.3867 86.8789V94.4375H28.9746V85.6602H30.2754L30.3867 86.8789ZM34.5176 88.7715V88.8945C34.5176 89.3555 34.4629 89.7832 34.3535 90.1777C34.248 90.5684 34.0898 90.9102 33.8789 91.2031C33.6719 91.4922 33.416 91.7168 33.1113 91.877C32.8066 92.0371 32.4551 92.1172 32.0566 92.1172C31.6621 92.1172 31.3164 92.0449 31.0195 91.9004C30.7266 91.752 30.4785 91.543 30.2754 91.2734C30.0723 91.0039 29.9082 90.6875 29.7832 90.3242C29.6621 89.957 29.5762 89.5547 29.5254 89.1172V88.6426C29.5762 88.1777 29.6621 87.7559 29.7832 87.377C29.9082 86.998 30.0723 86.6719 30.2754 86.3984C30.4785 86.125 30.7266 85.9141 31.0195 85.7656C31.3125 85.6172 31.6543 85.543 32.0449 85.543C32.4434 85.543 32.7969 85.6211 33.1055 85.7773C33.4141 85.9297 33.6738 86.1484 33.8848 86.4336C34.0957 86.7148 34.2539 87.0547 34.3594 87.4531C34.4648 87.8477 34.5176 88.2871 34.5176 88.7715ZM33.1055 88.8945V88.7715C33.1055 88.4785 33.0781 88.207 33.0234 87.957C32.9688 87.7031 32.8828 87.4805 32.7656 87.2891C32.6484 87.0977 32.498 86.9492 32.3145 86.8438C32.1348 86.7344 31.918 86.6797 31.6641 86.6797C31.4141 86.6797 31.1992 86.7227 31.0195 86.8086C30.8398 86.8906 30.6895 87.0059 30.5684 87.1543C30.4473 87.3027 30.3535 87.4766 30.2871 87.6758C30.2207 87.8711 30.1738 88.084 30.1465 88.3145V89.4512C30.1934 89.7324 30.2734 89.9902 30.3867 90.2246C30.5 90.459 30.6602 90.6465 30.8672 90.7871C31.0781 90.9238 31.3477 90.9922 31.6758 90.9922C31.9297 90.9922 32.1465 90.9375 32.3262 90.8281C32.5059 90.7188 32.6523 90.5684 32.7656 90.377C32.8828 90.1816 32.9688 89.957 33.0234 89.7031C33.0781 89.4492 33.1055 89.1797 33.1055 88.8945ZM39.0137 92.1172C38.5449 92.1172 38.1211 92.041 37.7422 91.8887C37.3672 91.7324 37.0469 91.5156 36.7812 91.2383C36.5195 90.9609 36.3184 90.6348 36.1777 90.2598C36.0371 89.8848 35.9668 89.4805 35.9668 89.0469V88.8125C35.9668 88.3164 36.0391 87.8672 36.1836 87.4648C36.3281 87.0625 36.5293 86.7188 36.7871 86.4336C37.0449 86.1445 37.3496 85.9238 37.7012 85.7715C38.0527 85.6191 38.4336 85.543 38.8438 85.543C39.2969 85.543 39.6934 85.6191 40.0332 85.7715C40.373 85.9238 40.6543 86.1387 40.877 86.416C41.1035 86.6895 41.2715 87.0156 41.3809 87.3945C41.4941 87.7734 41.5508 88.1914 41.5508 88.6484V89.252H36.6523V88.2383H40.1562V88.127C40.1484 87.873 40.0977 87.6348 40.0039 87.4121C39.9141 87.1895 39.7754 87.0098 39.5879 86.873C39.4004 86.7363 39.1504 86.668 38.8379 86.668C38.6035 86.668 38.3945 86.7188 38.2109 86.8203C38.0312 86.918 37.8809 87.0605 37.7598 87.248C37.6387 87.4355 37.5449 87.6621 37.4785 87.9277C37.416 88.1895 37.3848 88.4844 37.3848 88.8125V89.0469C37.3848 89.3242 37.4219 89.582 37.4961 89.8203C37.5742 90.0547 37.6875 90.2598 37.8359 90.4355C37.9844 90.6113 38.1641 90.75 38.375 90.8516C38.5859 90.9492 38.8262 90.998 39.0957 90.998C39.4355 90.998 39.7383 90.9297 40.0039 90.793C40.2695 90.6562 40.5 90.4629 40.6953 90.2129L41.4395 90.9336C41.3027 91.1328 41.125 91.3242 40.9062 91.5078C40.6875 91.6875 40.4199 91.834 40.1035 91.9473C39.791 92.0605 39.4277 92.1172 39.0137 92.1172ZM47.7812 89.8027C47.7812 89.627 47.7539 89.4707 47.6992 89.334C47.6484 89.1973 47.5566 89.0723 47.4238 88.959C47.291 88.8457 47.1035 88.7363 46.8613 88.6309C46.623 88.5215 46.3184 88.4102 45.9473 88.2969C45.541 88.1719 45.166 88.0332 44.8223 87.8809C44.4824 87.7246 44.1855 87.5449 43.9316 87.3418C43.6777 87.1348 43.4805 86.8984 43.3398 86.6328C43.1992 86.3633 43.1289 86.0527 43.1289 85.7012C43.1289 85.3535 43.2012 85.0371 43.3457 84.752C43.4941 84.4668 43.7031 84.2207 43.9727 84.0137C44.2461 83.8027 44.5684 83.6406 44.9395 83.5273C45.3105 83.4102 45.7207 83.3516 46.1699 83.3516C46.8027 83.3516 47.3477 83.4688 47.8047 83.7031C48.2656 83.9375 48.6191 84.252 48.8652 84.6465C49.1152 85.041 49.2402 85.4766 49.2402 85.9531H47.7812C47.7812 85.6719 47.7207 85.4238 47.5996 85.209C47.4824 84.9902 47.3027 84.8184 47.0605 84.6934C46.8223 84.5684 46.5195 84.5059 46.1523 84.5059C45.8047 84.5059 45.5156 84.5586 45.2852 84.6641C45.0547 84.7695 44.8828 84.9121 44.7695 85.0918C44.6562 85.2715 44.5996 85.4746 44.5996 85.7012C44.5996 85.8613 44.6367 86.0078 44.7109 86.1406C44.7852 86.2695 44.8984 86.3906 45.0508 86.5039C45.2031 86.6133 45.3945 86.7168 45.625 86.8145C45.8555 86.9121 46.127 87.0059 46.4395 87.0957C46.9121 87.2363 47.3242 87.3926 47.6758 87.5645C48.0273 87.7324 48.3203 87.9238 48.5547 88.1387C48.7891 88.3535 48.9648 88.5977 49.082 88.8711C49.1992 89.1406 49.2578 89.4473 49.2578 89.791C49.2578 90.1504 49.1855 90.4746 49.041 90.7637C48.8965 91.0488 48.6895 91.293 48.4199 91.4961C48.1543 91.6953 47.834 91.8496 47.459 91.959C47.0879 92.0645 46.6738 92.1172 46.2168 92.1172C45.8066 92.1172 45.4023 92.0625 45.0039 91.9531C44.6094 91.8438 44.25 91.6777 43.9258 91.4551C43.6016 91.2285 43.3438 90.9473 43.1523 90.6113C42.9609 90.2715 42.8652 89.875 42.8652 89.4219H44.3359C44.3359 89.6992 44.3828 89.9355 44.4766 90.1309C44.5742 90.3262 44.709 90.4863 44.8809 90.6113C45.0527 90.7324 45.252 90.8223 45.4785 90.8809C45.709 90.9395 45.9551 90.9688 46.2168 90.9688C46.5605 90.9688 46.8477 90.9199 47.0781 90.8223C47.3125 90.7246 47.4883 90.5879 47.6055 90.4121C47.7227 90.2363 47.7812 90.0332 47.7812 89.8027ZM53.5078 90.9922C53.7383 90.9922 53.9453 90.9473 54.1289 90.8574C54.3164 90.7637 54.4668 90.6348 54.5801 90.4707C54.6973 90.3066 54.7617 90.1172 54.7734 89.9023H56.1035C56.0957 90.3125 55.9746 90.6855 55.7402 91.0215C55.5059 91.3574 55.1953 91.625 54.8086 91.8242C54.4219 92.0195 53.9941 92.1172 53.5254 92.1172C53.041 92.1172 52.6191 92.0352 52.2598 91.8711C51.9004 91.7031 51.6016 91.4727 51.3633 91.1797C51.125 90.8867 50.9453 90.5488 50.8242 90.166C50.707 89.7832 50.6484 89.373 50.6484 88.9355V88.7305C50.6484 88.293 50.707 87.8828 50.8242 87.5C50.9453 87.1133 51.125 86.7734 51.3633 86.4805C51.6016 86.1875 51.9004 85.959 52.2598 85.7949C52.6191 85.627 53.0391 85.543 53.5195 85.543C54.0273 85.543 54.4727 85.6445 54.8555 85.8477C55.2383 86.0469 55.5391 86.3262 55.7578 86.6855C55.9805 87.041 56.0957 87.4551 56.1035 87.9277H54.7734C54.7617 87.6934 54.7031 87.4824 54.5977 87.2949C54.4961 87.1035 54.3516 86.9512 54.1641 86.8379C53.9805 86.7246 53.7598 86.668 53.502 86.668C53.2168 86.668 52.9805 86.7266 52.793 86.8438C52.6055 86.957 52.459 87.1133 52.3535 87.3125C52.248 87.5078 52.1719 87.7285 52.125 87.9746C52.082 88.2168 52.0605 88.4688 52.0605 88.7305V88.9355C52.0605 89.1973 52.082 89.4512 52.125 89.6973C52.168 89.9434 52.2422 90.1641 52.3477 90.3594C52.457 90.5508 52.6055 90.7051 52.793 90.8223C52.9805 90.9355 53.2188 90.9922 53.5078 90.9922ZM59.1055 86.8672V92H57.6934V85.6602H59.041L59.1055 86.8672ZM61.0449 85.6191L61.0332 86.9316C60.9473 86.916 60.8535 86.9043 60.752 86.8965C60.6543 86.8887 60.5566 86.8848 60.459 86.8848C60.2168 86.8848 60.0039 86.9199 59.8203 86.9902C59.6367 87.0566 59.4824 87.1543 59.3574 87.2832C59.2363 87.4082 59.1426 87.5605 59.0762 87.7402C59.0098 87.9199 58.9707 88.1211 58.959 88.3438L58.6367 88.3672C58.6367 87.9688 58.6758 87.5996 58.7539 87.2598C58.832 86.9199 58.9492 86.6211 59.1055 86.3633C59.2656 86.1055 59.4648 85.9043 59.7031 85.7598C59.9453 85.6152 60.2246 85.543 60.541 85.543C60.627 85.543 60.7188 85.5508 60.8164 85.5664C60.918 85.582 60.9941 85.5996 61.0449 85.6191ZM63.9414 85.6602V92H62.5234V85.6602H63.9414ZM62.4297 83.9961C62.4297 83.7812 62.5 83.6035 62.6406 83.4629C62.7852 83.3184 62.9844 83.2461 63.2383 83.2461C63.4883 83.2461 63.6855 83.3184 63.8301 83.4629C63.9746 83.6035 64.0469 83.7812 64.0469 83.9961C64.0469 84.207 63.9746 84.3828 63.8301 84.5234C63.6855 84.6641 63.4883 84.7344 63.2383 84.7344C62.9844 84.7344 62.7852 84.6641 62.6406 84.5234C62.5 84.3828 62.4297 84.207 62.4297 83.9961ZM67.4062 86.8789V94.4375H65.9941V85.6602H67.2949L67.4062 86.8789ZM71.5371 88.7715V88.8945C71.5371 89.3555 71.4824 89.7832 71.373 90.1777C71.2676 90.5684 71.1094 90.9102 70.8984 91.2031C70.6914 91.4922 70.4355 91.7168 70.1309 91.877C69.8262 92.0371 69.4746 92.1172 69.0762 92.1172C68.6816 92.1172 68.3359 92.0449 68.0391 91.9004C67.7461 91.752 67.498 91.543 67.2949 91.2734C67.0918 91.0039 66.9277 90.6875 66.8027 90.3242C66.6816 89.957 66.5957 89.5547 66.5449 89.1172V88.6426C66.5957 88.1777 66.6816 87.7559 66.8027 87.377C66.9277 86.998 67.0918 86.6719 67.2949 86.3984C67.498 86.125 67.7461 85.9141 68.0391 85.7656C68.332 85.6172 68.6738 85.543 69.0645 85.543C69.4629 85.543 69.8164 85.6211 70.125 85.7773C70.4336 85.9297 70.6934 86.1484 70.9043 86.4336C71.1152 86.7148 71.2734 87.0547 71.3789 87.4531C71.4844 87.8477 71.5371 88.2871 71.5371 88.7715ZM70.125 88.8945V88.7715C70.125 88.4785 70.0977 88.207 70.043 87.957C69.9883 87.7031 69.9023 87.4805 69.7852 87.2891C69.668 87.0977 69.5176 86.9492 69.334 86.8438C69.1543 86.7344 68.9375 86.6797 68.6836 86.6797C68.4336 86.6797 68.2188 86.7227 68.0391 86.8086C67.8594 86.8906 67.709 87.0059 67.5879 87.1543C67.4668 87.3027 67.373 87.4766 67.3066 87.6758C67.2402 87.8711 67.1934 88.084 67.166 88.3145V89.4512C67.2129 89.7324 67.293 89.9902 67.4062 90.2246C67.5195 90.459 67.6797 90.6465 67.8867 90.7871C68.0977 90.9238 68.3672 90.9922 68.6953 90.9922C68.9492 90.9922 69.166 90.9375 69.3457 90.8281C69.5254 90.7188 69.6719 90.5684 69.7852 90.377C69.9023 90.1816 69.9883 89.957 70.043 89.7031C70.0977 89.4492 70.125 89.1797 70.125 88.8945ZM76.1445 85.6602V86.6914H72.5703V85.6602H76.1445ZM73.6016 84.1074H75.0137V90.248C75.0137 90.4434 75.041 90.5938 75.0957 90.6992C75.1543 90.8008 75.2344 90.8691 75.3359 90.9043C75.4375 90.9395 75.5566 90.957 75.6934 90.957C75.791 90.957 75.8848 90.9512 75.9746 90.9395C76.0645 90.9277 76.1367 90.916 76.1914 90.9043L76.1973 91.9824C76.0801 92.0176 75.9434 92.0488 75.7871 92.0762C75.6348 92.1035 75.459 92.1172 75.2598 92.1172C74.9355 92.1172 74.6484 92.0605 74.3984 91.9473C74.1484 91.8301 73.9531 91.6406 73.8125 91.3789C73.6719 91.1172 73.6016 90.7695 73.6016 90.3359V84.1074Z" fill="white"/>
<rect y="4" width="8" height="8" rx="2" fill="#8AFEF5"/>
<path d="M18.4414 9.43945V3.46875H19.9062V9.43945C19.9062 10.0059 19.7852 10.4883 19.543 10.8867C19.3008 11.2852 18.9707 11.5898 18.5527 11.8008C18.1348 12.0117 17.6602 12.1172 17.1289 12.1172C16.5859 12.1172 16.1035 12.0254 15.6816 11.8418C15.2637 11.6582 14.9355 11.377 14.6973 10.998C14.459 10.6191 14.3398 10.1387 14.3398 9.55664H15.8164C15.8164 9.89258 15.8691 10.1641 15.9746 10.3711C16.084 10.5742 16.2363 10.7227 16.4316 10.8164C16.6309 10.9062 16.8633 10.9512 17.1289 10.9512C17.3828 10.9512 17.6074 10.8945 17.8027 10.7812C18.002 10.6641 18.1582 10.4941 18.2715 10.2715C18.3848 10.0449 18.4414 9.76758 18.4414 9.43945ZM25.5332 10.7285V7.70508C25.5332 7.47852 25.4922 7.2832 25.4102 7.11914C25.3281 6.95508 25.2031 6.82812 25.0352 6.73828C24.8711 6.64844 24.6641 6.60352 24.4141 6.60352C24.1836 6.60352 23.9844 6.64258 23.8164 6.7207C23.6484 6.79883 23.5176 6.9043 23.4238 7.03711C23.3301 7.16992 23.2832 7.32031 23.2832 7.48828H21.877C21.877 7.23828 21.9375 6.99609 22.0586 6.76172C22.1797 6.52734 22.3555 6.31836 22.5859 6.13477C22.8164 5.95117 23.0918 5.80664 23.4121 5.70117C23.7324 5.5957 24.0918 5.54297 24.4902 5.54297C24.9668 5.54297 25.3887 5.62305 25.7559 5.7832C26.127 5.94336 26.418 6.18555 26.6289 6.50977C26.8438 6.83008 26.9512 7.23242 26.9512 7.7168V10.5352C26.9512 10.8242 26.9707 11.084 27.0098 11.3145C27.0527 11.541 27.1133 11.7383 27.1914 11.9062V12H25.7441C25.6777 11.8477 25.625 11.6543 25.5859 11.4199C25.5508 11.1816 25.5332 10.9512 25.5332 10.7285ZM25.7383 8.14453L25.75 9.01758H24.7363C24.4746 9.01758 24.2441 9.04297 24.0449 9.09375C23.8457 9.14062 23.6797 9.21094 23.5469 9.30469C23.4141 9.39844 23.3145 9.51172 23.248 9.64453C23.1816 9.77734 23.1484 9.92773 23.1484 10.0957C23.1484 10.2637 23.1875 10.418 23.2656 10.5586C23.3438 10.6953 23.457 10.8027 23.6055 10.8809C23.7578 10.959 23.9414 10.998 24.1562 10.998C24.4453 10.998 24.6973 10.9395 24.9121 10.8223C25.1309 10.7012 25.3027 10.5547 25.4277 10.3828C25.5527 10.207 25.6191 10.041 25.627 9.88477L26.084 10.5117C26.0371 10.6719 25.957 10.8438 25.8438 11.0273C25.7305 11.2109 25.582 11.3867 25.3984 11.5547C25.2188 11.7188 25.002 11.8535 24.748 11.959C24.498 12.0645 24.209 12.1172 23.8809 12.1172C23.4668 12.1172 23.0977 12.0352 22.7734 11.8711C22.4492 11.7031 22.1953 11.4785 22.0117 11.1973C21.8281 10.9121 21.7363 10.5898 21.7363 10.2305C21.7363 9.89453 21.7988 9.59766 21.9238 9.33984C22.0527 9.07812 22.2402 8.85938 22.4863 8.68359C22.7363 8.50781 23.041 8.375 23.4004 8.28516C23.7598 8.19141 24.1699 8.14453 24.6309 8.14453H25.7383ZM30.8965 10.8809L32.4492 5.66016H33.9141L31.7109 12H30.7969L30.8965 10.8809ZM29.707 5.66016L31.2891 10.9043L31.3652 12H30.4512L28.2363 5.66016H29.707ZM38.7676 10.7285V7.70508C38.7676 7.47852 38.7266 7.2832 38.6445 7.11914C38.5625 6.95508 38.4375 6.82812 38.2695 6.73828C38.1055 6.64844 37.8984 6.60352 37.6484 6.60352C37.418 6.60352 37.2188 6.64258 37.0508 6.7207C36.8828 6.79883 36.752 6.9043 36.6582 7.03711C36.5645 7.16992 36.5176 7.32031 36.5176 7.48828H35.1113C35.1113 7.23828 35.1719 6.99609 35.293 6.76172C35.4141 6.52734 35.5898 6.31836 35.8203 6.13477C36.0508 5.95117 36.3262 5.80664 36.6465 5.70117C36.9668 5.5957 37.3262 5.54297 37.7246 5.54297C38.2012 5.54297 38.623 5.62305 38.9902 5.7832C39.3613 5.94336 39.6523 6.18555 39.8633 6.50977C40.0781 6.83008 40.1855 7.23242 40.1855 7.7168V10.5352C40.1855 10.8242 40.2051 11.084 40.2441 11.3145C40.2871 11.541 40.3477 11.7383 40.4258 11.9062V12H38.9785C38.9121 11.8477 38.8594 11.6543 38.8203 11.4199C38.7852 11.1816 38.7676 10.9512 38.7676 10.7285ZM38.9727 8.14453L38.9844 9.01758H37.9707C37.709 9.01758 37.4785 9.04297 37.2793 9.09375C37.0801 9.14062 36.9141 9.21094 36.7812 9.30469C36.6484 9.39844 36.5488 9.51172 36.4824 9.64453C36.416 9.77734 36.3828 9.92773 36.3828 10.0957C36.3828 10.2637 36.4219 10.418 36.5 10.5586C36.5781 10.6953 36.6914 10.8027 36.8398 10.8809C36.9922 10.959 37.1758 10.998 37.3906 10.998C37.6797 10.998 37.9316 10.9395 38.1465 10.8223C38.3652 10.7012 38.5371 10.5547 38.6621 10.3828C38.7871 10.207 38.8535 10.041 38.8613 9.88477L39.3184 10.5117C39.2715 10.6719 39.1914 10.8438 39.0781 11.0273C38.9648 11.2109 38.8164 11.3867 38.6328 11.5547C38.4531 11.7188 38.2363 11.8535 37.9824 11.959C37.7324 12.0645 37.4434 12.1172 37.1152 12.1172C36.7012 12.1172 36.332 12.0352 36.0078 11.8711C35.6836 11.7031 35.4297 11.4785 35.2461 11.1973C35.0625 10.9121 34.9707 10.5898 34.9707 10.2305C34.9707 9.89453 35.0332 9.59766 35.1582 9.33984C35.2871 9.07812 35.4746 8.85938 35.7207 8.68359C35.9707 8.50781 36.2754 8.375 36.6348 8.28516C36.9941 8.19141 37.4043 8.14453 37.8652 8.14453H38.9727Z" fill="white"/>
</svg>
