<svg width="362" height="212" viewBox="0 0 362 212" fill="none" xmlns="http://www.w3.org/2000/svg">
<g filter="url(#filter0_d_121_1788)">
<rect x="2" y="2" width="350" height="200" rx="12" fill="#2B292F"/>
</g>
<rect x="24" y="174" width="8" height="8" rx="2" fill="#265877"/>
<path d="M42.8691 173.469V182H41.4102V173.469H42.8691ZM45.5469 173.469V174.641H38.7559V173.469H45.5469ZM48.4258 181.309L50.1484 175.66H51.6602L49.1172 182.967C49.0586 183.123 48.9824 183.293 48.8887 183.477C48.7949 183.66 48.6719 183.834 48.5195 183.998C48.3711 184.166 48.1855 184.301 47.9629 184.402C47.7402 184.508 47.4707 184.561 47.1543 184.561C47.0293 184.561 46.9082 184.549 46.791 184.525C46.6777 184.506 46.5703 184.484 46.4688 184.461L46.4629 183.383C46.502 183.387 46.5488 183.391 46.6035 183.395C46.6621 183.398 46.709 183.4 46.7441 183.4C46.9785 183.4 47.1738 183.371 47.3301 183.312C47.4863 183.258 47.6133 183.168 47.7109 183.043C47.8125 182.918 47.8984 182.75 47.9688 182.539L48.4258 181.309ZM47.4531 175.66L48.959 180.406L49.2109 181.895L48.2324 182.146L45.9297 175.66H47.4531ZM54.3867 176.879V184.438H52.9746V175.66H54.2754L54.3867 176.879ZM58.5176 178.771V178.895C58.5176 179.355 58.4629 179.783 58.3535 180.178C58.248 180.568 58.0898 180.91 57.8789 181.203C57.6719 181.492 57.416 181.717 57.1113 181.877C56.8066 182.037 56.4551 182.117 56.0566 182.117C55.6621 182.117 55.3164 182.045 55.0195 181.9C54.7266 181.752 54.4785 181.543 54.2754 181.273C54.0723 181.004 53.9082 180.688 53.7832 180.324C53.6621 179.957 53.5762 179.555 53.5254 179.117V178.643C53.5762 178.178 53.6621 177.756 53.7832 177.377C53.9082 176.998 54.0723 176.672 54.2754 176.398C54.4785 176.125 54.7266 175.914 55.0195 175.766C55.3125 175.617 55.6543 175.543 56.0449 175.543C56.4434 175.543 56.7969 175.621 57.1055 175.777C57.4141 175.93 57.6738 176.148 57.8848 176.434C58.0957 176.715 58.2539 177.055 58.3594 177.453C58.4648 177.848 58.5176 178.287 58.5176 178.771ZM57.1055 178.895V178.771C57.1055 178.479 57.0781 178.207 57.0234 177.957C56.9688 177.703 56.8828 177.48 56.7656 177.289C56.6484 177.098 56.498 176.949 56.3145 176.844C56.1348 176.734 55.918 176.68 55.6641 176.68C55.4141 176.68 55.1992 176.723 55.0195 176.809C54.8398 176.891 54.6895 177.006 54.5684 177.154C54.4473 177.303 54.3535 177.477 54.2871 177.676C54.2207 177.871 54.1738 178.084 54.1465 178.314V179.451C54.1934 179.732 54.2734 179.99 54.3867 180.225C54.5 180.459 54.6602 180.646 54.8672 180.787C55.0781 180.924 55.3477 180.992 55.6758 180.992C55.9297 180.992 56.1465 180.938 56.3262 180.828C56.5059 180.719 56.6523 180.568 56.7656 180.377C56.8828 180.182 56.9688 179.957 57.0234 179.703C57.0781 179.449 57.1055 179.18 57.1055 178.895ZM63.0137 182.117C62.5449 182.117 62.1211 182.041 61.7422 181.889C61.3672 181.732 61.0469 181.516 60.7812 181.238C60.5195 180.961 60.3184 180.635 60.1777 180.26C60.0371 179.885 59.9668 179.48 59.9668 179.047V178.812C59.9668 178.316 60.0391 177.867 60.1836 177.465C60.3281 177.062 60.5293 176.719 60.7871 176.434C61.0449 176.145 61.3496 175.924 61.7012 175.771C62.0527 175.619 62.4336 175.543 62.8438 175.543C63.2969 175.543 63.6934 175.619 64.0332 175.771C64.373 175.924 64.6543 176.139 64.877 176.416C65.1035 176.689 65.2715 177.016 65.3809 177.395C65.4941 177.773 65.5508 178.191 65.5508 178.648V179.252H60.6523V178.238H64.1562V178.127C64.1484 177.873 64.0977 177.635 64.0039 177.412C63.9141 177.189 63.7754 177.01 63.5879 176.873C63.4004 176.736 63.1504 176.668 62.8379 176.668C62.6035 176.668 62.3945 176.719 62.2109 176.82C62.0312 176.918 61.8809 177.061 61.7598 177.248C61.6387 177.436 61.5449 177.662 61.4785 177.928C61.416 178.189 61.3848 178.484 61.3848 178.812V179.047C61.3848 179.324 61.4219 179.582 61.4961 179.82C61.5742 180.055 61.6875 180.26 61.8359 180.436C61.9844 180.611 62.1641 180.75 62.375 180.852C62.5859 180.949 62.8262 180.998 63.0957 180.998C63.4355 180.998 63.7383 180.93 64.0039 180.793C64.2695 180.656 64.5 180.463 64.6953 180.213L65.4395 180.934C65.3027 181.133 65.125 181.324 64.9062 181.508C64.6875 181.688 64.4199 181.834 64.1035 181.947C63.791 182.061 63.4277 182.117 63.0137 182.117ZM71.7812 179.803C71.7812 179.627 71.7539 179.471 71.6992 179.334C71.6484 179.197 71.5566 179.072 71.4238 178.959C71.291 178.846 71.1035 178.736 70.8613 178.631C70.623 178.521 70.3184 178.41 69.9473 178.297C69.541 178.172 69.166 178.033 68.8223 177.881C68.4824 177.725 68.1855 177.545 67.9316 177.342C67.6777 177.135 67.4805 176.898 67.3398 176.633C67.1992 176.363 67.1289 176.053 67.1289 175.701C67.1289 175.354 67.2012 175.037 67.3457 174.752C67.4941 174.467 67.7031 174.221 67.9727 174.014C68.2461 173.803 68.5684 173.641 68.9395 173.527C69.3105 173.41 69.7207 173.352 70.1699 173.352C70.8027 173.352 71.3477 173.469 71.8047 173.703C72.2656 173.938 72.6191 174.252 72.8652 174.646C73.1152 175.041 73.2402 175.477 73.2402 175.953H71.7812C71.7812 175.672 71.7207 175.424 71.5996 175.209C71.4824 174.99 71.3027 174.818 71.0605 174.693C70.8223 174.568 70.5195 174.506 70.1523 174.506C69.8047 174.506 69.5156 174.559 69.2852 174.664C69.0547 174.77 68.8828 174.912 68.7695 175.092C68.6562 175.271 68.5996 175.475 68.5996 175.701C68.5996 175.861 68.6367 176.008 68.7109 176.141C68.7852 176.27 68.8984 176.391 69.0508 176.504C69.2031 176.613 69.3945 176.717 69.625 176.814C69.8555 176.912 70.127 177.006 70.4395 177.096C70.9121 177.236 71.3242 177.393 71.6758 177.564C72.0273 177.732 72.3203 177.924 72.5547 178.139C72.7891 178.354 72.9648 178.598 73.082 178.871C73.1992 179.141 73.2578 179.447 73.2578 179.791C73.2578 180.15 73.1855 180.475 73.041 180.764C72.8965 181.049 72.6895 181.293 72.4199 181.496C72.1543 181.695 71.834 181.85 71.459 181.959C71.0879 182.064 70.6738 182.117 70.2168 182.117C69.8066 182.117 69.4023 182.062 69.0039 181.953C68.6094 181.844 68.25 181.678 67.9258 181.455C67.6016 181.229 67.3438 180.947 67.1523 180.611C66.9609 180.271 66.8652 179.875 66.8652 179.422H68.3359C68.3359 179.699 68.3828 179.936 68.4766 180.131C68.5742 180.326 68.709 180.486 68.8809 180.611C69.0527 180.732 69.252 180.822 69.4785 180.881C69.709 180.939 69.9551 180.969 70.2168 180.969C70.5605 180.969 70.8477 180.92 71.0781 180.822C71.3125 180.725 71.4883 180.588 71.6055 180.412C71.7227 180.236 71.7812 180.033 71.7812 179.803ZM77.5078 180.992C77.7383 180.992 77.9453 180.947 78.1289 180.857C78.3164 180.764 78.4668 180.635 78.5801 180.471C78.6973 180.307 78.7617 180.117 78.7734 179.902H80.1035C80.0957 180.312 79.9746 180.686 79.7402 181.021C79.5059 181.357 79.1953 181.625 78.8086 181.824C78.4219 182.02 77.9941 182.117 77.5254 182.117C77.041 182.117 76.6191 182.035 76.2598 181.871C75.9004 181.703 75.6016 181.473 75.3633 181.18C75.125 180.887 74.9453 180.549 74.8242 180.166C74.707 179.783 74.6484 179.373 74.6484 178.936V178.73C74.6484 178.293 74.707 177.883 74.8242 177.5C74.9453 177.113 75.125 176.773 75.3633 176.48C75.6016 176.188 75.9004 175.959 76.2598 175.795C76.6191 175.627 77.0391 175.543 77.5195 175.543C78.0273 175.543 78.4727 175.645 78.8555 175.848C79.2383 176.047 79.5391 176.326 79.7578 176.686C79.9805 177.041 80.0957 177.455 80.1035 177.928H78.7734C78.7617 177.693 78.7031 177.482 78.5977 177.295C78.4961 177.104 78.3516 176.951 78.1641 176.838C77.9805 176.725 77.7598 176.668 77.502 176.668C77.2168 176.668 76.9805 176.727 76.793 176.844C76.6055 176.957 76.459 177.113 76.3535 177.312C76.248 177.508 76.1719 177.729 76.125 177.975C76.082 178.217 76.0605 178.469 76.0605 178.73V178.936C76.0605 179.197 76.082 179.451 76.125 179.697C76.168 179.943 76.2422 180.164 76.3477 180.359C76.457 180.551 76.6055 180.705 76.793 180.822C76.9805 180.936 77.2188 180.992 77.5078 180.992ZM83.1055 176.867V182H81.6934V175.66H83.041L83.1055 176.867ZM85.0449 175.619L85.0332 176.932C84.9473 176.916 84.8535 176.904 84.752 176.896C84.6543 176.889 84.5566 176.885 84.459 176.885C84.2168 176.885 84.0039 176.92 83.8203 176.99C83.6367 177.057 83.4824 177.154 83.3574 177.283C83.2363 177.408 83.1426 177.561 83.0762 177.74C83.0098 177.92 82.9707 178.121 82.959 178.344L82.6367 178.367C82.6367 177.969 82.6758 177.6 82.7539 177.26C82.832 176.92 82.9492 176.621 83.1055 176.363C83.2656 176.105 83.4648 175.904 83.7031 175.76C83.9453 175.615 84.2246 175.543 84.541 175.543C84.627 175.543 84.7188 175.551 84.8164 175.566C84.918 175.582 84.9941 175.6 85.0449 175.619ZM87.9414 175.66V182H86.5234V175.66H87.9414ZM86.4297 173.996C86.4297 173.781 86.5 173.604 86.6406 173.463C86.7852 173.318 86.9844 173.246 87.2383 173.246C87.4883 173.246 87.6855 173.318 87.8301 173.463C87.9746 173.604 88.0469 173.781 88.0469 173.996C88.0469 174.207 87.9746 174.383 87.8301 174.523C87.6855 174.664 87.4883 174.734 87.2383 174.734C86.9844 174.734 86.7852 174.664 86.6406 174.523C86.5 174.383 86.4297 174.207 86.4297 173.996ZM91.4062 176.879V184.438H89.9941V175.66H91.2949L91.4062 176.879ZM95.5371 178.771V178.895C95.5371 179.355 95.4824 179.783 95.373 180.178C95.2676 180.568 95.1094 180.91 94.8984 181.203C94.6914 181.492 94.4355 181.717 94.1309 181.877C93.8262 182.037 93.4746 182.117 93.0762 182.117C92.6816 182.117 92.3359 182.045 92.0391 181.9C91.7461 181.752 91.498 181.543 91.2949 181.273C91.0918 181.004 90.9277 180.688 90.8027 180.324C90.6816 179.957 90.5957 179.555 90.5449 179.117V178.643C90.5957 178.178 90.6816 177.756 90.8027 177.377C90.9277 176.998 91.0918 176.672 91.2949 176.398C91.498 176.125 91.7461 175.914 92.0391 175.766C92.332 175.617 92.6738 175.543 93.0645 175.543C93.4629 175.543 93.8164 175.621 94.125 175.777C94.4336 175.93 94.6934 176.148 94.9043 176.434C95.1152 176.715 95.2734 177.055 95.3789 177.453C95.4844 177.848 95.5371 178.287 95.5371 178.771ZM94.125 178.895V178.771C94.125 178.479 94.0977 178.207 94.043 177.957C93.9883 177.703 93.9023 177.48 93.7852 177.289C93.668 177.098 93.5176 176.949 93.334 176.844C93.1543 176.734 92.9375 176.68 92.6836 176.68C92.4336 176.68 92.2188 176.723 92.0391 176.809C91.8594 176.891 91.709 177.006 91.5879 177.154C91.4668 177.303 91.373 177.477 91.3066 177.676C91.2402 177.871 91.1934 178.084 91.166 178.314V179.451C91.2129 179.732 91.293 179.99 91.4062 180.225C91.5195 180.459 91.6797 180.646 91.8867 180.787C92.0977 180.924 92.3672 180.992 92.6953 180.992C92.9492 180.992 93.166 180.938 93.3457 180.828C93.5254 180.719 93.6719 180.568 93.7852 180.377C93.9023 180.182 93.9883 179.957 94.043 179.703C94.0977 179.449 94.125 179.18 94.125 178.895ZM100.145 175.66V176.691H96.5703V175.66H100.145ZM97.6016 174.107H99.0137V180.248C99.0137 180.443 99.041 180.594 99.0957 180.699C99.1543 180.801 99.2344 180.869 99.3359 180.904C99.4375 180.939 99.5566 180.957 99.6934 180.957C99.791 180.957 99.8848 180.951 99.9746 180.939C100.064 180.928 100.137 180.916 100.191 180.904L100.197 181.982C100.08 182.018 99.9434 182.049 99.7871 182.076C99.6348 182.104 99.459 182.117 99.2598 182.117C98.9355 182.117 98.6484 182.061 98.3984 181.947C98.1484 181.83 97.9531 181.641 97.8125 181.379C97.6719 181.117 97.6016 180.77 97.6016 180.336V174.107Z" fill="white"/>
<rect x="24" y="154" width="8" height="8" rx="2" fill="#0D82CA"/>
<path d="M42.1836 158.818H39.9629V157.652H42.1836C42.5703 157.652 42.8828 157.59 43.1211 157.465C43.3594 157.34 43.5332 157.168 43.6426 156.949C43.7559 156.727 43.8125 156.473 43.8125 156.188C43.8125 155.918 43.7559 155.666 43.6426 155.432C43.5332 155.193 43.3594 155.002 43.1211 154.857C42.8828 154.713 42.5703 154.641 42.1836 154.641H40.4141V162H38.9434V153.469H42.1836C42.8438 153.469 43.4043 153.586 43.8652 153.82C44.3301 154.051 44.6836 154.371 44.9258 154.781C45.168 155.188 45.2891 155.652 45.2891 156.176C45.2891 156.727 45.168 157.199 44.9258 157.594C44.6836 157.988 44.3301 158.291 43.8652 158.502C43.4043 158.713 42.8438 158.818 42.1836 158.818ZM52.7441 157.031V158.197H48.2148V157.031H52.7441ZM48.5781 153.469V162H47.1074V153.469H48.5781ZM53.875 153.469V162H52.4102V153.469H53.875ZM59.3672 158.818H57.1465V157.652H59.3672C59.7539 157.652 60.0664 157.59 60.3047 157.465C60.543 157.34 60.7168 157.168 60.8262 156.949C60.9395 156.727 60.9961 156.473 60.9961 156.188C60.9961 155.918 60.9395 155.666 60.8262 155.432C60.7168 155.193 60.543 155.002 60.3047 154.857C60.0664 154.713 59.7539 154.641 59.3672 154.641H57.5977V162H56.127V153.469H59.3672C60.0273 153.469 60.5879 153.586 61.0488 153.82C61.5137 154.051 61.8672 154.371 62.1094 154.781C62.3516 155.188 62.4727 155.652 62.4727 156.176C62.4727 156.727 62.3516 157.199 62.1094 157.594C61.8672 157.988 61.5137 158.291 61.0488 158.502C60.5879 158.713 60.0273 158.818 59.3672 158.818Z" fill="white"/>
<rect x="24" y="134" width="8" height="8" rx="2" fill="#51BCFF"/>
<path d="M40.5781 133.469V142H39.1074V133.469H40.5781ZM45.7051 133.469L42.248 137.576L40.2793 139.662L40.0215 138.203L41.4277 136.469L43.9121 133.469H45.7051ZM44.123 142L41.3164 137.957L42.3301 136.955L45.8691 142H44.123ZM46.6152 138.9V138.766C46.6152 138.309 46.6816 137.885 46.8145 137.494C46.9473 137.1 47.1387 136.758 47.3887 136.469C47.6426 136.176 47.9512 135.949 48.3145 135.789C48.6816 135.625 49.0957 135.543 49.5566 135.543C50.0215 135.543 50.4355 135.625 50.7988 135.789C51.166 135.949 51.4766 136.176 51.7305 136.469C51.9844 136.758 52.1777 137.1 52.3105 137.494C52.4434 137.885 52.5098 138.309 52.5098 138.766V138.9C52.5098 139.357 52.4434 139.781 52.3105 140.172C52.1777 140.562 51.9844 140.904 51.7305 141.197C51.4766 141.486 51.168 141.713 50.8047 141.877C50.4414 142.037 50.0293 142.117 49.5684 142.117C49.1035 142.117 48.6875 142.037 48.3203 141.877C47.957 141.713 47.6484 141.486 47.3945 141.197C47.1406 140.904 46.9473 140.562 46.8145 140.172C46.6816 139.781 46.6152 139.357 46.6152 138.9ZM48.0273 138.766V138.9C48.0273 139.186 48.0566 139.455 48.1152 139.709C48.1738 139.963 48.2656 140.186 48.3906 140.377C48.5156 140.568 48.6758 140.719 48.8711 140.828C49.0664 140.938 49.2988 140.992 49.5684 140.992C49.8301 140.992 50.0566 140.938 50.248 140.828C50.4434 140.719 50.6035 140.568 50.7285 140.377C50.8535 140.186 50.9453 139.963 51.0039 139.709C51.0664 139.455 51.0977 139.186 51.0977 138.9V138.766C51.0977 138.484 51.0664 138.219 51.0039 137.969C50.9453 137.715 50.8516 137.49 50.7227 137.295C50.5977 137.1 50.4375 136.947 50.2422 136.838C50.0508 136.725 49.8223 136.668 49.5566 136.668C49.291 136.668 49.0605 136.725 48.8652 136.838C48.6738 136.947 48.5156 137.1 48.3906 137.295C48.2656 137.49 48.1738 137.715 48.1152 137.969C48.0566 138.219 48.0273 138.484 48.0273 138.766ZM57.0996 135.66V136.691H53.5254V135.66H57.0996ZM54.5566 134.107H55.9688V140.248C55.9688 140.443 55.9961 140.594 56.0508 140.699C56.1094 140.801 56.1895 140.869 56.291 140.904C56.3926 140.939 56.5117 140.957 56.6484 140.957C56.7461 140.957 56.8398 140.951 56.9297 140.939C57.0195 140.928 57.0918 140.916 57.1465 140.904L57.1523 141.982C57.0352 142.018 56.8984 142.049 56.7422 142.076C56.5898 142.104 56.4141 142.117 56.2148 142.117C55.8906 142.117 55.6035 142.061 55.3535 141.947C55.1035 141.83 54.9082 141.641 54.7676 141.379C54.627 141.117 54.5566 140.77 54.5566 140.336V134.107ZM60.2012 133V142H58.7832V133H60.2012ZM63.7598 135.66V142H62.3418V135.66H63.7598ZM62.248 133.996C62.248 133.781 62.3184 133.604 62.459 133.463C62.6035 133.318 62.8027 133.246 63.0566 133.246C63.3066 133.246 63.5039 133.318 63.6484 133.463C63.793 133.604 63.8652 133.781 63.8652 133.996C63.8652 134.207 63.793 134.383 63.6484 134.523C63.5039 134.664 63.3066 134.734 63.0566 134.734C62.8027 134.734 62.6035 134.664 62.459 134.523C62.3184 134.383 62.248 134.207 62.248 133.996ZM67.207 137.014V142H65.7949V135.66H67.125L67.207 137.014ZM66.9551 138.596L66.498 138.59C66.502 138.141 66.5645 137.729 66.6855 137.354C66.8105 136.979 66.9824 136.656 67.2012 136.387C67.4238 136.117 67.6895 135.91 67.998 135.766C68.3066 135.617 68.6504 135.543 69.0293 135.543C69.334 135.543 69.6094 135.586 69.8555 135.672C70.1055 135.754 70.3184 135.889 70.4941 136.076C70.6738 136.264 70.8105 136.508 70.9043 136.809C70.998 137.105 71.0449 137.471 71.0449 137.904V142H69.627V137.898C69.627 137.594 69.582 137.354 69.4922 137.178C69.4062 136.998 69.2793 136.871 69.1113 136.797C68.9473 136.719 68.7422 136.68 68.4961 136.68C68.2539 136.68 68.0371 136.73 67.8457 136.832C67.6543 136.934 67.4922 137.072 67.3594 137.248C67.2305 137.424 67.1309 137.627 67.0605 137.857C66.9902 138.088 66.9551 138.334 66.9551 138.596Z" fill="white"/>
<rect x="24" y="114" width="8" height="8" rx="2" fill="#2CD9CA"/>
<path d="M44.3184 119.223H45.7832C45.7363 119.781 45.5801 120.279 45.3145 120.717C45.0488 121.15 44.6758 121.492 44.1953 121.742C43.7148 121.992 43.1309 122.117 42.4434 122.117C41.916 122.117 41.4414 122.023 41.0195 121.836C40.5977 121.645 40.2363 121.375 39.9355 121.027C39.6348 120.676 39.4043 120.252 39.2441 119.756C39.0879 119.26 39.0098 118.705 39.0098 118.092V117.383C39.0098 116.77 39.0898 116.215 39.25 115.719C39.4141 115.223 39.6484 114.799 39.9531 114.447C40.2578 114.092 40.623 113.82 41.0488 113.633C41.4785 113.445 41.9609 113.352 42.4961 113.352C43.1758 113.352 43.75 113.477 44.2188 113.727C44.6875 113.977 45.0508 114.322 45.3086 114.764C45.5703 115.205 45.7305 115.711 45.7891 116.281H44.3242C44.2852 115.914 44.1992 115.6 44.0664 115.338C43.9375 115.076 43.7461 114.877 43.4922 114.74C43.2383 114.6 42.9062 114.529 42.4961 114.529C42.1602 114.529 41.8672 114.592 41.6172 114.717C41.3672 114.842 41.1582 115.025 40.9902 115.268C40.8223 115.51 40.6953 115.809 40.6094 116.164C40.5273 116.516 40.4863 116.918 40.4863 117.371V118.092C40.4863 118.521 40.5234 118.912 40.5977 119.264C40.6758 119.611 40.793 119.91 40.9492 120.16C41.1094 120.41 41.3125 120.604 41.5586 120.74C41.8047 120.877 42.0996 120.945 42.4434 120.945C42.8613 120.945 43.1992 120.879 43.457 120.746C43.7188 120.613 43.916 120.42 44.0488 120.166C44.1855 119.908 44.2754 119.594 44.3184 119.223ZM52.9863 117.324V118.596H47.1387V117.324H52.9863ZM50.748 114.934V121.145H49.3828V114.934H50.748ZM60.1543 117.324V118.596H54.3066V117.324H60.1543ZM57.916 114.934V121.145H56.5508V114.934H57.916Z" fill="white"/>
<rect x="24" y="94" width="8" height="8" rx="2" fill="#8AFEF5"/>
<path d="M42.4414 99.4395V93.4688H43.9062V99.4395C43.9062 100.006 43.7852 100.488 43.543 100.887C43.3008 101.285 42.9707 101.59 42.5527 101.801C42.1348 102.012 41.6602 102.117 41.1289 102.117C40.5859 102.117 40.1035 102.025 39.6816 101.842C39.2637 101.658 38.9355 101.377 38.6973 100.998C38.459 100.619 38.3398 100.139 38.3398 99.5566H39.8164C39.8164 99.8926 39.8691 100.164 39.9746 100.371C40.084 100.574 40.2363 100.723 40.4316 100.816C40.6309 100.906 40.8633 100.951 41.1289 100.951C41.3828 100.951 41.6074 100.895 41.8027 100.781C42.002 100.664 42.1582 100.494 42.2715 100.271C42.3848 100.045 42.4414 99.7676 42.4414 99.4395ZM49.5332 100.729V97.7051C49.5332 97.4785 49.4922 97.2832 49.4102 97.1191C49.3281 96.9551 49.2031 96.8281 49.0352 96.7383C48.8711 96.6484 48.6641 96.6035 48.4141 96.6035C48.1836 96.6035 47.9844 96.6426 47.8164 96.7207C47.6484 96.7988 47.5176 96.9043 47.4238 97.0371C47.3301 97.1699 47.2832 97.3203 47.2832 97.4883H45.877C45.877 97.2383 45.9375 96.9961 46.0586 96.7617C46.1797 96.5273 46.3555 96.3184 46.5859 96.1348C46.8164 95.9512 47.0918 95.8066 47.4121 95.7012C47.7324 95.5957 48.0918 95.543 48.4902 95.543C48.9668 95.543 49.3887 95.623 49.7559 95.7832C50.127 95.9434 50.418 96.1855 50.6289 96.5098C50.8438 96.8301 50.9512 97.2324 50.9512 97.7168V100.535C50.9512 100.824 50.9707 101.084 51.0098 101.314C51.0527 101.541 51.1133 101.738 51.1914 101.906V102H49.7441C49.6777 101.848 49.625 101.654 49.5859 101.42C49.5508 101.182 49.5332 100.951 49.5332 100.729ZM49.7383 98.1445L49.75 99.0176H48.7363C48.4746 99.0176 48.2441 99.043 48.0449 99.0938C47.8457 99.1406 47.6797 99.2109 47.5469 99.3047C47.4141 99.3984 47.3145 99.5117 47.248 99.6445C47.1816 99.7773 47.1484 99.9277 47.1484 100.096C47.1484 100.264 47.1875 100.418 47.2656 100.559C47.3438 100.695 47.457 100.803 47.6055 100.881C47.7578 100.959 47.9414 100.998 48.1562 100.998C48.4453 100.998 48.6973 100.939 48.9121 100.822C49.1309 100.701 49.3027 100.555 49.4277 100.383C49.5527 100.207 49.6191 100.041 49.627 99.8848L50.084 100.512C50.0371 100.672 49.957 100.844 49.8438 101.027C49.7305 101.211 49.582 101.387 49.3984 101.555C49.2188 101.719 49.002 101.854 48.748 101.959C48.498 102.064 48.209 102.117 47.8809 102.117C47.4668 102.117 47.0977 102.035 46.7734 101.871C46.4492 101.703 46.1953 101.479 46.0117 101.197C45.8281 100.912 45.7363 100.59 45.7363 100.23C45.7363 99.8945 45.7988 99.5977 45.9238 99.3398C46.0527 99.0781 46.2402 98.8594 46.4863 98.6836C46.7363 98.5078 47.041 98.375 47.4004 98.2852C47.7598 98.1914 48.1699 98.1445 48.6309 98.1445H49.7383ZM54.8965 100.881L56.4492 95.6602H57.9141L55.7109 102H54.7969L54.8965 100.881ZM53.707 95.6602L55.2891 100.904L55.3652 102H54.4512L52.2363 95.6602H53.707ZM62.7676 100.729V97.7051C62.7676 97.4785 62.7266 97.2832 62.6445 97.1191C62.5625 96.9551 62.4375 96.8281 62.2695 96.7383C62.1055 96.6484 61.8984 96.6035 61.6484 96.6035C61.418 96.6035 61.2188 96.6426 61.0508 96.7207C60.8828 96.7988 60.752 96.9043 60.6582 97.0371C60.5645 97.1699 60.5176 97.3203 60.5176 97.4883H59.1113C59.1113 97.2383 59.1719 96.9961 59.293 96.7617C59.4141 96.5273 59.5898 96.3184 59.8203 96.1348C60.0508 95.9512 60.3262 95.8066 60.6465 95.7012C60.9668 95.5957 61.3262 95.543 61.7246 95.543C62.2012 95.543 62.623 95.623 62.9902 95.7832C63.3613 95.9434 63.6523 96.1855 63.8633 96.5098C64.0781 96.8301 64.1855 97.2324 64.1855 97.7168V100.535C64.1855 100.824 64.2051 101.084 64.2441 101.314C64.2871 101.541 64.3477 101.738 64.4258 101.906V102H62.9785C62.9121 101.848 62.8594 101.654 62.8203 101.42C62.7852 101.182 62.7676 100.951 62.7676 100.729ZM62.9727 98.1445L62.9844 99.0176H61.9707C61.709 99.0176 61.4785 99.043 61.2793 99.0938C61.0801 99.1406 60.9141 99.2109 60.7812 99.3047C60.6484 99.3984 60.5488 99.5117 60.4824 99.6445C60.416 99.7773 60.3828 99.9277 60.3828 100.096C60.3828 100.264 60.4219 100.418 60.5 100.559C60.5781 100.695 60.6914 100.803 60.8398 100.881C60.9922 100.959 61.1758 100.998 61.3906 100.998C61.6797 100.998 61.9316 100.939 62.1465 100.822C62.3652 100.701 62.5371 100.555 62.6621 100.383C62.7871 100.207 62.8535 100.041 62.8613 99.8848L63.3184 100.512C63.2715 100.672 63.1914 100.844 63.0781 101.027C62.9648 101.211 62.8164 101.387 62.6328 101.555C62.4531 101.719 62.2363 101.854 61.9824 101.959C61.7324 102.064 61.4434 102.117 61.1152 102.117C60.7012 102.117 60.332 102.035 60.0078 101.871C59.6836 101.703 59.4297 101.479 59.2461 101.197C59.0625 100.912 58.9707 100.59 58.9707 100.23C58.9707 99.8945 59.0332 99.5977 59.1582 99.3398C59.2871 99.0781 59.4746 98.8594 59.7207 98.6836C59.9707 98.5078 60.2754 98.375 60.6348 98.2852C60.9941 98.1914 61.4043 98.1445 61.8652 98.1445H62.9727Z" fill="white"/>
<path d="M342 99.5C342 112.519 338.919 125.354 333.008 136.954C327.097 148.555 318.525 158.591 307.992 166.244C297.459 173.896 285.265 178.948 272.406 180.984C259.547 183.021 246.388 181.985 234.006 177.962L246.753 138.731C252.944 140.743 259.523 141.26 265.953 140.242C272.382 139.224 278.48 136.698 283.746 132.872C289.013 129.046 293.299 124.027 296.254 118.227C299.209 112.427 300.75 106.01 300.75 99.5H342Z" fill="#8AFEF5"/>
<path d="M238.147 179.189C223.07 175.149 209.449 166.915 198.864 155.443C188.28 143.97 181.167 129.731 178.353 114.378L218.926 106.939C220.334 114.615 223.89 121.735 229.182 127.471C234.474 133.207 241.285 137.324 248.824 139.344L238.147 179.189Z" fill="#2CD9CA"/>
<path d="M178.516 115.242C175.537 99.9196 176.967 84.0668 182.638 69.5246C188.31 54.9824 197.99 42.3475 210.555 33.0872L235.028 66.2936C228.745 70.9237 223.905 77.2412 221.069 84.5123C218.233 91.7834 217.519 99.7098 219.008 107.371L178.516 115.242Z" fill="#51BCFF"/>
<path d="M209.85 33.6126C222.316 24.2189 237.191 18.5543 252.748 17.2768C268.304 15.9993 283.904 19.1612 297.736 26.3953L278.618 62.9477C271.702 59.3306 263.902 57.7496 256.124 58.3884C248.346 59.0272 240.908 61.8594 234.675 66.5563L209.85 33.6126Z" fill="#0D82CA"/>
<path d="M296.954 25.992C309.435 32.3512 320.091 41.7834 327.918 53.3997L293.709 76.4499C289.795 70.6417 284.467 65.9256 278.227 62.746L296.954 25.992Z" fill="#265877"/>
<path d="M327.622 52.9643C329.698 56.0031 331.569 59.1774 333.221 62.466L296.36 80.983C295.534 79.3387 294.599 77.7515 293.561 76.2321L327.622 52.9643Z" fill="#916BB9"/>
<path d="M333.08 62.1871C334.744 65.4694 336.187 68.8594 337.399 72.3343L298.45 85.9172C297.844 84.1797 297.122 82.4847 296.29 80.8436L333.08 62.1871Z" fill="#5F3888"/>
<path d="M337.239 71.8805C338.471 75.3483 339.47 78.8947 340.229 82.4958L299.864 90.9979C299.485 89.1973 298.986 87.4242 298.37 85.6902L337.239 71.8805Z" fill="#401C67"/>
<path d="M340.132 82.0442C340.927 85.7138 341.47 89.4333 341.757 93.1768L300.629 96.3384C300.485 94.4666 300.213 92.6069 299.816 90.7721L340.132 82.0442Z" fill="#DE58F9"/>
<path d="M341.741 92.9724C341.923 95.2606 342.009 97.5554 341.999 99.8507L300.75 99.6754C300.755 98.5277 300.711 97.3803 300.621 96.2362L341.741 92.9724Z" fill="#9527AB"/>
<g filter="url(#filter1_d_121_1788)">
<path d="M31.2168 29.7646L33.1992 22.0469H34.2383L34.1221 24.0361L32.0029 32H30.9229L31.2168 29.7646ZM29.7334 22.0469L31.3398 29.7031L31.4834 32H30.335L28.0312 22.0469H29.7334ZM36.4873 29.6826L38.0732 22.0469H39.7822L37.4785 32H36.3301L36.4873 29.6826ZM34.6416 22.0469L36.6035 29.7852L36.8906 32H35.8105L33.7256 24.0361L33.6162 22.0469H34.6416ZM42.7533 24.6035V32H41.099V24.6035H42.7533ZM40.9896 22.6621C40.9896 22.4115 41.0717 22.2041 41.2357 22.04C41.4044 21.8714 41.6368 21.7871 41.933 21.7871C42.2247 21.7871 42.4548 21.8714 42.6234 22.04C42.7921 22.2041 42.8764 22.4115 42.8764 22.6621C42.8764 22.9082 42.7921 23.1133 42.6234 23.2773C42.4548 23.4414 42.2247 23.5234 41.933 23.5234C41.6368 23.5234 41.4044 23.4414 41.2357 23.2773C41.0717 23.1133 40.9896 22.9082 40.9896 22.6621ZM47.9188 32.1367C47.3719 32.1367 46.8774 32.0479 46.4354 31.8701C45.9979 31.6878 45.6242 31.4349 45.3143 31.1113C45.0089 30.7878 44.7742 30.4072 44.6102 29.9697C44.4461 29.5322 44.3641 29.0605 44.3641 28.5547V28.2812C44.3641 27.7025 44.4484 27.1784 44.617 26.709C44.7856 26.2396 45.0203 25.8385 45.3211 25.5059C45.6219 25.1686 45.9773 24.9111 46.3875 24.7334C46.7977 24.5557 47.242 24.4668 47.7205 24.4668C48.2492 24.4668 48.7117 24.5557 49.1082 24.7334C49.5047 24.9111 49.8328 25.1618 50.0926 25.4854C50.3569 25.8044 50.5529 26.1849 50.6805 26.627C50.8126 27.069 50.8787 27.5566 50.8787 28.0898V28.7939H45.1639V27.6113H49.2518V27.4814C49.2426 27.1852 49.1834 26.9072 49.074 26.6475C48.9692 26.3877 48.8074 26.1781 48.5887 26.0186C48.3699 25.859 48.0783 25.7793 47.7137 25.7793C47.4402 25.7793 47.1964 25.8385 46.9822 25.957C46.7726 26.071 46.5971 26.2373 46.4559 26.4561C46.3146 26.6748 46.2052 26.9391 46.1277 27.249C46.0548 27.5544 46.0184 27.8984 46.0184 28.2812V28.5547C46.0184 28.8783 46.0617 29.179 46.1482 29.457C46.2394 29.7305 46.3716 29.9697 46.5447 30.1748C46.7179 30.3799 46.9275 30.5417 47.1736 30.6602C47.4197 30.7741 47.7 30.8311 48.0145 30.8311C48.4109 30.8311 48.7641 30.7513 49.074 30.5918C49.3839 30.4323 49.6528 30.2067 49.8807 29.915L50.7488 30.7559C50.5893 30.9883 50.382 31.2116 50.1268 31.4258C49.8716 31.6354 49.5594 31.8063 49.1902 31.9385C48.8257 32.0706 48.4018 32.1367 47.9188 32.1367ZM59.9996 29.9971C59.9996 29.833 59.9586 29.6849 59.8766 29.5527C59.7945 29.416 59.6373 29.293 59.4049 29.1836C59.177 29.0742 58.8398 28.974 58.3932 28.8828C58.0012 28.7962 57.6412 28.6937 57.3131 28.5752C56.9895 28.4521 56.7115 28.304 56.4791 28.1309C56.2467 27.9577 56.0667 27.7526 55.9391 27.5156C55.8115 27.2786 55.7477 27.0052 55.7477 26.6953C55.7477 26.3945 55.8137 26.1097 55.9459 25.8408C56.0781 25.5719 56.2672 25.335 56.5133 25.1299C56.7594 24.9248 57.0579 24.763 57.4088 24.6445C57.7643 24.526 58.1607 24.4668 58.5982 24.4668C59.218 24.4668 59.749 24.5716 60.191 24.7812C60.6376 24.9863 60.9794 25.2666 61.2164 25.6221C61.4534 25.973 61.5719 26.3695 61.5719 26.8115H59.9244C59.9244 26.6156 59.8743 26.4333 59.774 26.2646C59.6783 26.0915 59.5325 25.9525 59.3365 25.8477C59.1406 25.7383 58.8945 25.6836 58.5982 25.6836C58.3157 25.6836 58.081 25.7292 57.8941 25.8203C57.7119 25.9069 57.5751 26.0208 57.484 26.1621C57.3974 26.3034 57.3541 26.4583 57.3541 26.627C57.3541 26.75 57.3769 26.8617 57.4225 26.9619C57.4726 27.0576 57.5546 27.1465 57.6686 27.2285C57.7825 27.306 57.9374 27.3789 58.1334 27.4473C58.3339 27.5156 58.5846 27.5817 58.8854 27.6455C59.4505 27.764 59.9358 27.9167 60.3414 28.1035C60.7516 28.2858 61.066 28.5228 61.2848 28.8145C61.5035 29.1016 61.6129 29.4661 61.6129 29.9082C61.6129 30.2363 61.5423 30.5371 61.401 30.8105C61.2643 31.0794 61.0637 31.3141 60.7994 31.5146C60.5351 31.7106 60.2184 31.8633 59.8492 31.9727C59.4846 32.082 59.0745 32.1367 58.6188 32.1367C57.9488 32.1367 57.3814 32.0182 56.9166 31.7812C56.4518 31.5397 56.0986 31.2321 55.857 30.8584C55.6201 30.4801 55.5016 30.0882 55.5016 29.6826H57.0943C57.1126 29.988 57.1969 30.2318 57.3473 30.4141C57.5022 30.5918 57.6936 30.7217 57.9215 30.8037C58.1539 30.8812 58.3932 30.9199 58.6393 30.9199C58.9355 30.9199 59.1839 30.8812 59.3844 30.8037C59.5849 30.7217 59.7376 30.6123 59.8424 30.4756C59.9472 30.3343 59.9996 30.1748 59.9996 29.9971ZM66.5459 24.6035V25.8066H62.376V24.6035H66.5459ZM63.5791 22.792H65.2266V29.9561C65.2266 30.1839 65.2585 30.3594 65.3223 30.4824C65.3906 30.6009 65.484 30.6807 65.6025 30.7217C65.721 30.7627 65.86 30.7832 66.0195 30.7832C66.1335 30.7832 66.2428 30.7764 66.3477 30.7627C66.4525 30.749 66.5368 30.7354 66.6006 30.7217L66.6074 31.9795C66.4707 32.0205 66.3112 32.057 66.1289 32.0889C65.9512 32.1208 65.7461 32.1367 65.5137 32.1367C65.1354 32.1367 64.8005 32.0706 64.5088 31.9385C64.2171 31.8018 63.9893 31.5807 63.8252 31.2754C63.6611 30.9701 63.5791 30.5645 63.5791 30.0586V22.792ZM72.0873 30.5166V26.9893C72.0873 26.7249 72.0395 26.4971 71.9437 26.3057C71.848 26.1143 71.7022 25.9661 71.5062 25.8613C71.3148 25.7565 71.0733 25.7041 70.7816 25.7041C70.5128 25.7041 70.2803 25.7497 70.0844 25.8408C69.8884 25.932 69.7357 26.055 69.6264 26.21C69.517 26.3649 69.4623 26.5404 69.4623 26.7363H67.8217C67.8217 26.4447 67.8923 26.1621 68.0336 25.8887C68.1749 25.6152 68.3799 25.3714 68.6488 25.1572C68.9177 24.943 69.239 24.7744 69.6127 24.6514C69.9864 24.5283 70.4057 24.4668 70.8705 24.4668C71.4265 24.4668 71.9187 24.5602 72.3471 24.7471C72.78 24.9339 73.1195 25.2165 73.3656 25.5947C73.6163 25.9684 73.7416 26.4378 73.7416 27.0029V30.291C73.7416 30.6283 73.7644 30.9313 73.81 31.2002C73.8601 31.4645 73.9307 31.6947 74.0219 31.8906V32H72.3334C72.2559 31.8223 72.1944 31.5967 72.1488 31.3232C72.1078 31.0452 72.0873 30.7764 72.0873 30.5166ZM72.3266 27.502L72.3402 28.5205H71.1576C70.8523 28.5205 70.5834 28.5501 70.351 28.6094C70.1186 28.6641 69.9249 28.7461 69.7699 28.8555C69.615 28.9648 69.4988 29.097 69.4213 29.252C69.3438 29.4069 69.3051 29.5824 69.3051 29.7783C69.3051 29.9743 69.3506 30.1543 69.4418 30.3184C69.5329 30.4779 69.6651 30.6032 69.8383 30.6943C70.016 30.7855 70.2302 30.8311 70.4809 30.8311C70.8181 30.8311 71.112 30.7627 71.3627 30.626C71.6179 30.4847 71.8184 30.3138 71.9643 30.1133C72.1101 29.9082 72.1876 29.7145 72.1967 29.5322L72.7299 30.2637C72.6752 30.4505 72.5818 30.651 72.4496 30.8652C72.3174 31.0794 72.1443 31.2845 71.9301 31.4805C71.7204 31.6719 71.4675 31.8291 71.1713 31.9521C70.8796 32.0752 70.5424 32.1367 70.1596 32.1367C69.6765 32.1367 69.2458 32.041 68.8676 31.8496C68.4893 31.6536 68.1931 31.3916 67.9789 31.0635C67.7647 30.7308 67.6576 30.3548 67.6576 29.9355C67.6576 29.5436 67.7305 29.1973 67.8764 28.8965C68.0268 28.5911 68.2455 28.3359 68.5326 28.1309C68.8243 27.9258 69.1798 27.7708 69.599 27.666C70.0183 27.5566 70.4968 27.502 71.0346 27.502H72.3266ZM77.2186 26.0117V32H75.5711V24.6035H77.1434L77.2186 26.0117ZM79.4813 24.5557L79.4676 26.0869C79.3673 26.0687 79.2579 26.055 79.1395 26.0459C79.0255 26.0368 78.9116 26.0322 78.7977 26.0322C78.5151 26.0322 78.2667 26.0732 78.0525 26.1553C77.8383 26.2327 77.6583 26.3467 77.5125 26.4971C77.3712 26.6429 77.2618 26.8206 77.1844 27.0303C77.1069 27.2399 77.0613 27.4746 77.0477 27.7344L76.6717 27.7617C76.6717 27.2969 76.7173 26.8662 76.8084 26.4697C76.8995 26.0732 77.0363 25.7246 77.2186 25.4238C77.4054 25.123 77.6378 24.8883 77.9158 24.7197C78.1984 24.5511 78.5242 24.4668 78.8934 24.4668C78.9936 24.4668 79.1007 24.4759 79.2146 24.4941C79.3331 24.5124 79.422 24.5329 79.4813 24.5557ZM82.2746 21.5V32H80.6203V21.5H82.2746ZM86.8684 24.6035L83.6486 28.1719L81.885 29.9766L81.4543 28.582L82.7873 26.9346L84.8791 24.6035H86.8684ZM85.2346 32L82.8352 28.5273L83.8742 27.3721L87.1418 32H85.2346ZM93.3643 24.6035V32H91.71V24.6035H93.3643ZM91.6006 22.6621C91.6006 22.4115 91.6826 22.2041 91.8467 22.04C92.0153 21.8714 92.2477 21.7871 92.5439 21.7871C92.8356 21.7871 93.0658 21.8714 93.2344 22.04C93.403 22.2041 93.4873 22.4115 93.4873 22.6621C93.4873 22.9082 93.403 23.1133 93.2344 23.2773C93.0658 23.4414 92.8356 23.5234 92.5439 23.5234C92.2477 23.5234 92.0153 23.4414 91.8467 23.2773C91.6826 23.1133 91.6006 22.9082 91.6006 22.6621ZM99.4184 29.9971C99.4184 29.833 99.3773 29.6849 99.2953 29.5527C99.2133 29.416 99.0561 29.293 98.8236 29.1836C98.5958 29.0742 98.2585 28.974 97.8119 28.8828C97.42 28.7962 97.06 28.6937 96.7318 28.5752C96.4083 28.4521 96.1303 28.304 95.8979 28.1309C95.6654 27.9577 95.4854 27.7526 95.3578 27.5156C95.2302 27.2786 95.1664 27.0052 95.1664 26.6953C95.1664 26.3945 95.2325 26.1097 95.3646 25.8408C95.4968 25.5719 95.6859 25.335 95.932 25.1299C96.1781 24.9248 96.4766 24.763 96.8275 24.6445C97.183 24.526 97.5795 24.4668 98.017 24.4668C98.6368 24.4668 99.1677 24.5716 99.6098 24.7812C100.056 24.9863 100.398 25.2666 100.635 25.6221C100.872 25.973 100.991 26.3695 100.991 26.8115H99.3432C99.3432 26.6156 99.293 26.4333 99.1928 26.2646C99.0971 26.0915 98.9512 25.9525 98.7553 25.8477C98.5593 25.7383 98.3132 25.6836 98.017 25.6836C97.7344 25.6836 97.4997 25.7292 97.3129 25.8203C97.1306 25.9069 96.9939 26.0208 96.9027 26.1621C96.8161 26.3034 96.7729 26.4583 96.7729 26.627C96.7729 26.75 96.7956 26.8617 96.8412 26.9619C96.8913 27.0576 96.9734 27.1465 97.0873 27.2285C97.2012 27.306 97.3562 27.3789 97.5521 27.4473C97.7527 27.5156 98.0033 27.5817 98.3041 27.6455C98.8692 27.764 99.3546 27.9167 99.7602 28.1035C100.17 28.2858 100.485 28.5228 100.704 28.8145C100.922 29.1016 101.032 29.4661 101.032 29.9082C101.032 30.2363 100.961 30.5371 100.82 30.8105C100.683 31.0794 100.482 31.3141 100.218 31.5146C99.9538 31.7106 99.6371 31.8633 99.268 31.9727C98.9034 32.082 98.4932 32.1367 98.0375 32.1367C97.3676 32.1367 96.8002 32.0182 96.3354 31.7812C95.8705 31.5397 95.5173 31.2321 95.2758 30.8584C95.0388 30.4801 94.9203 30.0882 94.9203 29.6826H96.5131C96.5313 29.988 96.6156 30.2318 96.766 30.4141C96.921 30.5918 97.1124 30.7217 97.3402 30.8037C97.5727 30.8812 97.8119 30.9199 98.058 30.9199C98.3542 30.9199 98.6026 30.8812 98.8031 30.8037C99.0036 30.7217 99.1563 30.6123 99.2611 30.4756C99.3659 30.3343 99.4184 30.1748 99.4184 29.9971ZM105.965 24.6035V25.8066H101.795V24.6035H105.965ZM102.998 22.792H104.645V29.9561C104.645 30.1839 104.677 30.3594 104.741 30.4824C104.809 30.6009 104.903 30.6807 105.021 30.7217C105.14 30.7627 105.279 30.7832 105.438 30.7832C105.552 30.7832 105.662 30.7764 105.766 30.7627C105.871 30.749 105.956 30.7354 106.019 30.7217L106.026 31.9795C105.889 32.0205 105.73 32.057 105.548 32.0889C105.37 32.1208 105.165 32.1367 104.932 32.1367C104.554 32.1367 104.219 32.0706 103.928 31.9385C103.636 31.8018 103.408 31.5807 103.244 31.2754C103.08 30.9701 102.998 30.5645 102.998 30.0586V22.792ZM115.373 30.2568V24.6035H117.027V32H115.468L115.373 30.2568ZM115.605 28.7188L116.159 28.7051C116.159 29.2018 116.104 29.6598 115.995 30.0791C115.885 30.4938 115.717 30.8561 115.489 31.166C115.261 31.4714 114.969 31.7106 114.614 31.8838C114.258 32.0524 113.832 32.1367 113.336 32.1367C112.976 32.1367 112.645 32.0843 112.344 31.9795C112.044 31.8747 111.784 31.7129 111.565 31.4941C111.351 31.2754 111.185 30.9906 111.066 30.6396C110.948 30.2887 110.888 29.8695 110.888 29.3818V24.6035H112.536V29.3955C112.536 29.6644 112.568 29.89 112.631 30.0723C112.695 30.25 112.782 30.3936 112.891 30.5029C113.001 30.6123 113.128 30.6898 113.274 30.7354C113.42 30.7809 113.575 30.8037 113.739 30.8037C114.208 30.8037 114.577 30.7126 114.846 30.5303C115.12 30.3434 115.313 30.0928 115.427 29.7783C115.546 29.4639 115.605 29.1107 115.605 28.7188ZM120.449 26.1826V32H118.802V24.6035H120.354L120.449 26.1826ZM120.155 28.0283L119.622 28.0215C119.627 27.4974 119.7 27.0166 119.841 26.5791C119.987 26.1416 120.187 25.7656 120.442 25.4512C120.702 25.1367 121.012 24.8952 121.372 24.7266C121.732 24.5534 122.133 24.4668 122.575 24.4668C122.931 24.4668 123.252 24.5169 123.539 24.6172C123.831 24.7129 124.079 24.8701 124.284 25.0889C124.494 25.3076 124.653 25.5924 124.763 25.9434C124.872 26.2897 124.927 26.7158 124.927 27.2217V32H123.272V27.2148C123.272 26.8594 123.22 26.5791 123.115 26.374C123.015 26.1644 122.867 26.0163 122.671 25.9297C122.479 25.8385 122.24 25.793 121.953 25.793C121.671 25.793 121.418 25.8522 121.194 25.9707C120.971 26.0892 120.782 26.251 120.627 26.4561C120.477 26.6611 120.36 26.8981 120.278 27.167C120.196 27.4359 120.155 27.723 120.155 28.0283ZM130.858 29.9971C130.858 29.833 130.817 29.6849 130.735 29.5527C130.653 29.416 130.496 29.293 130.263 29.1836C130.035 29.0742 129.698 28.974 129.251 28.8828C128.859 28.7962 128.499 28.6937 128.171 28.5752C127.848 28.4521 127.57 28.304 127.337 28.1309C127.105 27.9577 126.925 27.7526 126.797 27.5156C126.67 27.2786 126.606 27.0052 126.606 26.6953C126.606 26.3945 126.672 26.1097 126.804 25.8408C126.936 25.5719 127.125 25.335 127.371 25.1299C127.618 24.9248 127.916 24.763 128.267 24.6445C128.622 24.526 129.019 24.4668 129.456 24.4668C130.076 24.4668 130.607 24.5716 131.049 24.7812C131.496 24.9863 131.838 25.2666 132.075 25.6221C132.312 25.973 132.43 26.3695 132.43 26.8115H130.783C130.783 26.6156 130.732 26.4333 130.632 26.2646C130.537 26.0915 130.391 25.9525 130.195 25.8477C129.999 25.7383 129.753 25.6836 129.456 25.6836C129.174 25.6836 128.939 25.7292 128.752 25.8203C128.57 25.9069 128.433 26.0208 128.342 26.1621C128.256 26.3034 128.212 26.4583 128.212 26.627C128.212 26.75 128.235 26.8617 128.281 26.9619C128.331 27.0576 128.413 27.1465 128.527 27.2285C128.641 27.306 128.796 27.3789 128.992 27.4473C129.192 27.5156 129.443 27.5817 129.744 27.6455C130.309 27.764 130.794 27.9167 131.2 28.1035C131.61 28.2858 131.924 28.5228 132.143 28.8145C132.362 29.1016 132.471 29.4661 132.471 29.9082C132.471 30.2363 132.4 30.5371 132.259 30.8105C132.122 31.0794 131.922 31.3141 131.658 31.5146C131.393 31.7106 131.077 31.8633 130.707 31.9727C130.343 32.082 129.933 32.1367 129.477 32.1367C128.807 32.1367 128.24 32.0182 127.775 31.7812C127.31 31.5397 126.957 31.2321 126.715 30.8584C126.478 30.4801 126.36 30.0882 126.36 29.6826H127.953C127.971 29.988 128.055 30.2318 128.205 30.4141C128.36 30.5918 128.552 30.7217 128.78 30.8037C129.012 30.8812 129.251 30.9199 129.497 30.9199C129.794 30.9199 130.042 30.8812 130.243 30.8037C130.443 30.7217 130.596 30.6123 130.701 30.4756C130.805 30.3343 130.858 30.1748 130.858 29.9971ZM137.274 32.1367C136.727 32.1367 136.233 32.0479 135.791 31.8701C135.353 31.6878 134.98 31.4349 134.67 31.1113C134.364 30.7878 134.13 30.4072 133.966 29.9697C133.802 29.5322 133.72 29.0605 133.72 28.5547V28.2812C133.72 27.7025 133.804 27.1784 133.972 26.709C134.141 26.2396 134.376 25.8385 134.677 25.5059C134.977 25.1686 135.333 24.9111 135.743 24.7334C136.153 24.5557 136.597 24.4668 137.076 24.4668C137.605 24.4668 138.067 24.5557 138.464 24.7334C138.86 24.9111 139.188 25.1618 139.448 25.4854C139.712 25.8044 139.908 26.1849 140.036 26.627C140.168 27.069 140.234 27.5566 140.234 28.0898V28.7939H134.519V27.6113H138.607V27.4814C138.598 27.1852 138.539 26.9072 138.429 26.6475C138.325 26.3877 138.163 26.1781 137.944 26.0186C137.725 25.859 137.434 25.7793 137.069 25.7793C136.796 25.7793 136.552 25.8385 136.338 25.957C136.128 26.071 135.953 26.2373 135.811 26.4561C135.67 26.6748 135.561 26.9391 135.483 27.249C135.41 27.5544 135.374 27.8984 135.374 28.2812V28.5547C135.374 28.8783 135.417 29.179 135.504 29.457C135.595 29.7305 135.727 29.9697 135.9 30.1748C136.073 30.3799 136.283 30.5417 136.529 30.6602C136.775 30.7741 137.055 30.8311 137.37 30.8311C137.766 30.8311 138.12 30.7513 138.429 30.5918C138.739 30.4323 139.008 30.2067 139.236 29.915L140.104 30.7559C139.945 30.9883 139.737 31.2116 139.482 31.4258C139.227 31.6354 138.915 31.8063 138.546 31.9385C138.181 32.0706 137.757 32.1367 137.274 32.1367ZM143.274 26.0117V32H141.626V24.6035H143.198L143.274 26.0117ZM145.536 24.5557L145.523 26.0869C145.422 26.0687 145.313 26.055 145.195 26.0459C145.081 26.0368 144.967 26.0322 144.853 26.0322C144.57 26.0322 144.322 26.0732 144.108 26.1553C143.893 26.2327 143.713 26.3467 143.568 26.4971C143.426 26.6429 143.317 26.8206 143.239 27.0303C143.162 27.2399 143.116 27.4746 143.103 27.7344L142.727 27.7617C142.727 27.2969 142.772 26.8662 142.863 26.4697C142.955 26.0732 143.091 25.7246 143.274 25.4238C143.46 25.123 143.693 24.8883 143.971 24.7197C144.253 24.5511 144.579 24.4668 144.948 24.4668C145.049 24.4668 145.156 24.4759 145.27 24.4941C145.388 24.5124 145.477 24.5329 145.536 24.5557ZM149.793 32.1367C149.246 32.1367 148.751 32.0479 148.309 31.8701C147.872 31.6878 147.498 31.4349 147.188 31.1113C146.883 30.7878 146.648 30.4072 146.484 29.9697C146.32 29.5322 146.238 29.0605 146.238 28.5547V28.2812C146.238 27.7025 146.322 27.1784 146.491 26.709C146.659 26.2396 146.894 25.8385 147.195 25.5059C147.496 25.1686 147.851 24.9111 148.261 24.7334C148.671 24.5557 149.116 24.4668 149.594 24.4668C150.123 24.4668 150.586 24.5557 150.982 24.7334C151.379 24.9111 151.707 25.1618 151.966 25.4854C152.231 25.8044 152.427 26.1849 152.554 26.627C152.686 27.069 152.753 27.5566 152.753 28.0898V28.7939H147.038V27.6113H151.126V27.4814C151.116 27.1852 151.057 26.9072 150.948 26.6475C150.843 26.3877 150.681 26.1781 150.462 26.0186C150.244 25.859 149.952 25.7793 149.587 25.7793C149.314 25.7793 149.07 25.8385 148.856 25.957C148.646 26.071 148.471 26.2373 148.33 26.4561C148.188 26.6748 148.079 26.9391 148.002 27.249C147.929 27.5544 147.892 27.8984 147.892 28.2812V28.5547C147.892 28.8783 147.935 29.179 148.022 29.457C148.113 29.7305 148.245 29.9697 148.419 30.1748C148.592 30.3799 148.801 30.5417 149.047 30.6602C149.294 30.7741 149.574 30.8311 149.888 30.8311C150.285 30.8311 150.638 30.7513 150.948 30.5918C151.258 30.4323 151.527 30.2067 151.754 29.915L152.623 30.7559C152.463 30.9883 152.256 31.2116 152.001 31.4258C151.745 31.6354 151.433 31.8063 151.064 31.9385C150.699 32.0706 150.276 32.1367 149.793 32.1367ZM60.4961 50.1816L63.1143 42.0469H65.0078L61.4395 52H60.1611L60.4961 50.1816ZM58.0762 42.0469L60.6738 50.1816L61.0293 52H59.7441L56.1895 42.0469H58.0762ZM69.018 52.1367C68.4711 52.1367 67.9766 52.0479 67.5346 51.8701C67.0971 51.6878 66.7234 51.4349 66.4135 51.1113C66.1081 50.7878 65.8734 50.4072 65.7094 49.9697C65.5453 49.5322 65.4633 49.0605 65.4633 48.5547V48.2812C65.4633 47.7025 65.5476 47.1784 65.7162 46.709C65.8848 46.2396 66.1195 45.8385 66.4203 45.5059C66.7211 45.1686 67.0766 44.9111 67.4867 44.7334C67.8969 44.5557 68.3412 44.4668 68.8197 44.4668C69.3484 44.4668 69.8109 44.5557 70.2074 44.7334C70.6039 44.9111 70.932 45.1618 71.1918 45.4854C71.4561 45.8044 71.6521 46.1849 71.7797 46.627C71.9118 47.069 71.9779 47.5566 71.9779 48.0898V48.7939H66.2631V47.6113H70.351V47.4814C70.3419 47.1852 70.2826 46.9072 70.1732 46.6475C70.0684 46.3877 69.9066 46.1781 69.6879 46.0186C69.4691 45.859 69.1775 45.7793 68.8129 45.7793C68.5395 45.7793 68.2956 45.8385 68.0814 45.957C67.8718 46.071 67.6964 46.2373 67.5551 46.4561C67.4138 46.6748 67.3044 46.9391 67.227 47.249C67.154 47.5544 67.1176 47.8984 67.1176 48.2812V48.5547C67.1176 48.8783 67.1609 49.179 67.2475 49.457C67.3386 49.7305 67.4708 49.9697 67.6439 50.1748C67.8171 50.3799 68.0268 50.5417 68.2729 50.6602C68.5189 50.7741 68.7992 50.8311 69.1137 50.8311C69.5102 50.8311 69.8633 50.7513 70.1732 50.5918C70.4831 50.4323 70.752 50.2067 70.9799 49.915L71.848 50.7559C71.6885 50.9883 71.4812 51.2116 71.226 51.4258C70.9708 51.6354 70.6586 51.8063 70.2895 51.9385C69.9249 52.0706 69.501 52.1367 69.018 52.1367ZM75.0174 46.0117V52H73.3699V44.6035H74.9422L75.0174 46.0117ZM77.2801 44.5557L77.2664 46.0869C77.1661 46.0687 77.0568 46.055 76.9383 46.0459C76.8243 46.0368 76.7104 46.0322 76.5965 46.0322C76.3139 46.0322 76.0656 46.0732 75.8514 46.1553C75.6372 46.2327 75.4572 46.3467 75.3113 46.4971C75.1701 46.6429 75.0607 46.8206 74.9832 47.0303C74.9057 47.2399 74.8602 47.4746 74.8465 47.7344L74.4705 47.7617C74.4705 47.2969 74.5161 46.8662 74.6072 46.4697C74.6984 46.0732 74.8351 45.7246 75.0174 45.4238C75.2042 45.123 75.4367 44.8883 75.7146 44.7197C75.9972 44.5511 76.323 44.4668 76.6922 44.4668C76.7924 44.4668 76.8995 44.4759 77.0135 44.4941C77.132 44.5124 77.2208 44.5329 77.2801 44.5557ZM82.1447 44.6035V45.8066H77.9748V44.6035H82.1447ZM79.1779 42.792H80.8254V49.9561C80.8254 50.1839 80.8573 50.3594 80.9211 50.4824C80.9895 50.6009 81.0829 50.6807 81.2014 50.7217C81.3199 50.7627 81.4589 50.7832 81.6184 50.7832C81.7323 50.7832 81.8417 50.7764 81.9465 50.7627C82.0513 50.749 82.1356 50.7354 82.1994 50.7217L82.2062 51.9795C82.0695 52.0205 81.91 52.057 81.7277 52.0889C81.55 52.1208 81.3449 52.1367 81.1125 52.1367C80.7342 52.1367 80.3993 52.0706 80.1076 51.9385C79.8159 51.8018 79.5881 51.5807 79.424 51.2754C79.26 50.9701 79.1779 50.5645 79.1779 50.0586V42.792ZM86.777 52.1367C86.2301 52.1367 85.7356 52.0479 85.2936 51.8701C84.8561 51.6878 84.4824 51.4349 84.1725 51.1113C83.8671 50.7878 83.6324 50.4072 83.4684 49.9697C83.3043 49.5322 83.2223 49.0605 83.2223 48.5547V48.2812C83.2223 47.7025 83.3066 47.1784 83.4752 46.709C83.6438 46.2396 83.8785 45.8385 84.1793 45.5059C84.4801 45.1686 84.8355 44.9111 85.2457 44.7334C85.6559 44.5557 86.1002 44.4668 86.5787 44.4668C87.1074 44.4668 87.5699 44.5557 87.9664 44.7334C88.3629 44.9111 88.691 45.1618 88.9508 45.4854C89.2151 45.8044 89.4111 46.1849 89.5387 46.627C89.6708 47.069 89.7369 47.5566 89.7369 48.0898V48.7939H84.0221V47.6113H88.11V47.4814C88.1008 47.1852 88.0416 46.9072 87.9322 46.6475C87.8274 46.3877 87.6656 46.1781 87.4469 46.0186C87.2281 45.859 86.9365 45.7793 86.5719 45.7793C86.2984 45.7793 86.0546 45.8385 85.8404 45.957C85.6308 46.071 85.4553 46.2373 85.3141 46.4561C85.1728 46.6748 85.0634 46.9391 84.9859 47.249C84.913 47.5544 84.8766 47.8984 84.8766 48.2812V48.5547C84.8766 48.8783 84.9199 49.179 85.0064 49.457C85.0976 49.7305 85.2298 49.9697 85.4029 50.1748C85.5761 50.3799 85.7857 50.5417 86.0318 50.6602C86.2779 50.7741 86.5582 50.8311 86.8727 50.8311C87.2691 50.8311 87.6223 50.7513 87.9322 50.5918C88.2421 50.4323 88.511 50.2067 88.7389 49.915L89.607 50.7559C89.4475 50.9883 89.2402 51.2116 88.985 51.4258C88.7298 51.6354 88.4176 51.8063 88.0484 51.9385C87.6839 52.0706 87.26 52.1367 86.777 52.1367ZM92.8857 44.6035V52H91.2314V44.6035H92.8857ZM91.1221 42.6621C91.1221 42.4115 91.2041 42.2041 91.3682 42.04C91.5368 41.8714 91.7692 41.7871 92.0654 41.7871C92.3571 41.7871 92.5872 41.8714 92.7559 42.04C92.9245 42.2041 93.0088 42.4115 93.0088 42.6621C93.0088 42.9082 92.9245 43.1133 92.7559 43.2773C92.5872 43.4414 92.3571 43.5234 92.0654 43.5234C91.7692 43.5234 91.5368 43.4414 91.3682 43.2773C91.2041 43.1133 91.1221 42.9082 91.1221 42.6621ZM96.5541 41.5V52H94.8998V41.5H96.5541ZM102.909 50.2568V44.6035H104.563V52H103.005L102.909 50.2568ZM103.141 48.7188L103.695 48.7051C103.695 49.2018 103.64 49.6598 103.531 50.0791C103.422 50.4938 103.253 50.8561 103.025 51.166C102.797 51.4714 102.506 51.7106 102.15 51.8838C101.795 52.0524 101.369 52.1367 100.872 52.1367C100.512 52.1367 100.181 52.0843 99.8807 51.9795C99.5799 51.8747 99.3201 51.7129 99.1014 51.4941C98.8872 51.2754 98.7208 50.9906 98.6023 50.6396C98.4839 50.2887 98.4246 49.8695 98.4246 49.3818V44.6035H100.072V49.3955C100.072 49.6644 100.104 49.89 100.168 50.0723C100.232 50.25 100.318 50.3936 100.428 50.5029C100.537 50.6123 100.665 50.6898 100.81 50.7354C100.956 50.7809 101.111 50.8037 101.275 50.8037C101.745 50.8037 102.114 50.7126 102.383 50.5303C102.656 50.3434 102.85 50.0928 102.964 49.7783C103.082 49.4639 103.141 49.1107 103.141 48.7188ZM107.986 46.1826V52H106.338V44.6035H107.89L107.986 46.1826ZM107.692 48.0283L107.158 48.0215C107.163 47.4974 107.236 47.0166 107.377 46.5791C107.523 46.1416 107.724 45.7656 107.979 45.4512C108.238 45.1367 108.548 44.8952 108.908 44.7266C109.268 44.5534 109.669 44.4668 110.112 44.4668C110.467 44.4668 110.788 44.5169 111.075 44.6172C111.367 44.7129 111.615 44.8701 111.821 45.0889C112.03 45.3076 112.19 45.5924 112.299 45.9434C112.408 46.2897 112.463 46.7158 112.463 47.2217V52H110.809V47.2148C110.809 46.8594 110.756 46.5791 110.652 46.374C110.551 46.1644 110.403 46.0163 110.207 45.9297C110.016 45.8385 109.777 45.793 109.489 45.793C109.207 45.793 108.954 45.8522 108.731 45.9707C108.507 46.0892 108.318 46.251 108.163 46.4561C108.013 46.6611 107.897 46.8981 107.815 47.167C107.733 47.4359 107.692 47.723 107.692 48.0283ZM118.982 44.6035H120.479V51.7949C120.479 52.4603 120.338 53.0254 120.055 53.4902C119.773 53.9551 119.379 54.3083 118.873 54.5498C118.367 54.7959 117.781 54.9189 117.116 54.9189C116.833 54.9189 116.519 54.8779 116.172 54.7959C115.831 54.7139 115.498 54.5817 115.174 54.3994C114.855 54.2217 114.589 53.987 114.375 53.6953L115.147 52.7246C115.411 53.0391 115.703 53.2692 116.022 53.415C116.341 53.5609 116.676 53.6338 117.027 53.6338C117.405 53.6338 117.726 53.5632 117.991 53.4219C118.26 53.2852 118.467 53.0824 118.613 52.8135C118.759 52.5446 118.832 52.2165 118.832 51.8291V46.2783L118.982 44.6035ZM113.958 48.3838V48.2402C113.958 47.6797 114.026 47.1693 114.163 46.709C114.299 46.2441 114.495 45.8454 114.751 45.5127C115.006 45.1755 115.316 44.918 115.68 44.7402C116.045 44.5579 116.457 44.4668 116.918 44.4668C117.396 44.4668 117.804 44.5534 118.141 44.7266C118.483 44.8997 118.768 45.1481 118.996 45.4717C119.224 45.7907 119.401 46.1735 119.529 46.6201C119.661 47.0622 119.759 47.5544 119.823 48.0967V48.5547C119.764 49.0833 119.663 49.5664 119.522 50.0039C119.381 50.4414 119.194 50.8197 118.962 51.1387C118.729 51.4577 118.442 51.7038 118.1 51.877C117.763 52.0501 117.364 52.1367 116.904 52.1367C116.453 52.1367 116.045 52.0433 115.68 51.8564C115.32 51.6696 115.01 51.4076 114.751 51.0703C114.495 50.7331 114.299 50.3366 114.163 49.8809C114.026 49.4206 113.958 48.9215 113.958 48.3838ZM115.605 48.2402V48.3838C115.605 48.721 115.637 49.0355 115.701 49.3271C115.769 49.6188 115.872 49.8763 116.008 50.0996C116.15 50.3184 116.327 50.4915 116.542 50.6191C116.76 50.7422 117.018 50.8037 117.314 50.8037C117.701 50.8037 118.018 50.7217 118.264 50.5576C118.515 50.3936 118.706 50.1725 118.838 49.8945C118.975 49.612 119.071 49.2975 119.126 48.9512V47.7139C119.098 47.445 119.041 47.1943 118.955 46.9619C118.873 46.7295 118.761 46.5267 118.62 46.3535C118.478 46.1758 118.301 46.0391 118.087 45.9434C117.872 45.8431 117.619 45.793 117.328 45.793C117.032 45.793 116.774 45.8568 116.555 45.9844C116.337 46.112 116.157 46.2874 116.015 46.5107C115.879 46.734 115.776 46.9938 115.708 47.29C115.639 47.5863 115.605 47.903 115.605 48.2402ZM32.4242 70.4688V61.5H34.0785V72H32.5814L32.4242 70.4688ZM27.6117 68.3838V68.2402C27.6117 67.6797 27.6778 67.1693 27.81 66.709C27.9421 66.2441 28.1335 65.8454 28.3842 65.5127C28.6348 65.1755 28.9402 64.918 29.3002 64.7402C29.6602 64.5579 30.0658 64.4668 30.517 64.4668C30.9636 64.4668 31.3555 64.5534 31.6928 64.7266C32.03 64.8997 32.3171 65.1481 32.5541 65.4717C32.7911 65.7907 32.9802 66.1735 33.1215 66.6201C33.2628 67.0622 33.363 67.5544 33.4223 68.0967V68.5547C33.363 69.0833 33.2628 69.5664 33.1215 70.0039C32.9802 70.4414 32.7911 70.8197 32.5541 71.1387C32.3171 71.4577 32.0277 71.7038 31.6859 71.877C31.3487 72.0501 30.9545 72.1367 30.5033 72.1367C30.0567 72.1367 29.6534 72.0433 29.2934 71.8564C28.9379 71.6696 28.6348 71.4076 28.3842 71.0703C28.1335 70.7331 27.9421 70.3366 27.81 69.8809C27.6778 69.4206 27.6117 68.9215 27.6117 68.3838ZM29.2592 68.2402V68.3838C29.2592 68.721 29.2888 69.0355 29.348 69.3271C29.4118 69.6188 29.5098 69.8763 29.642 70.0996C29.7742 70.3184 29.9451 70.4915 30.1547 70.6191C30.3689 70.7422 30.6241 70.8037 30.9203 70.8037C31.294 70.8037 31.6016 70.7217 31.8432 70.5576C32.0847 70.3936 32.2738 70.1725 32.4105 69.8945C32.5518 69.612 32.6475 69.2975 32.6977 68.9512V67.7139C32.6703 67.445 32.6133 67.1943 32.5268 66.9619C32.4447 66.7295 32.3331 66.5267 32.1918 66.3535C32.0505 66.1758 31.8751 66.0391 31.6654 65.9434C31.4604 65.8431 31.2165 65.793 30.934 65.793C30.6332 65.793 30.378 65.8568 30.1684 65.9844C29.9587 66.112 29.7855 66.2874 29.6488 66.5107C29.5167 66.734 29.4187 66.9938 29.3549 67.29C29.2911 67.5863 29.2592 67.903 29.2592 68.2402ZM39.1619 72.1367C38.615 72.1367 38.1206 72.0479 37.6785 71.8701C37.241 71.6878 36.8673 71.4349 36.5574 71.1113C36.2521 70.7878 36.0174 70.4072 35.8533 69.9697C35.6893 69.5322 35.6072 69.0605 35.6072 68.5547V68.2812C35.6072 67.7025 35.6915 67.1784 35.8602 66.709C36.0288 66.2396 36.2635 65.8385 36.5643 65.5059C36.865 65.1686 37.2205 64.9111 37.6307 64.7334C38.0408 64.5557 38.4852 64.4668 38.9637 64.4668C39.4923 64.4668 39.9549 64.5557 40.3514 64.7334C40.7479 64.9111 41.076 65.1618 41.3357 65.4854C41.6001 65.8044 41.796 66.1849 41.9236 66.627C42.0558 67.069 42.1219 67.5566 42.1219 68.0898V68.7939H36.407V67.6113H40.4949V67.4814C40.4858 67.1852 40.4266 66.9072 40.3172 66.6475C40.2124 66.3877 40.0506 66.1781 39.8318 66.0186C39.6131 65.859 39.3214 65.7793 38.9568 65.7793C38.6834 65.7793 38.4396 65.8385 38.2254 65.957C38.0158 66.071 37.8403 66.2373 37.699 66.4561C37.5577 66.6748 37.4484 66.9391 37.3709 67.249C37.298 67.5544 37.2615 67.8984 37.2615 68.2812V68.5547C37.2615 68.8783 37.3048 69.179 37.3914 69.457C37.4826 69.7305 37.6147 69.9697 37.7879 70.1748C37.9611 70.3799 38.1707 70.5417 38.4168 70.6602C38.6629 70.7741 38.9432 70.8311 39.2576 70.8311C39.6541 70.8311 40.0073 70.7513 40.3172 70.5918C40.6271 70.4323 40.896 70.2067 41.1238 69.915L41.992 70.7559C41.8325 70.9883 41.6251 71.2116 41.3699 71.4258C41.1147 71.6354 40.8025 71.8063 40.4334 71.9385C40.0688 72.0706 39.645 72.1367 39.1619 72.1367ZM45.1613 66.0117V72H43.5139V64.6035H45.0861L45.1613 66.0117ZM47.424 64.5557L47.4104 66.0869C47.3101 66.0687 47.2007 66.055 47.0822 66.0459C46.9683 66.0368 46.8544 66.0322 46.7404 66.0322C46.4579 66.0322 46.2095 66.0732 45.9953 66.1553C45.7811 66.2327 45.6011 66.3467 45.4553 66.4971C45.314 66.6429 45.2046 66.8206 45.1271 67.0303C45.0497 67.2399 45.0041 67.4746 44.9904 67.7344L44.6145 67.7617C44.6145 67.2969 44.66 66.8662 44.7512 66.4697C44.8423 66.0732 44.979 65.7246 45.1613 65.4238C45.3482 65.123 45.5806 64.8883 45.8586 64.7197C46.1411 64.5511 46.467 64.4668 46.8361 64.4668C46.9364 64.4668 47.0435 64.4759 47.1574 64.4941C47.2759 64.5124 47.3648 64.5329 47.424 64.5557ZM57.5771 70.6738L60.1953 72.752L59.0811 73.7295L56.5107 71.6719L57.5771 70.6738ZM60.2158 66.75V67.2969C60.2158 68.0488 60.1178 68.7233 59.9219 69.3203C59.7259 69.9173 59.4456 70.4255 59.0811 70.8447C58.7165 71.264 58.2812 71.5853 57.7754 71.8086C57.2695 72.0273 56.709 72.1367 56.0938 72.1367C55.4831 72.1367 54.9248 72.0273 54.4189 71.8086C53.9176 71.5853 53.4824 71.264 53.1133 70.8447C52.7441 70.4255 52.457 69.9173 52.252 69.3203C52.0514 68.7233 51.9512 68.0488 51.9512 67.2969V66.75C51.9512 65.998 52.0514 65.3258 52.252 64.7334C52.4525 64.1364 52.735 63.6283 53.0996 63.209C53.4688 62.7852 53.904 62.4639 54.4053 62.2451C54.9111 62.0218 55.4694 61.9102 56.0801 61.9102C56.6953 61.9102 57.2559 62.0218 57.7617 62.2451C58.2721 62.4639 58.7096 62.7852 59.0742 63.209C59.4388 63.6283 59.7191 64.1364 59.915 64.7334C60.1156 65.3258 60.2158 65.998 60.2158 66.75ZM58.4932 67.2969V66.7363C58.4932 66.1803 58.4385 65.6904 58.3291 65.2666C58.2243 64.8382 58.0671 64.4805 57.8574 64.1934C57.6523 63.9017 57.3994 63.6829 57.0986 63.5371C56.8024 63.3867 56.4629 63.3115 56.0801 63.3115C55.7064 63.3115 55.3714 63.3867 55.0752 63.5371C54.779 63.6829 54.526 63.9017 54.3164 64.1934C54.1068 64.4805 53.9473 64.8382 53.8379 65.2666C53.7285 65.6904 53.6738 66.1803 53.6738 66.7363V67.2969C53.6738 67.8529 53.7285 68.3451 53.8379 68.7734C53.9473 69.2018 54.1068 69.5641 54.3164 69.8604C54.5306 70.152 54.7858 70.373 55.082 70.5234C55.3828 70.6693 55.7201 70.7422 56.0938 70.7422C56.4766 70.7422 56.8161 70.6693 57.1123 70.5234C57.4085 70.373 57.6592 70.152 57.8643 69.8604C58.0693 69.5641 58.2243 69.2018 58.3291 68.7734C58.4385 68.3451 58.4932 67.8529 58.4932 67.2969ZM66.3451 70.2568V64.6035H67.9994V72H66.4408L66.3451 70.2568ZM66.5775 68.7188L67.1312 68.7051C67.1312 69.2018 67.0766 69.6598 66.9672 70.0791C66.8578 70.4938 66.6892 70.8561 66.4613 71.166C66.2335 71.4714 65.9418 71.7106 65.5863 71.8838C65.2309 72.0524 64.8048 72.1367 64.308 72.1367C63.948 72.1367 63.6176 72.0843 63.3168 71.9795C63.016 71.8747 62.7562 71.7129 62.5375 71.4941C62.3233 71.2754 62.157 70.9906 62.0385 70.6396C61.92 70.2887 61.8607 69.8695 61.8607 69.3818V64.6035H63.5082V69.3955C63.5082 69.6644 63.5401 69.89 63.6039 70.0723C63.6677 70.25 63.7543 70.3936 63.8637 70.5029C63.973 70.6123 64.1006 70.6898 64.2465 70.7354C64.3923 70.7809 64.5473 70.8037 64.7113 70.8037C65.1807 70.8037 65.5499 70.7126 65.8187 70.5303C66.0922 70.3434 66.2859 70.0928 66.3998 69.7783C66.5183 69.4639 66.5775 69.1107 66.5775 68.7188ZM73.9578 70.5166V66.9893C73.9578 66.7249 73.91 66.4971 73.8143 66.3057C73.7186 66.1143 73.5727 65.9661 73.3768 65.8613C73.1853 65.7565 72.9438 65.7041 72.6521 65.7041C72.3833 65.7041 72.1508 65.7497 71.9549 65.8408C71.7589 65.932 71.6062 66.055 71.4969 66.21C71.3875 66.3649 71.3328 66.5404 71.3328 66.7363H69.6922C69.6922 66.4447 69.7628 66.1621 69.9041 65.8887C70.0454 65.6152 70.2505 65.3714 70.5193 65.1572C70.7882 64.943 71.1095 64.7744 71.4832 64.6514C71.8569 64.5283 72.2762 64.4668 72.741 64.4668C73.297 64.4668 73.7892 64.5602 74.2176 64.7471C74.6505 64.9339 74.99 65.2165 75.2361 65.5947C75.4868 65.9684 75.6121 66.4378 75.6121 67.0029V70.291C75.6121 70.6283 75.6349 70.9313 75.6805 71.2002C75.7306 71.4645 75.8012 71.6947 75.8924 71.8906V72H74.2039C74.1264 71.8223 74.0649 71.5967 74.0193 71.3232C73.9783 71.0452 73.9578 70.7764 73.9578 70.5166ZM74.1971 67.502L74.2107 68.5205H73.0281C72.7228 68.5205 72.4539 68.5501 72.2215 68.6094C71.9891 68.6641 71.7954 68.7461 71.6404 68.8555C71.4855 68.9648 71.3693 69.097 71.2918 69.252C71.2143 69.4069 71.1756 69.5824 71.1756 69.7783C71.1756 69.9743 71.2212 70.1543 71.3123 70.3184C71.4034 70.4779 71.5356 70.6032 71.7088 70.6943C71.8865 70.7855 72.1007 70.8311 72.3514 70.8311C72.6886 70.8311 72.9825 70.7627 73.2332 70.626C73.4884 70.4847 73.6889 70.3138 73.8348 70.1133C73.9806 69.9082 74.0581 69.7145 74.0672 69.5322L74.6004 70.2637C74.5457 70.4505 74.4523 70.651 74.3201 70.8652C74.188 71.0794 74.0148 71.2845 73.8006 71.4805C73.5909 71.6719 73.338 71.8291 73.0418 71.9521C72.7501 72.0752 72.4129 72.1367 72.0301 72.1367C71.547 72.1367 71.1163 72.041 70.7381 71.8496C70.3598 71.6536 70.0636 71.3916 69.8494 71.0635C69.6352 70.7308 69.5281 70.3548 69.5281 69.9355C69.5281 69.5436 69.601 69.1973 69.7469 68.8965C69.8973 68.5911 70.116 68.3359 70.4031 68.1309C70.6948 67.9258 71.0503 67.7708 71.4695 67.666C71.8888 67.5566 72.3673 67.502 72.9051 67.502H74.1971ZM79.1984 61.5V72H77.5441V61.5H79.1984ZM82.8668 64.6035V72H81.2125V64.6035H82.8668ZM81.1031 62.6621C81.1031 62.4115 81.1852 62.2041 81.3492 62.04C81.5178 61.8714 81.7503 61.7871 82.0465 61.7871C82.3381 61.7871 82.5683 61.8714 82.7369 62.04C82.9055 62.2041 82.9898 62.4115 82.9898 62.6621C82.9898 62.9082 82.9055 63.1133 82.7369 63.2773C82.5683 63.4414 82.3381 63.5234 82.0465 63.5234C81.7503 63.5234 81.5178 63.4414 81.3492 63.2773C81.1852 63.1133 81.1031 62.9082 81.1031 62.6621ZM86.8906 72H85.2363V64.125C85.2363 63.528 85.3548 63.0244 85.5918 62.6143C85.8333 62.2041 86.1774 61.8919 86.624 61.6777C87.0752 61.4635 87.6107 61.3564 88.2305 61.3564C88.5951 61.3564 88.946 61.3952 89.2832 61.4727C89.625 61.5501 89.9782 61.6481 90.3428 61.7666L90.0898 63.1064C89.8574 63.029 89.5999 62.9561 89.3174 62.8877C89.0348 62.8148 88.709 62.7783 88.3398 62.7783C87.8431 62.7783 87.4762 62.8923 87.2393 63.1201C87.0068 63.3434 86.8906 63.6784 86.8906 64.125V72ZM88.374 64.6035V65.8066H84.1016V64.6035H88.374ZM91.1221 64.6035V72H89.4746V64.6035H91.1221ZM94.7221 61.5V72H93.0678V61.5H94.7221ZM99.3158 64.6035L96.0961 68.1719L94.3324 69.9766L93.9018 68.582L95.2348 66.9346L97.3266 64.6035H99.3158ZM97.682 72L95.2826 68.5273L96.3217 67.3721L99.5893 72H97.682ZM104.632 70.5166V66.9893C104.632 66.7249 104.584 66.4971 104.488 66.3057C104.392 66.1143 104.247 65.9661 104.051 65.8613C103.859 65.7565 103.618 65.7041 103.326 65.7041C103.057 65.7041 102.825 65.7497 102.629 65.8408C102.433 65.932 102.28 66.055 102.171 66.21C102.061 66.3649 102.007 66.5404 102.007 66.7363H100.366C100.366 66.4447 100.437 66.1621 100.578 65.8887C100.719 65.6152 100.924 65.3714 101.193 65.1572C101.462 64.943 101.783 64.7744 102.157 64.6514C102.531 64.5283 102.95 64.4668 103.415 64.4668C103.971 64.4668 104.463 64.5602 104.891 64.7471C105.324 64.9339 105.664 65.2165 105.91 65.5947C106.161 65.9684 106.286 66.4378 106.286 67.0029V70.291C106.286 70.6283 106.309 70.9313 106.354 71.2002C106.404 71.4645 106.475 71.6947 106.566 71.8906V72H104.878C104.8 71.8223 104.739 71.5967 104.693 71.3232C104.652 71.0452 104.632 70.7764 104.632 70.5166ZM104.871 67.502L104.885 68.5205H103.702C103.397 68.5205 103.128 68.5501 102.895 68.6094C102.663 68.6641 102.469 68.7461 102.314 68.8555C102.159 68.9648 102.043 69.097 101.966 69.252C101.888 69.4069 101.849 69.5824 101.849 69.7783C101.849 69.9743 101.895 70.1543 101.986 70.3184C102.077 70.4779 102.209 70.6032 102.383 70.6943C102.56 70.7855 102.775 70.8311 103.025 70.8311C103.362 70.8311 103.656 70.7627 103.907 70.626C104.162 70.4847 104.363 70.3138 104.509 70.1133C104.654 69.9082 104.732 69.7145 104.741 69.5322L105.274 70.2637C105.22 70.4505 105.126 70.651 104.994 70.8652C104.862 71.0794 104.689 71.2845 104.474 71.4805C104.265 71.6719 104.012 71.8291 103.716 71.9521C103.424 72.0752 103.087 72.1367 102.704 72.1367C102.221 72.1367 101.79 72.041 101.412 71.8496C101.034 71.6536 100.737 71.3916 100.523 71.0635C100.309 70.7308 100.202 70.3548 100.202 69.9355C100.202 69.5436 100.275 69.1973 100.421 68.8965C100.571 68.5911 100.79 68.3359 101.077 68.1309C101.369 67.9258 101.724 67.7708 102.143 67.666C102.563 67.5566 103.041 67.502 103.579 67.502H104.871ZM111.499 64.6035V65.8066H107.329V64.6035H111.499ZM108.532 62.792H110.18V69.9561C110.18 70.1839 110.212 70.3594 110.276 70.4824C110.344 70.6009 110.437 70.6807 110.556 70.7217C110.674 70.7627 110.813 70.7832 110.973 70.7832C111.087 70.7832 111.196 70.7764 111.301 70.7627C111.406 70.749 111.49 70.7354 111.554 70.7217L111.561 71.9795C111.424 72.0205 111.265 72.057 111.082 72.0889C110.904 72.1208 110.699 72.1367 110.467 72.1367C110.089 72.1367 109.754 72.0706 109.462 71.9385C109.17 71.8018 108.943 71.5807 108.779 71.2754C108.614 70.9701 108.532 70.5645 108.532 70.0586V62.792ZM114.634 64.6035V72H112.98V64.6035H114.634ZM112.871 62.6621C112.871 62.4115 112.953 62.2041 113.117 62.04C113.285 61.8714 113.518 61.7871 113.814 61.7871C114.106 61.7871 114.336 61.8714 114.504 62.04C114.673 62.2041 114.757 62.4115 114.757 62.6621C114.757 62.9082 114.673 63.1133 114.504 63.2773C114.336 63.4414 114.106 63.5234 113.814 63.5234C113.518 63.5234 113.285 63.4414 113.117 63.2773C112.953 63.1133 112.871 62.9082 112.871 62.6621ZM116.225 68.3838V68.2266C116.225 67.6934 116.302 67.1989 116.457 66.7432C116.612 66.2829 116.835 65.8841 117.127 65.5469C117.423 65.2051 117.783 64.9408 118.207 64.7539C118.635 64.5625 119.118 64.4668 119.656 64.4668C120.199 64.4668 120.682 64.5625 121.105 64.7539C121.534 64.9408 121.896 65.2051 122.192 65.5469C122.489 65.8841 122.714 66.2829 122.869 66.7432C123.024 67.1989 123.102 67.6934 123.102 68.2266V68.3838C123.102 68.917 123.024 69.4115 122.869 69.8672C122.714 70.3229 122.489 70.7217 122.192 71.0635C121.896 71.4007 121.536 71.665 121.112 71.8564C120.688 72.0433 120.208 72.1367 119.67 72.1367C119.128 72.1367 118.642 72.0433 118.214 71.8564C117.79 71.665 117.43 71.4007 117.134 71.0635C116.838 70.7217 116.612 70.3229 116.457 69.8672C116.302 69.4115 116.225 68.917 116.225 68.3838ZM117.872 68.2266V68.3838C117.872 68.7165 117.906 69.0309 117.975 69.3271C118.043 69.6234 118.15 69.8831 118.296 70.1064C118.442 70.3298 118.629 70.5052 118.856 70.6328C119.084 70.7604 119.355 70.8242 119.67 70.8242C119.975 70.8242 120.24 70.7604 120.463 70.6328C120.691 70.5052 120.878 70.3298 121.023 70.1064C121.169 69.8831 121.276 69.6234 121.345 69.3271C121.418 69.0309 121.454 68.7165 121.454 68.3838V68.2266C121.454 67.8984 121.418 67.5885 121.345 67.2969C121.276 67.0007 121.167 66.7386 121.017 66.5107C120.871 66.2829 120.684 66.1051 120.456 65.9775C120.233 65.8454 119.966 65.7793 119.656 65.7793C119.346 65.7793 119.077 65.8454 118.85 65.9775C118.626 66.1051 118.442 66.2829 118.296 66.5107C118.15 66.7386 118.043 67.0007 117.975 67.2969C117.906 67.5885 117.872 67.8984 117.872 68.2266ZM126.216 66.1826V72H124.569V64.6035H126.121L126.216 66.1826ZM125.922 68.0283L125.389 68.0215C125.394 67.4974 125.467 67.0166 125.608 66.5791C125.754 66.1416 125.954 65.7656 126.209 65.4512C126.469 65.1367 126.779 64.8952 127.139 64.7266C127.499 64.5534 127.9 64.4668 128.342 64.4668C128.698 64.4668 129.019 64.5169 129.306 64.6172C129.598 64.7129 129.846 64.8701 130.051 65.0889C130.261 65.3076 130.42 65.5924 130.53 65.9434C130.639 66.2897 130.694 66.7158 130.694 67.2217V72H129.039V67.2148C129.039 66.8594 128.987 66.5791 128.882 66.374C128.782 66.1644 128.634 66.0163 128.438 65.9297C128.246 65.8385 128.007 65.793 127.72 65.793C127.438 65.793 127.185 65.8522 126.961 65.9707C126.738 66.0892 126.549 66.251 126.394 66.4561C126.244 66.6611 126.127 66.8981 126.045 67.167C125.963 67.4359 125.922 67.723 125.922 68.0283ZM135.736 72.1367C135.189 72.1367 134.695 72.0479 134.253 71.8701C133.815 71.6878 133.442 71.4349 133.132 71.1113C132.826 70.7878 132.592 70.4072 132.428 69.9697C132.263 69.5322 132.181 69.0605 132.181 68.5547V68.2812C132.181 67.7025 132.266 67.1784 132.434 66.709C132.603 66.2396 132.838 65.8385 133.138 65.5059C133.439 65.1686 133.795 64.9111 134.205 64.7334C134.615 64.5557 135.059 64.4668 135.538 64.4668C136.067 64.4668 136.529 64.5557 136.926 64.7334C137.322 64.9111 137.65 65.1618 137.91 65.4854C138.174 65.8044 138.37 66.1849 138.498 66.627C138.63 67.069 138.696 67.5566 138.696 68.0898V68.7939H132.981V67.6113H137.069V67.4814C137.06 67.1852 137.001 66.9072 136.891 66.6475C136.787 66.3877 136.625 66.1781 136.406 66.0186C136.187 65.859 135.896 65.7793 135.531 65.7793C135.258 65.7793 135.014 65.8385 134.8 65.957C134.59 66.071 134.415 66.2373 134.273 66.4561C134.132 66.6748 134.023 66.9391 133.945 67.249C133.872 67.5544 133.836 67.8984 133.836 68.2812V68.5547C133.836 68.8783 133.879 69.179 133.966 69.457C134.057 69.7305 134.189 69.9697 134.362 70.1748C134.535 70.3799 134.745 70.5417 134.991 70.6602C135.237 70.7741 135.517 70.8311 135.832 70.8311C136.228 70.8311 136.582 70.7513 136.891 70.5918C137.201 70.4323 137.47 70.2067 137.698 69.915L138.566 70.7559C138.407 70.9883 138.199 71.2116 137.944 71.4258C137.689 71.6354 137.377 71.8063 137.008 71.9385C136.643 72.0706 136.219 72.1367 135.736 72.1367ZM141.715 66.1826V72H140.068V64.6035H141.619L141.715 66.1826ZM141.421 68.0283L140.888 68.0215C140.892 67.4974 140.965 67.0166 141.107 66.5791C141.252 66.1416 141.453 65.7656 141.708 65.4512C141.968 65.1367 142.278 64.8952 142.638 64.7266C142.998 64.5534 143.399 64.4668 143.841 64.4668C144.196 64.4668 144.518 64.5169 144.805 64.6172C145.097 64.7129 145.345 64.8701 145.55 65.0889C145.76 65.3076 145.919 65.5924 146.029 65.9434C146.138 66.2897 146.193 66.7158 146.193 67.2217V72H144.538V67.2148C144.538 66.8594 144.486 66.5791 144.381 66.374C144.281 66.1644 144.133 66.0163 143.937 65.9297C143.745 65.8385 143.506 65.793 143.219 65.793C142.936 65.793 142.683 65.8522 142.46 65.9707C142.237 66.0892 142.048 66.251 141.893 66.4561C141.742 66.6611 141.626 66.8981 141.544 67.167C141.462 67.4359 141.421 67.723 141.421 68.0283ZM151.057 69.0674H149.533C149.537 68.6436 149.574 68.2881 149.642 68.001C149.711 67.7093 149.824 67.445 149.984 67.208C150.148 66.971 150.365 66.7204 150.633 66.4561C150.843 66.2555 151.032 66.0664 151.201 65.8887C151.369 65.7064 151.504 65.515 151.604 65.3145C151.704 65.1094 151.754 64.8747 151.754 64.6104C151.754 64.3232 151.707 64.0794 151.611 63.8789C151.515 63.6784 151.374 63.5257 151.187 63.4209C151.005 63.3161 150.777 63.2637 150.504 63.2637C150.276 63.2637 150.061 63.3092 149.861 63.4004C149.66 63.487 149.499 63.6237 149.376 63.8105C149.253 63.9928 149.186 64.2344 149.177 64.5352H147.53C147.539 63.9609 147.676 63.4779 147.94 63.0859C148.204 62.694 148.56 62.4001 149.006 62.2041C149.453 62.0081 149.952 61.9102 150.504 61.9102C151.114 61.9102 151.636 62.015 152.069 62.2246C152.502 62.4297 152.832 62.7305 153.06 63.127C153.293 63.5189 153.409 63.9928 153.409 64.5488C153.409 64.9499 153.329 65.3145 153.17 65.6426C153.01 65.9661 152.803 66.2692 152.547 66.5518C152.292 66.8298 152.017 67.1077 151.72 67.3857C151.465 67.6182 151.292 67.8711 151.201 68.1445C151.11 68.4134 151.062 68.721 151.057 69.0674ZM149.396 71.2002C149.396 70.9541 149.48 70.7467 149.649 70.5781C149.818 70.4049 150.048 70.3184 150.339 70.3184C150.631 70.3184 150.861 70.4049 151.03 70.5781C151.198 70.7467 151.283 70.9541 151.283 71.2002C151.283 71.4463 151.198 71.6559 151.03 71.8291C150.861 71.9977 150.631 72.082 150.339 72.082C150.048 72.082 149.818 71.9977 149.649 71.8291C149.48 71.6559 149.396 71.4463 149.396 71.2002Z" fill="#078DBA"/>
</g>
<defs>
<filter id="filter0_d_121_1788" x="0" y="0" width="362" height="212" filterUnits="userSpaceOnUse" color-interpolation-filters="sRGB">
<feFlood flood-opacity="0" result="BackgroundImageFix"/>
<feColorMatrix in="SourceAlpha" type="matrix" values="0 0 0 0 0 0 0 0 0 0 0 0 0 0 0 0 0 0 127 0" result="hardAlpha"/>
<feMorphology radius="2" operator="dilate" in="SourceAlpha" result="effect1_dropShadow_121_1788"/>
<feOffset dx="4" dy="4"/>
<feGaussianBlur stdDeviation="2"/>
<feComposite in2="hardAlpha" operator="out"/>
<feColorMatrix type="matrix" values="0 0 0 0 0 0 0 0 0 0 0 0 0 0 0 0 0 0 0.15 0"/>
<feBlend mode="normal" in2="BackgroundImageFix" result="effect1_dropShadow_121_1788"/>
<feBlend mode="normal" in="SourceGraphic" in2="effect1_dropShadow_121_1788" result="shape"/>
</filter>
<filter id="filter1_d_121_1788" x="23.6118" y="21.5" width="133.797" height="60.2295" filterUnits="userSpaceOnUse" color-interpolation-filters="sRGB">
<feFlood flood-opacity="0" result="BackgroundImageFix"/>
<feColorMatrix in="SourceAlpha" type="matrix" values="0 0 0 0 0 0 0 0 0 0 0 0 0 0 0 0 0 0 127 0" result="hardAlpha"/>
<feOffset dy="4"/>
<feGaussianBlur stdDeviation="2"/>
<feComposite in2="hardAlpha" operator="out"/>
<feColorMatrix type="matrix" values="0 0 0 0 1 0 0 0 0 1 0 0 0 0 1 0 0 0 0.15 0"/>
<feBlend mode="normal" in2="BackgroundImageFix" result="effect1_dropShadow_121_1788"/>
<feBlend mode="normal" in="SourceGraphic" in2="effect1_dropShadow_121_1788" result="shape"/>
</filter>
</defs>
</svg>
