<svg width="362" height="212" viewBox="0 0 362 212" fill="none" xmlns="http://www.w3.org/2000/svg">
<g filter="url(#filter0_d_121_1817)">
<rect x="2" y="2" width="350" height="200" rx="12" fill="#2B292F"/>
</g>
<g filter="url(#filter1_d_121_1817)">
<path d="M267.277 36.4766V40.1504L251.079 77H244.009L260.18 41.8203H239.194V36.4766H267.277Z" fill="#8AFEF5"/>
</g>
<g filter="url(#filter2_d_121_1817)">
<path d="M251.329 159.656V165H224.165V160.408L237.357 146.019C238.805 144.386 239.946 142.976 240.781 141.788C241.616 140.601 242.2 139.534 242.534 138.587C242.887 137.623 243.063 136.686 243.063 135.776C243.063 134.496 242.822 133.374 242.339 132.409C241.875 131.425 241.189 130.655 240.28 130.099C239.371 129.523 238.267 129.236 236.968 129.236C235.465 129.236 234.203 129.561 233.183 130.21C232.162 130.859 231.392 131.759 230.873 132.91C230.353 134.042 230.093 135.34 230.093 136.806H223.386C223.386 134.45 223.924 132.297 225 130.349C226.076 128.382 227.635 126.824 229.676 125.673C231.717 124.504 234.175 123.92 237.051 123.92C239.76 123.92 242.061 124.375 243.954 125.284C245.846 126.193 247.284 127.482 248.268 129.152C249.27 130.822 249.771 132.798 249.771 135.081C249.771 136.342 249.566 137.595 249.158 138.838C248.75 140.081 248.166 141.324 247.405 142.567C246.663 143.792 245.781 145.026 244.761 146.269C243.74 147.494 242.618 148.737 241.393 149.999L232.626 159.656H251.329ZM274.875 124.337V165H268.167V132.297L258.231 135.665V130.126L274.068 124.337H274.875Z" fill="#009A8D"/>
</g>
<g filter="url(#filter3_d_121_1817)">
<path d="M29.459 31.7646L31.4414 24.0469H32.4805L32.3643 26.0361L30.2451 34H29.165L29.459 31.7646ZM27.9756 24.0469L29.582 31.7031L29.7256 34H28.5771L26.2734 24.0469H27.9756ZM34.7295 31.6826L36.3154 24.0469H38.0244L35.7207 34H34.5723L34.7295 31.6826ZM32.8838 24.0469L34.8457 31.7852L35.1328 34H34.0527L31.9678 26.0361L31.8584 24.0469H32.8838ZM40.9955 26.6035V34H39.3412V26.6035H40.9955ZM39.2318 24.6621C39.2318 24.4115 39.3139 24.2041 39.4779 24.04C39.6465 23.8714 39.879 23.7871 40.1752 23.7871C40.4669 23.7871 40.697 23.8714 40.8656 24.04C41.0342 24.2041 41.1186 24.4115 41.1186 24.6621C41.1186 24.9082 41.0342 25.1133 40.8656 25.2773C40.697 25.4414 40.4669 25.5234 40.1752 25.5234C39.879 25.5234 39.6465 25.4414 39.4779 25.2773C39.3139 25.1133 39.2318 24.9082 39.2318 24.6621ZM46.1609 34.1367C45.6141 34.1367 45.1196 34.0479 44.6775 33.8701C44.24 33.6878 43.8663 33.4349 43.5564 33.1113C43.2511 32.7878 43.0164 32.4072 42.8523 31.9697C42.6883 31.5322 42.6063 31.0605 42.6063 30.5547V30.2812C42.6063 29.7025 42.6906 29.1784 42.8592 28.709C43.0278 28.2396 43.2625 27.8385 43.5633 27.5059C43.8641 27.1686 44.2195 26.9111 44.6297 26.7334C45.0398 26.5557 45.4842 26.4668 45.9627 26.4668C46.4913 26.4668 46.9539 26.5557 47.3504 26.7334C47.7469 26.9111 48.075 27.1618 48.3348 27.4854C48.5991 27.8044 48.7951 28.1849 48.9227 28.627C49.0548 29.069 49.1209 29.5566 49.1209 30.0898V30.7939H43.4061V29.6113H47.4939V29.4814C47.4848 29.1852 47.4256 28.9072 47.3162 28.6475C47.2114 28.3877 47.0496 28.1781 46.8309 28.0186C46.6121 27.859 46.3204 27.7793 45.9559 27.7793C45.6824 27.7793 45.4386 27.8385 45.2244 27.957C45.0148 28.071 44.8393 28.2373 44.698 28.4561C44.5568 28.6748 44.4474 28.9391 44.3699 29.249C44.297 29.5544 44.2605 29.8984 44.2605 30.2812V30.5547C44.2605 30.8783 44.3038 31.179 44.3904 31.457C44.4816 31.7305 44.6137 31.9697 44.7869 32.1748C44.9601 32.3799 45.1697 32.5417 45.4158 32.6602C45.6619 32.7741 45.9422 32.8311 46.2566 32.8311C46.6531 32.8311 47.0063 32.7513 47.3162 32.5918C47.6261 32.4323 47.895 32.2067 48.1229 31.915L48.991 32.7559C48.8315 32.9883 48.6242 33.2116 48.3689 33.4258C48.1137 33.6354 47.8016 33.8063 47.4324 33.9385C47.0678 34.0706 46.644 34.1367 46.1609 34.1367ZM55.8561 26.6035V34H54.2018V26.6035H55.8561ZM54.0924 24.6621C54.0924 24.4115 54.1744 24.2041 54.3385 24.04C54.5071 23.8714 54.7395 23.7871 55.0357 23.7871C55.3274 23.7871 55.5576 23.8714 55.7262 24.04C55.8948 24.2041 55.9791 24.4115 55.9791 24.6621C55.9791 24.9082 55.8948 25.1133 55.7262 25.2773C55.5576 25.4414 55.3274 25.5234 55.0357 25.5234C54.7395 25.5234 54.5071 25.4414 54.3385 25.2773C54.1744 25.1133 54.0924 24.9082 54.0924 24.6621ZM61.9102 31.9971C61.9102 31.833 61.8691 31.6849 61.7871 31.5527C61.7051 31.416 61.5479 31.293 61.3154 31.1836C61.0876 31.0742 60.7503 30.974 60.3037 30.8828C59.9118 30.7962 59.5518 30.6937 59.2236 30.5752C58.9001 30.4521 58.6221 30.304 58.3896 30.1309C58.1572 29.9577 57.9772 29.7526 57.8496 29.5156C57.722 29.2786 57.6582 29.0052 57.6582 28.6953C57.6582 28.3945 57.7243 28.1097 57.8564 27.8408C57.9886 27.5719 58.1777 27.335 58.4238 27.1299C58.6699 26.9248 58.9684 26.763 59.3193 26.6445C59.6748 26.526 60.0713 26.4668 60.5088 26.4668C61.1286 26.4668 61.6595 26.5716 62.1016 26.7812C62.5482 26.9863 62.89 27.2666 63.127 27.6221C63.3639 27.973 63.4824 28.3695 63.4824 28.8115H61.835C61.835 28.6156 61.7848 28.4333 61.6846 28.2646C61.5889 28.0915 61.443 27.9525 61.2471 27.8477C61.0511 27.7383 60.805 27.6836 60.5088 27.6836C60.2262 27.6836 59.9915 27.7292 59.8047 27.8203C59.6224 27.9069 59.4857 28.0208 59.3945 28.1621C59.3079 28.3034 59.2646 28.4583 59.2646 28.627C59.2646 28.75 59.2874 28.8617 59.333 28.9619C59.3831 29.0576 59.4652 29.1465 59.5791 29.2285C59.693 29.306 59.848 29.3789 60.0439 29.4473C60.2445 29.5156 60.4951 29.5817 60.7959 29.6455C61.361 29.764 61.8464 29.9167 62.252 30.1035C62.6621 30.2858 62.9766 30.5228 63.1953 30.8145C63.4141 31.1016 63.5234 31.4661 63.5234 31.9082C63.5234 32.2363 63.4528 32.5371 63.3115 32.8105C63.1748 33.0794 62.9743 33.3141 62.71 33.5146C62.4456 33.7106 62.1289 33.8633 61.7598 33.9727C61.3952 34.082 60.985 34.1367 60.5293 34.1367C59.8594 34.1367 59.292 34.0182 58.8271 33.7812C58.3623 33.5397 58.0091 33.2321 57.7676 32.8584C57.5306 32.4801 57.4121 32.0882 57.4121 31.6826H59.0049C59.0231 31.988 59.1074 32.2318 59.2578 32.4141C59.4128 32.5918 59.6042 32.7217 59.832 32.8037C60.0645 32.8812 60.3037 32.9199 60.5498 32.9199C60.846 32.9199 61.0944 32.8812 61.2949 32.8037C61.4954 32.7217 61.6481 32.6123 61.7529 32.4756C61.8577 32.3343 61.9102 32.1748 61.9102 31.9971ZM68.4564 26.6035V27.8066H64.2865V26.6035H68.4564ZM65.4896 24.792H67.1371V31.9561C67.1371 32.1839 67.169 32.3594 67.2328 32.4824C67.3012 32.6009 67.3946 32.6807 67.5131 32.7217C67.6316 32.7627 67.7706 32.7832 67.9301 32.7832C68.044 32.7832 68.1534 32.7764 68.2582 32.7627C68.363 32.749 68.4473 32.7354 68.5111 32.7217L68.518 33.9795C68.3812 34.0205 68.2217 34.057 68.0395 34.0889C67.8617 34.1208 67.6566 34.1367 67.4242 34.1367C67.046 34.1367 66.711 34.0706 66.4193 33.9385C66.1277 33.8018 65.8998 33.5807 65.7357 33.2754C65.5717 32.9701 65.4896 32.5645 65.4896 32.0586V24.792ZM77.926 32.4688V23.5H79.5803V34H78.0832L77.926 32.4688ZM73.1135 30.3838V30.2402C73.1135 29.6797 73.1796 29.1693 73.3117 28.709C73.4439 28.2441 73.6353 27.8454 73.8859 27.5127C74.1366 27.1755 74.4419 26.918 74.802 26.7402C75.162 26.5579 75.5676 26.4668 76.0187 26.4668C76.4654 26.4668 76.8573 26.5534 77.1945 26.7266C77.5318 26.8997 77.8189 27.1481 78.0559 27.4717C78.2928 27.7907 78.482 28.1735 78.6232 28.6201C78.7645 29.0622 78.8648 29.5544 78.924 30.0967V30.5547C78.8648 31.0833 78.7645 31.5664 78.6232 32.0039C78.482 32.4414 78.2928 32.8197 78.0559 33.1387C77.8189 33.4577 77.5295 33.7038 77.1877 33.877C76.8505 34.0501 76.4562 34.1367 76.0051 34.1367C75.5585 34.1367 75.1551 34.0433 74.7951 33.8564C74.4396 33.6696 74.1366 33.4076 73.8859 33.0703C73.6353 32.7331 73.4439 32.3366 73.3117 31.8809C73.1796 31.4206 73.1135 30.9215 73.1135 30.3838ZM74.7609 30.2402V30.3838C74.7609 30.721 74.7906 31.0355 74.8498 31.3271C74.9136 31.6188 75.0116 31.8763 75.1437 32.0996C75.2759 32.3184 75.4468 32.4915 75.6564 32.6191C75.8706 32.7422 76.1258 32.8037 76.4221 32.8037C76.7958 32.8037 77.1034 32.7217 77.3449 32.5576C77.5865 32.3936 77.7756 32.1725 77.9123 31.8945C78.0536 31.612 78.1493 31.2975 78.1994 30.9512V29.7139C78.1721 29.445 78.1151 29.1943 78.0285 28.9619C77.9465 28.7295 77.8348 28.5267 77.6936 28.3535C77.5523 28.1758 77.3768 28.0391 77.1672 27.9434C76.9621 27.8431 76.7183 27.793 76.4357 27.793C76.135 27.793 75.8798 27.8568 75.6701 27.9844C75.4605 28.112 75.2873 28.2874 75.1506 28.5107C75.0184 28.734 74.9204 28.9938 74.8566 29.29C74.7928 29.5863 74.7609 29.903 74.7609 30.2402ZM84.6637 34.1367C84.1168 34.1367 83.6223 34.0479 83.1803 33.8701C82.7428 33.6878 82.3691 33.4349 82.0592 33.1113C81.7538 32.7878 81.5191 32.4072 81.3551 31.9697C81.191 31.5322 81.109 31.0605 81.109 30.5547V30.2812C81.109 29.7025 81.1933 29.1784 81.3619 28.709C81.5305 28.2396 81.7652 27.8385 82.066 27.5059C82.3668 27.1686 82.7223 26.9111 83.1324 26.7334C83.5426 26.5557 83.9869 26.4668 84.4654 26.4668C84.9941 26.4668 85.4566 26.5557 85.8531 26.7334C86.2496 26.9111 86.5777 27.1618 86.8375 27.4854C87.1018 27.8044 87.2978 28.1849 87.4254 28.627C87.5576 29.069 87.6236 29.5566 87.6236 30.0898V30.7939H81.9088V29.6113H85.9967V29.4814C85.9876 29.1852 85.9283 28.9072 85.8189 28.6475C85.7141 28.3877 85.5523 28.1781 85.3336 28.0186C85.1148 27.859 84.8232 27.7793 84.4586 27.7793C84.1852 27.7793 83.9413 27.8385 83.7271 27.957C83.5175 28.071 83.3421 28.2373 83.2008 28.4561C83.0595 28.6748 82.9501 28.9391 82.8727 29.249C82.7997 29.5544 82.7633 29.8984 82.7633 30.2812V30.5547C82.7633 30.8783 82.8066 31.179 82.8932 31.457C82.9843 31.7305 83.1165 31.9697 83.2896 32.1748C83.4628 32.3799 83.6725 32.5417 83.9186 32.6602C84.1646 32.7741 84.4449 32.8311 84.7594 32.8311C85.1559 32.8311 85.5091 32.7513 85.8189 32.5918C86.1288 32.4323 86.3977 32.2067 86.6256 31.915L87.4938 32.7559C87.3342 32.9883 87.1269 33.2116 86.8717 33.4258C86.6165 33.6354 86.3043 33.8063 85.9352 33.9385C85.5706 34.0706 85.1467 34.1367 84.6637 34.1367ZM90.6631 28.0117V34H89.0156V26.6035H90.5879L90.6631 28.0117ZM92.9258 26.5557L92.9121 28.0869C92.8118 28.0687 92.7025 28.055 92.584 28.0459C92.4701 28.0368 92.3561 28.0322 92.2422 28.0322C91.9596 28.0322 91.7113 28.0732 91.4971 28.1553C91.2829 28.2327 91.1029 28.3467 90.957 28.4971C90.8158 28.6429 90.7064 28.8206 90.6289 29.0303C90.5514 29.2399 90.5059 29.4746 90.4922 29.7344L90.1162 29.7617C90.1162 29.2969 90.1618 28.8662 90.2529 28.4697C90.3441 28.0732 90.4808 27.7246 90.6631 27.4238C90.8499 27.123 91.0824 26.8883 91.3604 26.7197C91.6429 26.5511 91.9688 26.4668 92.3379 26.4668C92.4382 26.4668 92.5452 26.4759 92.6592 26.4941C92.7777 26.5124 92.8665 26.5329 92.9258 26.5557ZM101.814 32.5166V28.9893C101.814 28.7249 101.766 28.4971 101.671 28.3057C101.575 28.1143 101.429 27.9661 101.233 27.8613C101.042 27.7565 100.8 27.7041 100.509 27.7041C100.24 27.7041 100.007 27.7497 99.8113 27.8408C99.6154 27.932 99.4627 28.055 99.3533 28.21C99.2439 28.3649 99.1893 28.5404 99.1893 28.7363H97.5486C97.5486 28.4447 97.6193 28.1621 97.7605 27.8887C97.9018 27.6152 98.1069 27.3714 98.3758 27.1572C98.6447 26.943 98.9659 26.7744 99.3396 26.6514C99.7133 26.5283 100.133 26.4668 100.597 26.4668C101.153 26.4668 101.646 26.5602 102.074 26.7471C102.507 26.9339 102.846 27.2165 103.093 27.5947C103.343 27.9684 103.469 28.4378 103.469 29.0029V32.291C103.469 32.6283 103.491 32.9313 103.537 33.2002C103.587 33.4645 103.658 33.6947 103.749 33.8906V34H102.06C101.983 33.8223 101.921 33.5967 101.876 33.3232C101.835 33.0452 101.814 32.7764 101.814 32.5166ZM102.054 29.502L102.067 30.5205H100.885C100.579 30.5205 100.31 30.5501 100.078 30.6094C99.8455 30.6641 99.6518 30.7461 99.4969 30.8555C99.3419 30.9648 99.2257 31.097 99.1482 31.252C99.0708 31.4069 99.032 31.5824 99.032 31.7783C99.032 31.9743 99.0776 32.1543 99.1687 32.3184C99.2599 32.4779 99.3921 32.6032 99.5652 32.6943C99.743 32.7855 99.9572 32.8311 100.208 32.8311C100.545 32.8311 100.839 32.7627 101.09 32.626C101.345 32.4847 101.545 32.3138 101.691 32.1133C101.837 31.9082 101.915 31.7145 101.924 31.5322L102.457 32.2637C102.402 32.4505 102.309 32.651 102.177 32.8652C102.044 33.0794 101.871 33.2845 101.657 33.4805C101.447 33.6719 101.194 33.8291 100.898 33.9521C100.607 34.0752 100.269 34.1367 99.8865 34.1367C99.4034 34.1367 98.9728 34.041 98.5945 33.8496C98.2163 33.6536 97.92 33.3916 97.7059 33.0635C97.4917 32.7308 97.3846 32.3548 97.3846 31.9355C97.3846 31.5436 97.4575 31.1973 97.6033 30.8965C97.7537 30.5911 97.9725 30.3359 98.2596 30.1309C98.5512 29.9258 98.9067 29.7708 99.326 29.666C99.7452 29.5566 100.224 29.502 100.762 29.502H102.054ZM106.952 23.5V34H105.298V23.5H106.952ZM111.546 26.6035L108.326 30.1719L106.563 31.9766L106.132 30.582L107.465 28.9346L109.557 26.6035H111.546ZM109.912 34L107.513 30.5273L108.552 29.3721L111.82 34H109.912ZM116.083 26.6035V27.8066H111.913V26.6035H116.083ZM113.116 24.792H114.763V31.9561C114.763 32.1839 114.795 32.3594 114.859 32.4824C114.927 32.6009 115.021 32.6807 115.139 32.7217C115.258 32.7627 115.397 32.7832 115.556 32.7832C115.67 32.7832 115.78 32.7764 115.884 32.7627C115.989 32.749 116.074 32.7354 116.137 32.7217L116.144 33.9795C116.007 34.0205 115.848 34.057 115.666 34.0889C115.488 34.1208 115.283 34.1367 115.05 34.1367C114.672 34.1367 114.337 34.0706 114.046 33.9385C113.754 33.8018 113.526 33.5807 113.362 33.2754C113.198 32.9701 113.116 32.5645 113.116 32.0586V24.792ZM121.904 32.2568V26.6035H123.559V34H122L121.904 32.2568ZM122.137 30.7188L122.69 30.7051C122.69 31.2018 122.636 31.6598 122.526 32.0791C122.417 32.4938 122.248 32.8561 122.021 33.166C121.793 33.4714 121.501 33.7106 121.146 33.8838C120.79 34.0524 120.364 34.1367 119.867 34.1367C119.507 34.1367 119.177 34.0843 118.876 33.9795C118.575 33.8747 118.315 33.7129 118.097 33.4941C117.882 33.2754 117.716 32.9906 117.598 32.6396C117.479 32.2887 117.42 31.8695 117.42 31.3818V26.6035H119.067V31.3955C119.067 31.6644 119.099 31.89 119.163 32.0723C119.227 32.25 119.313 32.3936 119.423 32.5029C119.532 32.6123 119.66 32.6898 119.806 32.7354C119.951 32.7809 120.106 32.8037 120.271 32.8037C120.74 32.8037 121.109 32.7126 121.378 32.5303C121.651 32.3434 121.845 32.0928 121.959 31.7783C122.077 31.4639 122.137 31.1107 122.137 30.7188ZM128.608 34.1367C128.061 34.1367 127.566 34.0479 127.124 33.8701C126.687 33.6878 126.313 33.4349 126.003 33.1113C125.698 32.7878 125.463 32.4072 125.299 31.9697C125.135 31.5322 125.053 31.0605 125.053 30.5547V30.2812C125.053 29.7025 125.137 29.1784 125.306 28.709C125.475 28.2396 125.709 27.8385 126.01 27.5059C126.311 27.1686 126.666 26.9111 127.077 26.7334C127.487 26.5557 127.931 26.4668 128.41 26.4668C128.938 26.4668 129.401 26.5557 129.797 26.7334C130.194 26.9111 130.522 27.1618 130.782 27.4854C131.046 27.8044 131.242 28.1849 131.37 28.627C131.502 29.069 131.568 29.5566 131.568 30.0898V30.7939H125.853V29.6113H129.941V29.4814C129.932 29.1852 129.872 28.9072 129.763 28.6475C129.658 28.3877 129.496 28.1781 129.278 28.0186C129.059 27.859 128.767 27.7793 128.403 27.7793C128.129 27.7793 127.885 27.8385 127.671 27.957C127.462 28.071 127.286 28.2373 127.145 28.4561C127.004 28.6748 126.894 28.9391 126.817 29.249C126.744 29.5544 126.707 29.8984 126.707 30.2812V30.5547C126.707 30.8783 126.751 31.179 126.837 31.457C126.928 31.7305 127.061 31.9697 127.234 32.1748C127.407 32.3799 127.617 32.5417 127.863 32.6602C128.109 32.7741 128.389 32.8311 128.704 32.8311C129.1 32.8311 129.453 32.7513 129.763 32.5918C130.073 32.4323 130.342 32.2067 130.57 31.915L131.438 32.7559C131.278 32.9883 131.071 33.2116 130.816 33.4258C130.561 33.6354 130.248 33.8063 129.879 33.9385C129.515 34.0706 129.091 34.1367 128.608 34.1367ZM134.717 23.5V34H133.062V23.5H134.717ZM138.385 23.5V34H136.731V23.5H138.385ZM143.55 34.1367C143.004 34.1367 142.509 34.0479 142.067 33.8701C141.629 33.6878 141.256 33.4349 140.946 33.1113C140.641 32.7878 140.406 32.4072 140.242 31.9697C140.078 31.5322 139.996 31.0605 139.996 30.5547V30.2812C139.996 29.7025 140.08 29.1784 140.249 28.709C140.417 28.2396 140.652 27.8385 140.953 27.5059C141.254 27.1686 141.609 26.9111 142.019 26.7334C142.429 26.5557 142.874 26.4668 143.352 26.4668C143.881 26.4668 144.343 26.5557 144.74 26.7334C145.136 26.9111 145.464 27.1618 145.724 27.4854C145.989 27.8044 146.184 28.1849 146.312 28.627C146.444 29.069 146.51 29.5566 146.51 30.0898V30.7939H140.796V29.6113H144.883V29.4814C144.874 29.1852 144.815 28.9072 144.706 28.6475C144.601 28.3877 144.439 28.1781 144.22 28.0186C144.002 27.859 143.71 27.7793 143.345 27.7793C143.072 27.7793 142.828 27.8385 142.614 27.957C142.404 28.071 142.229 28.2373 142.087 28.4561C141.946 28.6748 141.837 28.9391 141.759 29.249C141.686 29.5544 141.65 29.8984 141.65 30.2812V30.5547C141.65 30.8783 141.693 31.179 141.78 31.457C141.871 31.7305 142.003 31.9697 142.176 32.1748C142.35 32.3799 142.559 32.5417 142.805 32.6602C143.051 32.7741 143.332 32.8311 143.646 32.8311C144.043 32.8311 144.396 32.7513 144.706 32.5918C145.016 32.4323 145.284 32.2067 145.512 31.915L146.38 32.7559C146.221 32.9883 146.014 33.2116 145.758 33.4258C145.503 33.6354 145.191 33.8063 144.822 33.9385C144.457 34.0706 144.033 34.1367 143.55 34.1367ZM25.3348 51.4365C25.3348 51.2314 25.3029 51.0492 25.2391 50.8896C25.1798 50.7301 25.0727 50.5843 24.9178 50.4521C24.7628 50.32 24.5441 50.1924 24.2615 50.0693C23.9835 49.9417 23.6281 49.8118 23.1951 49.6797C22.7212 49.5339 22.2837 49.3721 21.8826 49.1943C21.4861 49.012 21.1398 48.8024 20.8436 48.5654C20.5473 48.3239 20.3172 48.0482 20.1531 47.7383C19.9891 47.4238 19.907 47.0615 19.907 46.6514C19.907 46.2458 19.9913 45.8766 20.16 45.5439C20.3331 45.2113 20.577 44.9242 20.8914 44.6826C21.2104 44.4365 21.5864 44.2474 22.0193 44.1152C22.4523 43.9785 22.9308 43.9102 23.4549 43.9102C24.1932 43.9102 24.8289 44.0469 25.3621 44.3203C25.8999 44.5938 26.3123 44.9606 26.5994 45.4209C26.8911 45.8812 27.0369 46.3893 27.0369 46.9453H25.3348C25.3348 46.6172 25.2641 46.3278 25.1228 46.0771C24.9861 45.8219 24.7765 45.6214 24.4939 45.4756C24.2159 45.3298 23.8628 45.2568 23.4344 45.2568C23.0288 45.2568 22.6915 45.3184 22.4227 45.4414C22.1538 45.5645 21.9533 45.7308 21.8211 45.9404C21.6889 46.1501 21.6228 46.387 21.6228 46.6514C21.6228 46.8382 21.6661 47.0091 21.7527 47.1641C21.8393 47.3145 21.9715 47.4557 22.1492 47.5879C22.327 47.7155 22.5503 47.8363 22.8191 47.9502C23.088 48.0641 23.4047 48.1735 23.7693 48.2783C24.3208 48.4424 24.8016 48.6247 25.2117 48.8252C25.6219 49.0212 25.9637 49.2445 26.2371 49.4951C26.5105 49.7458 26.7156 50.0306 26.8523 50.3496C26.9891 50.6641 27.0574 51.0218 27.0574 51.4229C27.0574 51.8421 26.9731 52.2204 26.8045 52.5576C26.6359 52.8903 26.3943 53.1751 26.0799 53.4121C25.77 53.6445 25.3963 53.8245 24.9588 53.9521C24.5258 54.0752 24.0428 54.1367 23.5096 54.1367C23.0311 54.1367 22.5594 54.0729 22.0945 53.9453C21.6342 53.8177 21.215 53.624 20.8367 53.3643C20.4585 53.0999 20.1577 52.7718 19.9344 52.3799C19.7111 51.9834 19.5994 51.5208 19.5994 50.9922H21.3152C21.3152 51.3158 21.3699 51.5915 21.4793 51.8193C21.5932 52.0472 21.7505 52.234 21.951 52.3799C22.1515 52.5212 22.3839 52.626 22.6482 52.6943C22.9171 52.7627 23.2042 52.7969 23.5096 52.7969C23.9106 52.7969 24.2456 52.7399 24.5145 52.626C24.7879 52.512 24.993 52.3525 25.1297 52.1475C25.2664 51.9424 25.3348 51.7054 25.3348 51.4365ZM31.9016 46.6035V47.8066H27.7316V46.6035H31.9016ZM28.9348 44.792H30.5822V51.9561C30.5822 52.1839 30.6141 52.3594 30.6779 52.4824C30.7463 52.6009 30.8397 52.6807 30.9582 52.7217C31.0767 52.7627 31.2157 52.7832 31.3752 52.7832C31.4891 52.7832 31.5985 52.7764 31.7033 52.7627C31.8081 52.749 31.8924 52.7354 31.9562 52.7217L31.9631 53.9795C31.8264 54.0205 31.6669 54.057 31.4846 54.0889C31.3068 54.1208 31.1018 54.1367 30.8693 54.1367C30.4911 54.1367 30.1561 54.0706 29.8645 53.9385C29.5728 53.8018 29.3449 53.5807 29.1809 53.2754C29.0168 52.9701 28.9348 52.5645 28.9348 52.0586V44.792ZM37.443 52.5166V48.9893C37.443 48.7249 37.3951 48.4971 37.2994 48.3057C37.2037 48.1143 37.0579 47.9661 36.8619 47.8613C36.6705 47.7565 36.429 47.7041 36.1373 47.7041C35.8684 47.7041 35.636 47.7497 35.44 47.8408C35.2441 47.932 35.0914 48.055 34.982 48.21C34.8727 48.3649 34.818 48.5404 34.818 48.7363H33.1773C33.1773 48.4447 33.248 48.1621 33.3893 47.8887C33.5305 47.6152 33.7356 47.3714 34.0045 47.1572C34.2734 46.943 34.5947 46.7744 34.9684 46.6514C35.3421 46.5283 35.7613 46.4668 36.2262 46.4668C36.7822 46.4668 37.2743 46.5602 37.7027 46.7471C38.1357 46.9339 38.4752 47.2165 38.7213 47.5947C38.9719 47.9684 39.0973 48.4378 39.0973 49.0029V52.291C39.0973 52.6283 39.12 52.9313 39.1656 53.2002C39.2158 53.4645 39.2864 53.6947 39.3775 53.8906V54H37.6891C37.6116 53.8223 37.5501 53.5967 37.5045 53.3232C37.4635 53.0452 37.443 52.7764 37.443 52.5166ZM37.6822 49.502L37.6959 50.5205H36.5133C36.2079 50.5205 35.9391 50.5501 35.7066 50.6094C35.4742 50.6641 35.2805 50.7461 35.1256 50.8555C34.9706 50.9648 34.8544 51.097 34.777 51.252C34.6995 51.4069 34.6607 51.5824 34.6607 51.7783C34.6607 51.9743 34.7063 52.1543 34.7975 52.3184C34.8886 52.4779 35.0208 52.6032 35.1939 52.6943C35.3717 52.7855 35.5859 52.8311 35.8365 52.8311C36.1738 52.8311 36.4677 52.7627 36.7184 52.626C36.9736 52.4847 37.1741 52.3138 37.3199 52.1133C37.4658 51.9082 37.5432 51.7145 37.5523 51.5322L38.0855 52.2637C38.0309 52.4505 37.9374 52.651 37.8053 52.8652C37.6731 53.0794 37.4999 53.2845 37.2857 53.4805C37.0761 53.6719 36.8232 53.8291 36.527 53.9521C36.2353 54.0752 35.898 54.1367 35.5152 54.1367C35.0322 54.1367 34.6015 54.041 34.2232 53.8496C33.845 53.6536 33.5488 53.3916 33.3346 53.0635C33.1204 52.7308 33.0133 52.3548 33.0133 51.9355C33.0133 51.5436 33.0862 51.1973 33.232 50.8965C33.3824 50.5911 33.6012 50.3359 33.8883 50.1309C34.1799 49.9258 34.5354 49.7708 34.9547 49.666C35.374 49.5566 35.8525 49.502 36.3902 49.502H37.6822ZM42.5537 48.1826V54H40.9062V46.6035H42.458L42.5537 48.1826ZM42.2598 50.0283L41.7266 50.0215C41.7311 49.4974 41.804 49.0166 41.9453 48.5791C42.0911 48.1416 42.2917 47.7656 42.5469 47.4512C42.8066 47.1367 43.1165 46.8952 43.4766 46.7266C43.8366 46.5534 44.2376 46.4668 44.6797 46.4668C45.0352 46.4668 45.3564 46.5169 45.6436 46.6172C45.9352 46.7129 46.1836 46.8701 46.3887 47.0889C46.5983 47.3076 46.7578 47.5924 46.8672 47.9434C46.9766 48.2897 47.0312 48.7158 47.0312 49.2217V54H45.3769V49.2148C45.3769 48.8594 45.3245 48.5791 45.2197 48.374C45.1195 48.1644 44.9714 48.0163 44.7754 47.9297C44.584 47.8385 44.3447 47.793 44.0576 47.793C43.7751 47.793 43.5221 47.8522 43.2988 47.9707C43.0755 48.0892 42.8864 48.251 42.7314 48.4561C42.5811 48.6611 42.4648 48.8981 42.3828 49.167C42.3008 49.4359 42.2598 49.723 42.2598 50.0283ZM53.3246 52.4688V43.5H54.9789V54H53.4818L53.3246 52.4688ZM48.5121 50.3838V50.2402C48.5121 49.6797 48.5782 49.1693 48.7104 48.709C48.8425 48.2441 49.0339 47.8454 49.2846 47.5127C49.5352 47.1755 49.8406 46.918 50.2006 46.7402C50.5606 46.5579 50.9662 46.4668 51.4174 46.4668C51.864 46.4668 52.2559 46.5534 52.5932 46.7266C52.9304 46.8997 53.2175 47.1481 53.4545 47.4717C53.6915 47.7907 53.8806 48.1735 54.0219 48.6201C54.1631 49.0622 54.2634 49.5544 54.3227 50.0967V50.5547C54.2634 51.0833 54.1631 51.5664 54.0219 52.0039C53.8806 52.4414 53.6915 52.8197 53.4545 53.1387C53.2175 53.4577 52.9281 53.7038 52.5863 53.877C52.2491 54.0501 51.8549 54.1367 51.4037 54.1367C50.9571 54.1367 50.5538 54.0433 50.1937 53.8564C49.8383 53.6696 49.5352 53.4076 49.2846 53.0703C49.0339 52.7331 48.8425 52.3366 48.7104 51.8809C48.5782 51.4206 48.5121 50.9215 48.5121 50.3838ZM50.1596 50.2402V50.3838C50.1596 50.721 50.1892 51.0355 50.2484 51.3271C50.3122 51.6188 50.4102 51.8763 50.5424 52.0996C50.6745 52.3184 50.8454 52.4915 51.0551 52.6191C51.2693 52.7422 51.5245 52.8037 51.8207 52.8037C52.1944 52.8037 52.502 52.7217 52.7436 52.5576C52.9851 52.3936 53.1742 52.1725 53.3109 51.8945C53.4522 51.612 53.5479 51.2975 53.598 50.9512V49.7139C53.5707 49.445 53.5137 49.1943 53.4271 48.9619C53.3451 48.7295 53.2335 48.5267 53.0922 48.3535C52.9509 48.1758 52.7755 48.0391 52.5658 47.9434C52.3607 47.8431 52.1169 47.793 51.8344 47.793C51.5336 47.793 51.2784 47.8568 51.0687 47.9844C50.8591 48.112 50.6859 48.2874 50.5492 48.5107C50.4171 48.734 50.3191 48.9938 50.2553 49.29C50.1915 49.5863 50.1596 49.903 50.1596 50.2402ZM64.8996 52.4688V43.5H66.5539V54H65.0568L64.8996 52.4688ZM60.0871 50.3838V50.2402C60.0871 49.6797 60.1532 49.1693 60.2853 48.709C60.4175 48.2441 60.6089 47.8454 60.8596 47.5127C61.1102 47.1755 61.4156 46.918 61.7756 46.7402C62.1356 46.5579 62.5412 46.4668 62.9924 46.4668C63.439 46.4668 63.8309 46.5534 64.1682 46.7266C64.5054 46.8997 64.7925 47.1481 65.0295 47.4717C65.2665 47.7907 65.4556 48.1735 65.5969 48.6201C65.7381 49.0622 65.8384 49.5544 65.8977 50.0967V50.5547C65.8384 51.0833 65.7381 51.5664 65.5969 52.0039C65.4556 52.4414 65.2665 52.8197 65.0295 53.1387C64.7925 53.4577 64.5031 53.7038 64.1613 53.877C63.8241 54.0501 63.4299 54.1367 62.9787 54.1367C62.5321 54.1367 62.1288 54.0433 61.7687 53.8564C61.4133 53.6696 61.1102 53.4076 60.8596 53.0703C60.6089 52.7331 60.4175 52.3366 60.2853 51.8809C60.1532 51.4206 60.0871 50.9215 60.0871 50.3838ZM61.7346 50.2402V50.3838C61.7346 50.721 61.7642 51.0355 61.8234 51.3271C61.8872 51.6188 61.9852 51.8763 62.1174 52.0996C62.2495 52.3184 62.4204 52.4915 62.6301 52.6191C62.8443 52.7422 63.0995 52.8037 63.3957 52.8037C63.7694 52.8037 64.077 52.7217 64.3186 52.5576C64.5601 52.3936 64.7492 52.1725 64.8859 51.8945C65.0272 51.612 65.1229 51.2975 65.173 50.9512V49.7139C65.1457 49.445 65.0887 49.1943 65.0021 48.9619C64.9201 48.7295 64.8085 48.5267 64.6672 48.3535C64.5259 48.1758 64.3505 48.0391 64.1408 47.9434C63.9357 47.8431 63.6919 47.793 63.4094 47.793C63.1086 47.793 62.8534 47.8568 62.6437 47.9844C62.4341 48.112 62.2609 48.2874 62.1242 48.5107C61.9921 48.734 61.8941 48.9938 61.8303 49.29C61.7665 49.5863 61.7346 49.903 61.7346 50.2402ZM71.6373 54.1367C71.0904 54.1367 70.596 54.0479 70.1539 53.8701C69.7164 53.6878 69.3427 53.4349 69.0328 53.1113C68.7275 52.7878 68.4928 52.4072 68.3287 51.9697C68.1646 51.5322 68.0826 51.0605 68.0826 50.5547V50.2812C68.0826 49.7025 68.1669 49.1784 68.3355 48.709C68.5042 48.2396 68.7389 47.8385 69.0396 47.5059C69.3404 47.1686 69.6959 46.9111 70.1061 46.7334C70.5162 46.5557 70.9605 46.4668 71.4391 46.4668C71.9677 46.4668 72.4303 46.5557 72.8268 46.7334C73.2232 46.9111 73.5514 47.1618 73.8111 47.4854C74.0755 47.8044 74.2714 48.1849 74.399 48.627C74.5312 49.069 74.5973 49.5566 74.5973 50.0898V50.7939H68.8824V49.6113H72.9703V49.4814C72.9612 49.1852 72.902 48.9072 72.7926 48.6475C72.6878 48.3877 72.526 48.1781 72.3072 48.0186C72.0885 47.859 71.7968 47.7793 71.4322 47.7793C71.1588 47.7793 70.915 47.8385 70.7008 47.957C70.4911 48.071 70.3157 48.2373 70.1744 48.4561C70.0331 48.6748 69.9238 48.9391 69.8463 49.249C69.7734 49.5544 69.7369 49.8984 69.7369 50.2812V50.5547C69.7369 50.8783 69.7802 51.179 69.8668 51.457C69.9579 51.7305 70.0901 51.9697 70.2633 52.1748C70.4365 52.3799 70.6461 52.5417 70.8922 52.6602C71.1383 52.7741 71.4186 52.8311 71.733 52.8311C72.1295 52.8311 72.4827 52.7513 72.7926 52.5918C73.1025 52.4323 73.3714 52.2067 73.5992 51.915L74.4674 52.7559C74.3079 52.9883 74.1005 53.2116 73.8453 53.4258C73.5901 53.6354 73.2779 53.8063 72.9088 53.9385C72.5442 54.0706 72.1204 54.1367 71.6373 54.1367ZM77.6367 48.0117V54H75.9893V46.6035H77.5615L77.6367 48.0117ZM79.8994 46.5557L79.8857 48.0869C79.7855 48.0687 79.6761 48.055 79.5576 48.0459C79.4437 48.0368 79.3298 48.0322 79.2158 48.0322C78.9333 48.0322 78.6849 48.0732 78.4707 48.1553C78.2565 48.2327 78.0765 48.3467 77.9307 48.4971C77.7894 48.6429 77.68 48.8206 77.6025 49.0303C77.5251 49.2399 77.4795 49.4746 77.4658 49.7344L77.0898 49.7617C77.0898 49.2969 77.1354 48.8662 77.2266 48.4697C77.3177 48.0732 77.4544 47.7246 77.6367 47.4238C77.8236 47.123 78.056 46.8883 78.334 46.7197C78.6165 46.5511 78.9424 46.4668 79.3115 46.4668C79.4118 46.4668 79.5189 46.4759 79.6328 46.4941C79.7513 46.5124 79.8402 46.5329 79.8994 46.5557ZM85.4793 44.0469H87.0105L89.8885 51.7236L92.7596 44.0469H94.2908L90.49 54H89.2732L85.4793 44.0469ZM84.782 44.0469H86.2381L86.491 50.6914V54H84.782V44.0469ZM93.532 44.0469H94.9949V54H93.2791V50.6914L93.532 44.0469ZM98.7316 46.6035V54H97.0773V46.6035H98.7316ZM96.968 44.6621C96.968 44.4115 97.05 44.2041 97.2141 44.04C97.3827 43.8714 97.6151 43.7871 97.9113 43.7871C98.203 43.7871 98.4331 43.8714 98.6018 44.04C98.7704 44.2041 98.8547 44.4115 98.8547 44.6621C98.8547 44.9082 98.7704 45.1133 98.6018 45.2773C98.4331 45.4414 98.203 45.5234 97.9113 45.5234C97.6151 45.5234 97.3827 45.4414 97.2141 45.2773C97.05 45.1133 96.968 44.9082 96.968 44.6621ZM104.027 46.6035V47.8066H99.857V46.6035H104.027ZM101.06 44.792H102.708V51.9561C102.708 52.1839 102.74 52.3594 102.803 52.4824C102.872 52.6009 102.965 52.6807 103.084 52.7217C103.202 52.7627 103.341 52.7832 103.501 52.7832C103.615 52.7832 103.724 52.7764 103.829 52.7627C103.934 52.749 104.018 52.7354 104.082 52.7217L104.088 53.9795C103.952 54.0205 103.792 54.057 103.61 54.0889C103.432 54.1208 103.227 54.1367 102.995 54.1367C102.616 54.1367 102.282 54.0706 101.99 53.9385C101.698 53.8018 101.47 53.5807 101.306 53.2754C101.142 52.9701 101.06 52.5645 101.06 52.0586V44.792ZM109.568 52.5166V48.9893C109.568 48.7249 109.521 48.4971 109.425 48.3057C109.329 48.1143 109.183 47.9661 108.987 47.8613C108.796 47.7565 108.554 47.7041 108.263 47.7041C107.994 47.7041 107.761 47.7497 107.565 47.8408C107.369 47.932 107.217 48.055 107.107 48.21C106.998 48.3649 106.943 48.5404 106.943 48.7363H105.303C105.303 48.4447 105.373 48.1621 105.515 47.8887C105.656 47.6152 105.861 47.3714 106.13 47.1572C106.399 46.943 106.72 46.7744 107.094 46.6514C107.467 46.5283 107.887 46.4668 108.352 46.4668C108.908 46.4668 109.4 46.5602 109.828 46.7471C110.261 46.9339 110.601 47.2165 110.847 47.5947C111.097 47.9684 111.223 48.4378 111.223 49.0029V52.291C111.223 52.6283 111.245 52.9313 111.291 53.2002C111.341 53.4645 111.412 53.6947 111.503 53.8906V54H109.814C109.737 53.8223 109.675 53.5967 109.63 53.3232C109.589 53.0452 109.568 52.7764 109.568 52.5166ZM109.808 49.502L109.821 50.5205H108.639C108.333 50.5205 108.064 50.5501 107.832 50.6094C107.6 50.6641 107.406 50.7461 107.251 50.8555C107.096 50.9648 106.98 51.097 106.902 51.252C106.825 51.4069 106.786 51.5824 106.786 51.7783C106.786 51.9743 106.832 52.1543 106.923 52.3184C107.014 52.4779 107.146 52.6032 107.319 52.6943C107.497 52.7855 107.711 52.8311 107.962 52.8311C108.299 52.8311 108.593 52.7627 108.844 52.626C109.099 52.4847 109.299 52.3138 109.445 52.1133C109.591 51.9082 109.669 51.7145 109.678 51.5322L110.211 52.2637C110.156 52.4505 110.063 52.651 109.931 52.8652C109.799 53.0794 109.625 53.2845 109.411 53.4805C109.201 53.6719 108.949 53.8291 108.652 53.9521C108.361 54.0752 108.023 54.1367 107.641 54.1367C107.158 54.1367 106.727 54.041 106.349 53.8496C105.97 53.6536 105.674 53.3916 105.46 53.0635C105.246 52.7308 105.139 52.3548 105.139 51.9355C105.139 51.5436 105.212 51.1973 105.357 50.8965C105.508 50.5911 105.727 50.3359 106.014 50.1309C106.305 49.9258 106.661 49.7708 107.08 49.666C107.499 49.5566 107.978 49.502 108.516 49.502H109.808ZM114.7 48.0117V54H113.052V46.6035H114.624L114.7 48.0117ZM116.962 46.5557L116.949 48.0869C116.848 48.0687 116.739 48.055 116.621 48.0459C116.507 48.0368 116.393 48.0322 116.279 48.0322C115.996 48.0322 115.748 48.0732 115.534 48.1553C115.319 48.2327 115.139 48.3467 114.994 48.4971C114.852 48.6429 114.743 48.8206 114.665 49.0303C114.588 49.2399 114.542 49.4746 114.529 49.7344L114.153 49.7617C114.153 49.2969 114.198 48.8662 114.289 48.4697C114.381 48.0732 114.517 47.7246 114.7 47.4238C114.886 47.123 115.119 46.8883 115.397 46.7197C115.679 46.5511 116.005 46.4668 116.374 46.4668C116.475 46.4668 116.582 46.4759 116.696 46.4941C116.814 46.5124 116.903 46.5329 116.962 46.5557ZM118.101 43.5H119.749V52.4209L119.592 54H118.101V43.5ZM124.575 50.2334V50.377C124.575 50.9238 124.513 51.4274 124.39 51.8877C124.272 52.3434 124.09 52.7399 123.844 53.0771C123.602 53.4144 123.301 53.6764 122.941 53.8633C122.586 54.0456 122.173 54.1367 121.704 54.1367C121.244 54.1367 120.843 54.0501 120.501 53.877C120.159 53.7038 119.872 53.4577 119.639 53.1387C119.412 52.8197 119.227 52.4391 119.086 51.9971C118.944 51.555 118.844 51.0674 118.785 50.5342V50.0762C118.844 49.5384 118.944 49.0508 119.086 48.6133C119.227 48.1712 119.412 47.7907 119.639 47.4717C119.872 47.1481 120.157 46.8997 120.494 46.7266C120.836 46.5534 121.235 46.4668 121.69 46.4668C122.164 46.4668 122.581 46.5579 122.941 46.7402C123.306 46.9225 123.609 47.1823 123.85 47.5195C124.092 47.8522 124.272 48.2487 124.39 48.709C124.513 49.1693 124.575 49.6774 124.575 50.2334ZM122.928 50.377V50.2334C122.928 49.9007 122.9 49.5885 122.846 49.2969C122.791 49.0007 122.7 48.7409 122.572 48.5176C122.449 48.2943 122.28 48.1188 122.066 47.9912C121.857 47.859 121.595 47.793 121.28 47.793C120.988 47.793 120.738 47.8431 120.528 47.9434C120.318 48.0436 120.143 48.1803 120.002 48.3535C119.86 48.5267 119.749 48.7272 119.667 48.9551C119.589 49.1829 119.537 49.429 119.51 49.6934V50.9307C119.551 51.2725 119.637 51.5869 119.769 51.874C119.906 52.1566 120.097 52.3844 120.344 52.5576C120.59 52.7262 120.906 52.8105 121.294 52.8105C121.599 52.8105 121.857 52.749 122.066 52.626C122.276 52.5029 122.442 52.332 122.565 52.1133C122.693 51.89 122.784 51.6302 122.839 51.334C122.898 51.0378 122.928 50.7188 122.928 50.377ZM129.33 54.1367C128.783 54.1367 128.289 54.0479 127.847 53.8701C127.409 53.6878 127.036 53.4349 126.726 53.1113C126.42 52.7878 126.186 52.4072 126.022 51.9697C125.858 51.5322 125.776 51.0605 125.776 50.5547V50.2812C125.776 49.7025 125.86 49.1784 126.029 48.709C126.197 48.2396 126.432 47.8385 126.733 47.5059C127.033 47.1686 127.389 46.9111 127.799 46.7334C128.209 46.5557 128.654 46.4668 129.132 46.4668C129.661 46.4668 130.123 46.5557 130.52 46.7334C130.916 46.9111 131.244 47.1618 131.504 47.4854C131.768 47.8044 131.964 48.1849 132.092 48.627C132.224 49.069 132.29 49.5566 132.29 50.0898V50.7939H126.575V49.6113H130.663V49.4814C130.654 49.1852 130.595 48.9072 130.486 48.6475C130.381 48.3877 130.219 48.1781 130 48.0186C129.781 47.859 129.49 47.7793 129.125 47.7793C128.852 47.7793 128.608 47.8385 128.394 47.957C128.184 48.071 128.009 48.2373 127.867 48.4561C127.726 48.6748 127.617 48.9391 127.539 49.249C127.466 49.5544 127.43 49.8984 127.43 50.2812V50.5547C127.43 50.8783 127.473 51.179 127.56 51.457C127.651 51.7305 127.783 51.9697 127.956 52.1748C128.129 52.3799 128.339 52.5417 128.585 52.6602C128.831 52.7741 129.112 52.8311 129.426 52.8311C129.822 52.8311 130.176 52.7513 130.486 52.5918C130.795 52.4323 131.064 52.2067 131.292 51.915L132.16 52.7559C132.001 52.9883 131.793 53.2116 131.538 53.4258C131.283 53.6354 130.971 53.8063 130.602 53.9385C130.237 54.0706 129.813 54.1367 129.33 54.1367ZM135.439 46.6035V54H133.785V46.6035H135.439ZM133.675 44.6621C133.675 44.4115 133.757 44.2041 133.921 44.04C134.09 43.8714 134.323 43.7871 134.619 43.7871C134.91 43.7871 135.141 43.8714 135.309 44.04C135.478 44.2041 135.562 44.4115 135.562 44.6621C135.562 44.9082 135.478 45.1133 135.309 45.2773C135.141 45.4414 134.91 45.5234 134.619 45.5234C134.323 45.5234 134.09 45.4414 133.921 45.2773C133.757 45.1133 133.675 44.9082 133.675 44.6621ZM140.734 46.6035V47.8066H136.564V46.6035H140.734ZM137.768 44.792H139.415V51.9561C139.415 52.1839 139.447 52.3594 139.511 52.4824C139.579 52.6009 139.673 52.6807 139.791 52.7217C139.91 52.7627 140.049 52.7832 140.208 52.7832C140.322 52.7832 140.431 52.7764 140.536 52.7627C140.641 52.749 140.725 52.7354 140.789 52.7217L140.796 53.9795C140.659 54.0205 140.5 54.057 140.317 54.0889C140.14 54.1208 139.935 54.1367 139.702 54.1367C139.324 54.1367 138.989 54.0706 138.697 53.9385C138.406 53.8018 138.178 53.5807 138.014 53.2754C137.85 52.9701 137.768 52.5645 137.768 52.0586V44.792ZM145.367 54.1367C144.82 54.1367 144.325 54.0479 143.883 53.8701C143.446 53.6878 143.072 53.4349 142.762 53.1113C142.457 52.7878 142.222 52.4072 142.058 51.9697C141.894 51.5322 141.812 51.0605 141.812 50.5547V50.2812C141.812 49.7025 141.896 49.1784 142.065 48.709C142.233 48.2396 142.468 47.8385 142.769 47.5059C143.07 47.1686 143.425 46.9111 143.835 46.7334C144.246 46.5557 144.69 46.4668 145.168 46.4668C145.697 46.4668 146.16 46.5557 146.556 46.7334C146.953 46.9111 147.281 47.1618 147.54 47.4854C147.805 47.8044 148.001 48.1849 148.128 48.627C148.26 49.069 148.327 49.5566 148.327 50.0898V50.7939H142.612V49.6113H146.7V49.4814C146.691 49.1852 146.631 48.9072 146.522 48.6475C146.417 48.3877 146.255 48.1781 146.037 48.0186C145.818 47.859 145.526 47.7793 145.162 47.7793C144.888 47.7793 144.644 47.8385 144.43 47.957C144.22 48.071 144.045 48.2373 143.904 48.4561C143.762 48.6748 143.653 48.9391 143.576 49.249C143.503 49.5544 143.466 49.8984 143.466 50.2812V50.5547C143.466 50.8783 143.51 51.179 143.596 51.457C143.687 51.7305 143.819 51.9697 143.993 52.1748C144.166 52.3799 144.375 52.5417 144.621 52.6602C144.868 52.7741 145.148 52.8311 145.462 52.8311C145.859 52.8311 146.212 52.7513 146.522 52.5918C146.832 52.4323 147.101 52.2067 147.329 51.915L148.197 52.7559C148.037 52.9883 147.83 53.2116 147.575 53.4258C147.319 53.6354 147.007 53.8063 146.638 53.9385C146.274 54.0706 145.85 54.1367 145.367 54.1367ZM151.366 48.0117V54H149.719V46.6035H151.291L151.366 48.0117ZM153.629 46.5557L153.615 48.0869C153.515 48.0687 153.405 48.055 153.287 48.0459C153.173 48.0368 153.059 48.0322 152.945 48.0322C152.663 48.0322 152.414 48.0732 152.2 48.1553C151.986 48.2327 151.806 48.3467 151.66 48.4971C151.519 48.6429 151.409 48.8206 151.332 49.0303C151.254 49.2399 151.209 49.4746 151.195 49.7344L150.819 49.7617C150.819 49.2969 150.865 48.8662 150.956 48.4697C151.047 48.0732 151.184 47.7246 151.366 47.4238C151.553 47.123 151.785 46.8883 152.063 46.7197C152.346 46.5511 152.672 46.4668 153.041 46.4668C153.141 46.4668 153.248 46.4759 153.362 46.4941C153.481 46.5124 153.569 46.5329 153.629 46.5557ZM32.8334 72.2568V66.6035H34.4877V74H32.9291L32.8334 72.2568ZM33.0658 70.7188L33.6195 70.7051C33.6195 71.2018 33.5648 71.6598 33.4555 72.0791C33.3461 72.4938 33.1775 72.8561 32.9496 73.166C32.7217 73.4714 32.4301 73.7106 32.0746 73.8838C31.7191 74.0524 31.293 74.1367 30.7963 74.1367C30.4363 74.1367 30.1059 74.0843 29.8051 73.9795C29.5043 73.8747 29.2445 73.7129 29.0258 73.4941C28.8116 73.2754 28.6452 72.9906 28.5268 72.6396C28.4083 72.2887 28.349 71.8695 28.349 71.3818V66.6035H29.9965V71.3955C29.9965 71.6644 30.0284 71.89 30.0922 72.0723C30.156 72.25 30.2426 72.3936 30.352 72.5029C30.4613 72.6123 30.5889 72.6898 30.7348 72.7354C30.8806 72.7809 31.0355 72.8037 31.1996 72.8037C31.669 72.8037 32.0381 72.7126 32.307 72.5303C32.5805 72.3434 32.7742 72.0928 32.8881 71.7783C33.0066 71.4639 33.0658 71.1107 33.0658 70.7188ZM37.91 68.1826V74H36.2625V66.6035H37.8143L37.91 68.1826ZM37.616 70.0283L37.0828 70.0215C37.0874 69.4974 37.1603 69.0166 37.3016 68.5791C37.4474 68.1416 37.6479 67.7656 37.9031 67.4512C38.1629 67.1367 38.4728 66.8952 38.8328 66.7266C39.1928 66.5534 39.5939 66.4668 40.0359 66.4668C40.3914 66.4668 40.7127 66.5169 40.9998 66.6172C41.2915 66.7129 41.5398 66.8701 41.7449 67.0889C41.9546 67.3076 42.1141 67.5924 42.2234 67.9434C42.3328 68.2897 42.3875 68.7158 42.3875 69.2217V74H40.7332V69.2148C40.7332 68.8594 40.6808 68.5791 40.576 68.374C40.4757 68.1644 40.3276 68.0163 40.1316 67.9297C39.9402 67.8385 39.701 67.793 39.4139 67.793C39.1313 67.793 38.8784 67.8522 38.6551 67.9707C38.4318 68.0892 38.2426 68.251 38.0877 68.4561C37.9373 68.6611 37.8211 68.8981 37.7391 69.167C37.657 69.4359 37.616 69.723 37.616 70.0283ZM48.6809 72.4688V63.5H50.3352V74H48.8381L48.6809 72.4688ZM43.8684 70.3838V70.2402C43.8684 69.6797 43.9344 69.1693 44.0666 68.709C44.1988 68.2441 44.3902 67.8454 44.6408 67.5127C44.8915 67.1755 45.1968 66.918 45.5568 66.7402C45.9169 66.5579 46.3225 66.4668 46.7736 66.4668C47.2202 66.4668 47.6122 66.5534 47.9494 66.7266C48.2867 66.8997 48.5738 67.1481 48.8107 67.4717C49.0477 67.7907 49.2368 68.1735 49.3781 68.6201C49.5194 69.0622 49.6197 69.5544 49.6789 70.0967V70.5547C49.6197 71.0833 49.5194 71.5664 49.3781 72.0039C49.2368 72.4414 49.0477 72.8197 48.8107 73.1387C48.5738 73.4577 48.2844 73.7038 47.9426 73.877C47.6053 74.0501 47.2111 74.1367 46.76 74.1367C46.3133 74.1367 45.91 74.0433 45.55 73.8564C45.1945 73.6696 44.8915 73.4076 44.6408 73.0703C44.3902 72.7331 44.1988 72.3366 44.0666 71.8809C43.9344 71.4206 43.8684 70.9215 43.8684 70.3838ZM45.5158 70.2402V70.3838C45.5158 70.721 45.5454 71.0355 45.6047 71.3271C45.6685 71.6188 45.7665 71.8763 45.8986 72.0996C46.0308 72.3184 46.2017 72.4915 46.4113 72.6191C46.6255 72.7422 46.8807 72.8037 47.177 72.8037C47.5507 72.8037 47.8583 72.7217 48.0998 72.5576C48.3413 72.3936 48.5305 72.1725 48.6672 71.8945C48.8085 71.612 48.9042 71.2975 48.9543 70.9512V69.7139C48.927 69.445 48.87 69.1943 48.7834 68.9619C48.7014 68.7295 48.5897 68.5267 48.4484 68.3535C48.3072 68.1758 48.1317 68.0391 47.9221 67.9434C47.717 67.8431 47.4732 67.793 47.1906 67.793C46.8898 67.793 46.6346 67.8568 46.425 67.9844C46.2154 68.112 46.0422 68.2874 45.9055 68.5107C45.7733 68.734 45.6753 68.9938 45.6115 69.29C45.5477 69.5863 45.5158 69.903 45.5158 70.2402ZM60.2559 72.4688V63.5H61.9102V74H60.4131L60.2559 72.4688ZM55.4434 70.3838V70.2402C55.4434 69.6797 55.5094 69.1693 55.6416 68.709C55.7738 68.2441 55.9652 67.8454 56.2158 67.5127C56.4665 67.1755 56.7718 66.918 57.1318 66.7402C57.4919 66.5579 57.8975 66.4668 58.3486 66.4668C58.7952 66.4668 59.1872 66.5534 59.5244 66.7266C59.8617 66.8997 60.1488 67.1481 60.3857 67.4717C60.6227 67.7907 60.8118 68.1735 60.9531 68.6201C61.0944 69.0622 61.1947 69.5544 61.2539 70.0967V70.5547C61.1947 71.0833 61.0944 71.5664 60.9531 72.0039C60.8118 72.4414 60.6227 72.8197 60.3857 73.1387C60.1488 73.4577 59.8594 73.7038 59.5176 73.877C59.1803 74.0501 58.7861 74.1367 58.335 74.1367C57.8883 74.1367 57.485 74.0433 57.125 73.8564C56.7695 73.6696 56.4665 73.4076 56.2158 73.0703C55.9652 72.7331 55.7738 72.3366 55.6416 71.8809C55.5094 71.4206 55.4434 70.9215 55.4434 70.3838ZM57.0908 70.2402V70.3838C57.0908 70.721 57.1204 71.0355 57.1797 71.3271C57.2435 71.6188 57.3415 71.8763 57.4736 72.0996C57.6058 72.3184 57.7767 72.4915 57.9863 72.6191C58.2005 72.7422 58.4557 72.8037 58.752 72.8037C59.1257 72.8037 59.4333 72.7217 59.6748 72.5576C59.9163 72.3936 60.1055 72.1725 60.2422 71.8945C60.3835 71.612 60.4792 71.2975 60.5293 70.9512V69.7139C60.502 69.445 60.445 69.1943 60.3584 68.9619C60.2764 68.7295 60.1647 68.5267 60.0234 68.3535C59.8822 68.1758 59.7067 68.0391 59.4971 67.9434C59.292 67.8431 59.0482 67.793 58.7656 67.793C58.4648 67.793 58.2096 67.8568 58 67.9844C57.7904 68.112 57.6172 68.2874 57.4805 68.5107C57.3483 68.734 57.2503 68.9938 57.1865 69.29C57.1227 69.5863 57.0908 69.903 57.0908 70.2402ZM65.4965 66.6035V74H63.8422V66.6035H65.4965ZM63.7328 64.6621C63.7328 64.4115 63.8148 64.2041 63.9789 64.04C64.1475 63.8714 64.3799 63.7871 64.6762 63.7871C64.9678 63.7871 65.198 63.8714 65.3666 64.04C65.5352 64.2041 65.6195 64.4115 65.6195 64.6621C65.6195 64.9082 65.5352 65.1133 65.3666 65.2773C65.198 65.4414 64.9678 65.5234 64.6762 65.5234C64.3799 65.5234 64.1475 65.4414 63.9789 65.2773C63.8148 65.1133 63.7328 64.9082 63.7328 64.6621ZM70.6619 74.1367C70.115 74.1367 69.6206 74.0479 69.1785 73.8701C68.741 73.6878 68.3673 73.4349 68.0574 73.1113C67.7521 72.7878 67.5174 72.4072 67.3533 71.9697C67.1893 71.5322 67.1072 71.0605 67.1072 70.5547V70.2812C67.1072 69.7025 67.1915 69.1784 67.3602 68.709C67.5288 68.2396 67.7635 67.8385 68.0643 67.5059C68.365 67.1686 68.7205 66.9111 69.1307 66.7334C69.5408 66.5557 69.9852 66.4668 70.4637 66.4668C70.9923 66.4668 71.4549 66.5557 71.8514 66.7334C72.2478 66.9111 72.576 67.1618 72.8357 67.4854C73.1001 67.8044 73.296 68.1849 73.4236 68.627C73.5558 69.069 73.6219 69.5566 73.6219 70.0898V70.7939H67.907V69.6113H71.9949V69.4814C71.9858 69.1852 71.9266 68.9072 71.8172 68.6475C71.7124 68.3877 71.5506 68.1781 71.3318 68.0186C71.1131 67.859 70.8214 67.7793 70.4568 67.7793C70.1834 67.7793 69.9396 67.8385 69.7254 67.957C69.5158 68.071 69.3403 68.2373 69.199 68.4561C69.0577 68.6748 68.9484 68.9391 68.8709 69.249C68.798 69.5544 68.7615 69.8984 68.7615 70.2812V70.5547C68.7615 70.8783 68.8048 71.179 68.8914 71.457C68.9825 71.7305 69.1147 71.9697 69.2879 72.1748C69.4611 72.3799 69.6707 72.5417 69.9168 72.6602C70.1629 72.7741 70.4432 72.8311 70.7576 72.8311C71.1541 72.8311 71.5073 72.7513 71.8172 72.5918C72.1271 72.4323 72.396 72.2067 72.6238 71.915L73.492 72.7559C73.3325 72.9883 73.1251 73.2116 72.8699 73.4258C72.6147 73.6354 72.3025 73.8063 71.9334 73.9385C71.5688 74.0706 71.145 74.1367 70.6619 74.1367ZM82.6334 65.373L79.6598 74H77.8619L81.608 64.0469H82.7564L82.6334 65.373ZM85.1217 74L82.1412 65.373L82.0113 64.0469H83.1666L86.9264 74H85.1217ZM84.9781 70.3086V71.6689H79.5641V70.3086H84.9781ZM89.4873 68.1826V74H87.8398V66.6035H89.3916L89.4873 68.1826ZM89.1934 70.0283L88.6602 70.0215C88.6647 69.4974 88.7376 69.0166 88.8789 68.5791C89.0247 68.1416 89.2253 67.7656 89.4805 67.4512C89.7402 67.1367 90.0501 66.8952 90.4102 66.7266C90.7702 66.5534 91.1712 66.4668 91.6133 66.4668C91.9688 66.4668 92.29 66.5169 92.5771 66.6172C92.8688 66.7129 93.1172 66.8701 93.3223 67.0889C93.5319 67.3076 93.6914 67.5924 93.8008 67.9434C93.9102 68.2897 93.9648 68.7158 93.9648 69.2217V74H92.3105V69.2148C92.3105 68.8594 92.2581 68.5791 92.1533 68.374C92.0531 68.1644 91.9049 68.0163 91.709 67.9297C91.5176 67.8385 91.2783 67.793 90.9912 67.793C90.7087 67.793 90.4557 67.8522 90.2324 67.9707C90.0091 68.0892 89.82 68.251 89.665 68.4561C89.5146 68.6611 89.3984 68.8981 89.3164 69.167C89.2344 69.4359 89.1934 69.723 89.1934 70.0283ZM101.468 72.6875V74H95.9584V72.6875H101.468ZM101.318 67.6289L96.5189 74H95.4525V72.9404L100.224 66.6035H101.318V67.6289ZM100.682 66.6035V67.916H95.5346V66.6035H100.682ZM107.057 72.5166V68.9893C107.057 68.7249 107.01 68.4971 106.914 68.3057C106.818 68.1143 106.672 67.9661 106.476 67.8613C106.285 67.7565 106.043 67.7041 105.752 67.7041C105.483 67.7041 105.25 67.7497 105.054 67.8408C104.859 67.932 104.706 68.055 104.596 68.21C104.487 68.3649 104.432 68.5404 104.432 68.7363H102.792C102.792 68.4447 102.862 68.1621 103.004 67.8887C103.145 67.6152 103.35 67.3714 103.619 67.1572C103.888 66.943 104.209 66.7744 104.583 66.6514C104.957 66.5283 105.376 66.4668 105.841 66.4668C106.397 66.4668 106.889 66.5602 107.317 66.7471C107.75 66.9339 108.09 67.2165 108.336 67.5947C108.586 67.9684 108.712 68.4378 108.712 69.0029V72.291C108.712 72.6283 108.735 72.9313 108.78 73.2002C108.83 73.4645 108.901 73.6947 108.992 73.8906V74H107.304C107.226 73.8223 107.165 73.5967 107.119 73.3232C107.078 73.0452 107.057 72.7764 107.057 72.5166ZM107.297 69.502L107.31 70.5205H106.128C105.822 70.5205 105.554 70.5501 105.321 70.6094C105.089 70.6641 104.895 70.7461 104.74 70.8555C104.585 70.9648 104.469 71.097 104.391 71.252C104.314 71.4069 104.275 71.5824 104.275 71.7783C104.275 71.9743 104.321 72.1543 104.412 72.3184C104.503 72.4779 104.635 72.6032 104.808 72.6943C104.986 72.7855 105.2 72.8311 105.451 72.8311C105.788 72.8311 106.082 72.7627 106.333 72.626C106.588 72.4847 106.789 72.3138 106.934 72.1133C107.08 71.9082 107.158 71.7145 107.167 71.5322L107.7 72.2637C107.645 72.4505 107.552 72.651 107.42 72.8652C107.288 73.0794 107.114 73.2845 106.9 73.4805C106.691 73.6719 106.438 73.8291 106.141 73.9521C105.85 74.0752 105.512 74.1367 105.13 74.1367C104.647 74.1367 104.216 74.041 103.838 73.8496C103.459 73.6536 103.163 73.3916 102.949 73.0635C102.735 72.7308 102.628 72.3548 102.628 71.9355C102.628 71.5436 102.701 71.1973 102.846 70.8965C102.997 70.5911 103.216 70.3359 103.503 70.1309C103.794 69.9258 104.15 69.7708 104.569 69.666C104.988 69.5566 105.467 69.502 106.005 69.502H107.297ZM112.161 63.5V74H110.521V63.5H112.161ZM111.874 70.0283L111.341 70.0215C111.346 69.5111 111.416 69.0394 111.553 68.6064C111.694 68.1735 111.89 67.7975 112.141 67.4785C112.396 67.1549 112.701 66.9066 113.057 66.7334C113.412 66.5557 113.807 66.4668 114.239 66.4668C114.604 66.4668 114.932 66.5169 115.224 66.6172C115.52 66.7174 115.775 66.8792 115.989 67.1025C116.204 67.3213 116.365 67.6084 116.475 67.9639C116.589 68.3148 116.646 68.7432 116.646 69.249V74H114.991V69.2354C114.991 68.8799 114.939 68.5973 114.834 68.3877C114.734 68.1781 114.586 68.0277 114.39 67.9365C114.194 67.8408 113.955 67.793 113.672 67.793C113.376 67.793 113.114 67.8522 112.886 67.9707C112.663 68.0892 112.476 68.251 112.325 68.4561C112.175 68.6611 112.061 68.8981 111.984 69.167C111.911 69.4359 111.874 69.723 111.874 70.0283ZM120.177 63.5V74H118.523V63.5H120.177ZM130.18 72.4688V63.5H131.834V74H130.337L130.18 72.4688ZM125.368 70.3838V70.2402C125.368 69.6797 125.434 69.1693 125.566 68.709C125.698 68.2441 125.889 67.8454 126.14 67.5127C126.391 67.1755 126.696 66.918 127.056 66.7402C127.416 66.5579 127.822 66.4668 128.273 66.4668C128.719 66.4668 129.111 66.5534 129.449 66.7266C129.786 66.8997 130.073 67.1481 130.31 67.4717C130.547 67.7907 130.736 68.1735 130.877 68.6201C131.019 69.0622 131.119 69.5544 131.178 70.0967V70.5547C131.119 71.0833 131.019 71.5664 130.877 72.0039C130.736 72.4414 130.547 72.8197 130.31 73.1387C130.073 73.4577 129.784 73.7038 129.442 73.877C129.105 74.0501 128.71 74.1367 128.259 74.1367C127.813 74.1367 127.409 74.0433 127.049 73.8564C126.694 73.6696 126.391 73.4076 126.14 73.0703C125.889 72.7331 125.698 72.3366 125.566 71.8809C125.434 71.4206 125.368 70.9215 125.368 70.3838ZM127.015 70.2402V70.3838C127.015 70.721 127.045 71.0355 127.104 71.3271C127.168 71.6188 127.266 71.8763 127.398 72.0996C127.53 72.3184 127.701 72.4915 127.911 72.6191C128.125 72.7422 128.38 72.8037 128.676 72.8037C129.05 72.8037 129.357 72.7217 129.599 72.5576C129.841 72.3936 130.03 72.1725 130.166 71.8945C130.308 71.612 130.403 71.2975 130.454 70.9512V69.7139C130.426 69.445 130.369 69.1943 130.283 68.9619C130.201 68.7295 130.089 68.5267 129.948 68.3535C129.806 68.1758 129.631 68.0391 129.421 67.9434C129.216 67.8431 128.972 67.793 128.69 67.793C128.389 67.793 128.134 67.8568 127.924 67.9844C127.715 68.112 127.541 68.2874 127.405 68.5107C127.273 68.734 127.175 68.9938 127.111 69.29C127.047 69.5863 127.015 69.903 127.015 70.2402ZM136.918 74.1367C136.371 74.1367 135.876 74.0479 135.434 73.8701C134.997 73.6878 134.623 73.4349 134.313 73.1113C134.008 72.7878 133.773 72.4072 133.609 71.9697C133.445 71.5322 133.363 71.0605 133.363 70.5547V70.2812C133.363 69.7025 133.447 69.1784 133.616 68.709C133.785 68.2396 134.019 67.8385 134.32 67.5059C134.621 67.1686 134.976 66.9111 135.387 66.7334C135.797 66.5557 136.241 66.4668 136.72 66.4668C137.248 66.4668 137.711 66.5557 138.107 66.7334C138.504 66.9111 138.832 67.1618 139.092 67.4854C139.356 67.8044 139.552 68.1849 139.679 68.627C139.812 69.069 139.878 69.5566 139.878 70.0898V70.7939H134.163V69.6113H138.251V69.4814C138.242 69.1852 138.182 68.9072 138.073 68.6475C137.968 68.3877 137.806 68.1781 137.588 68.0186C137.369 67.859 137.077 67.7793 136.713 67.7793C136.439 67.7793 136.195 67.8385 135.981 67.957C135.772 68.071 135.596 68.2373 135.455 68.4561C135.314 68.6748 135.204 68.9391 135.127 69.249C135.054 69.5544 135.017 69.8984 135.017 70.2812V70.5547C135.017 70.8783 135.061 71.179 135.147 71.457C135.238 71.7305 135.371 71.9697 135.544 72.1748C135.717 72.3799 135.927 72.5417 136.173 72.6602C136.419 72.7741 136.699 72.8311 137.013 72.8311C137.41 72.8311 137.763 72.7513 138.073 72.5918C138.383 72.4323 138.652 72.2067 138.88 71.915L139.748 72.7559C139.588 72.9883 139.381 73.2116 139.126 73.4258C138.871 73.6354 138.558 73.8063 138.189 73.9385C137.825 74.0706 137.401 74.1367 136.918 74.1367ZM142.917 68.0117V74H141.27V66.6035H142.842L142.917 68.0117ZM145.18 66.5557L145.166 68.0869C145.066 68.0687 144.957 68.055 144.838 68.0459C144.724 68.0368 144.61 68.0322 144.496 68.0322C144.214 68.0322 143.965 68.0732 143.751 68.1553C143.537 68.2327 143.357 68.3467 143.211 68.4971C143.07 68.6429 142.96 68.8206 142.883 69.0303C142.806 69.2399 142.76 69.4746 142.746 69.7344L142.37 69.7617C142.37 69.2969 142.416 68.8662 142.507 68.4697C142.598 68.0732 142.735 67.7246 142.917 67.4238C143.104 67.123 143.336 66.8883 143.614 66.7197C143.897 66.5511 144.223 66.4668 144.592 66.4668C144.692 66.4668 144.799 66.4759 144.913 66.4941C145.032 66.5124 145.121 66.5329 145.18 66.5557ZM61.7957 84.0469V94H60.0799V84.0469H61.7957ZM67.7771 84.0469L63.7439 88.8389L61.4471 91.2725L61.1463 89.5703L62.7869 87.5469L65.6854 84.0469H67.7771ZM65.9314 94L62.657 89.2832L63.8396 88.1143L67.9686 94H65.9314ZM73.1477 92.2568V86.6035H74.802V94H73.2434L73.1477 92.2568ZM73.3801 90.7188L73.9338 90.7051C73.9338 91.2018 73.8791 91.6598 73.7697 92.0791C73.6604 92.4938 73.4917 92.8561 73.2639 93.166C73.036 93.4714 72.7443 93.7106 72.3889 93.8838C72.0334 94.0524 71.6073 94.1367 71.1105 94.1367C70.7505 94.1367 70.4201 94.0843 70.1193 93.9795C69.8186 93.8747 69.5588 93.7129 69.34 93.4941C69.1258 93.2754 68.9595 92.9906 68.841 92.6396C68.7225 92.2887 68.6633 91.8695 68.6633 91.3818V86.6035H70.3107V91.3955C70.3107 91.6644 70.3426 91.89 70.4064 92.0723C70.4703 92.25 70.5568 92.3936 70.6662 92.5029C70.7756 92.6123 70.9032 92.6898 71.049 92.7354C71.1949 92.7809 71.3498 92.8037 71.5139 92.8037C71.9833 92.8037 72.3524 92.7126 72.6213 92.5303C72.8947 92.3434 73.0884 92.0928 73.2023 91.7783C73.3208 91.4639 73.3801 91.1107 73.3801 90.7188ZM78.2242 88.1826V94H76.5768V86.6035H78.1285L78.2242 88.1826ZM77.9303 90.0283L77.3971 90.0215C77.4016 89.4974 77.4745 89.0166 77.6158 88.5791C77.7617 88.1416 77.9622 87.7656 78.2174 87.4512C78.4771 87.1367 78.787 86.8952 79.1471 86.7266C79.5071 86.5534 79.9081 86.4668 80.3502 86.4668C80.7057 86.4668 81.027 86.5169 81.3141 86.6172C81.6057 86.7129 81.8541 86.8701 82.0592 87.0889C82.2688 87.3076 82.4283 87.5924 82.5377 87.9434C82.6471 88.2897 82.7018 88.7158 82.7018 89.2217V94H81.0475V89.2148C81.0475 88.8594 80.9951 88.5791 80.8902 88.374C80.79 88.1644 80.6419 88.0163 80.4459 87.9297C80.2545 87.8385 80.0152 87.793 79.7281 87.793C79.4456 87.793 79.1926 87.8522 78.9693 87.9707C78.746 88.0892 78.5569 88.251 78.402 88.4561C78.2516 88.6611 78.1354 88.8981 78.0533 89.167C77.9713 89.4359 77.9303 89.723 77.9303 90.0283ZM88.9951 92.4688V83.5H90.6494V94H89.1523L88.9951 92.4688ZM84.1826 90.3838V90.2402C84.1826 89.6797 84.2487 89.1693 84.3809 88.709C84.513 88.2441 84.7044 87.8454 84.9551 87.5127C85.2057 87.1755 85.5111 86.918 85.8711 86.7402C86.2311 86.5579 86.6367 86.4668 87.0879 86.4668C87.5345 86.4668 87.9264 86.5534 88.2637 86.7266C88.6009 86.8997 88.888 87.1481 89.125 87.4717C89.362 87.7907 89.5511 88.1735 89.6924 88.6201C89.8337 89.0622 89.9339 89.5544 89.9932 90.0967V90.5547C89.9339 91.0833 89.8337 91.5664 89.6924 92.0039C89.5511 92.4414 89.362 92.8197 89.125 93.1387C88.888 93.4577 88.5986 93.7038 88.2568 93.877C87.9196 94.0501 87.5254 94.1367 87.0742 94.1367C86.6276 94.1367 86.2243 94.0433 85.8643 93.8564C85.5088 93.6696 85.2057 93.4076 84.9551 93.0703C84.7044 92.7331 84.513 92.3366 84.3809 91.8809C84.2487 91.4206 84.1826 90.9215 84.1826 90.3838ZM85.8301 90.2402V90.3838C85.8301 90.721 85.8597 91.0355 85.9189 91.3271C85.9827 91.6188 86.0807 91.8763 86.2129 92.0996C86.3451 92.3184 86.516 92.4915 86.7256 92.6191C86.9398 92.7422 87.195 92.8037 87.4912 92.8037C87.8649 92.8037 88.1725 92.7217 88.4141 92.5576C88.6556 92.3936 88.8447 92.1725 88.9814 91.8945C89.1227 91.612 89.2184 91.2975 89.2686 90.9512V89.7139C89.2412 89.445 89.1842 89.1943 89.0977 88.9619C89.0156 88.7295 88.904 88.5267 88.7627 88.3535C88.6214 88.1758 88.446 88.0391 88.2363 87.9434C88.0312 87.8431 87.7874 87.793 87.5049 87.793C87.2041 87.793 86.9489 87.8568 86.7393 87.9844C86.5296 88.112 86.3564 88.2874 86.2197 88.5107C86.0876 88.734 85.9896 88.9938 85.9258 89.29C85.862 89.5863 85.8301 89.903 85.8301 90.2402ZM95.7328 94.1367C95.1859 94.1367 94.6915 94.0479 94.2494 93.8701C93.8119 93.6878 93.4382 93.4349 93.1283 93.1113C92.823 92.7878 92.5883 92.4072 92.4242 91.9697C92.2602 91.5322 92.1781 91.0605 92.1781 90.5547V90.2812C92.1781 89.7025 92.2624 89.1784 92.4311 88.709C92.5997 88.2396 92.8344 87.8385 93.1352 87.5059C93.4359 87.1686 93.7914 86.9111 94.2016 86.7334C94.6117 86.5557 95.0561 86.4668 95.5346 86.4668C96.0632 86.4668 96.5258 86.5557 96.9223 86.7334C97.3188 86.9111 97.6469 87.1618 97.9066 87.4854C98.171 87.8044 98.3669 88.1849 98.4945 88.627C98.6267 89.069 98.6928 89.5566 98.6928 90.0898V90.7939H92.9779V89.6113H97.0658V89.4814C97.0567 89.1852 96.9975 88.9072 96.8881 88.6475C96.7833 88.3877 96.6215 88.1781 96.4027 88.0186C96.184 87.859 95.8923 87.7793 95.5277 87.7793C95.2543 87.7793 95.0105 87.8385 94.7963 87.957C94.5867 88.071 94.4112 88.2373 94.2699 88.4561C94.1287 88.6748 94.0193 88.9391 93.9418 89.249C93.8689 89.5544 93.8324 89.8984 93.8324 90.2812V90.5547C93.8324 90.8783 93.8757 91.179 93.9623 91.457C94.0535 91.7305 94.1856 91.9697 94.3588 92.1748C94.532 92.3799 94.7416 92.5417 94.9877 92.6602C95.2338 92.7741 95.5141 92.8311 95.8285 92.8311C96.225 92.8311 96.5782 92.7513 96.8881 92.5918C97.198 92.4323 97.4669 92.2067 97.6947 91.915L98.5629 92.7559C98.4034 92.9883 98.196 93.2116 97.9408 93.4258C97.6856 93.6354 97.3734 93.8063 97.0043 93.9385C96.6397 94.0706 96.2159 94.1367 95.7328 94.1367ZM101.712 88.1826V94H100.064V86.6035H101.616L101.712 88.1826ZM101.418 90.0283L100.885 90.0215C100.889 89.4974 100.962 89.0166 101.103 88.5791C101.249 88.1416 101.45 87.7656 101.705 87.4512C101.965 87.1367 102.275 86.8952 102.635 86.7266C102.995 86.5534 103.396 86.4668 103.838 86.4668C104.193 86.4668 104.514 86.5169 104.802 86.6172C105.093 86.7129 105.342 86.8701 105.547 87.0889C105.756 87.3076 105.916 87.5924 106.025 87.9434C106.135 88.2897 106.189 88.7158 106.189 89.2217V94H104.535V89.2148C104.535 88.8594 104.483 88.5791 104.378 88.374C104.277 88.1644 104.129 88.0163 103.933 87.9297C103.742 87.8385 103.503 87.793 103.216 87.793C102.933 87.793 102.68 87.8522 102.457 87.9707C102.234 88.0892 102.044 88.251 101.889 88.4561C101.739 88.6611 101.623 88.8981 101.541 89.167C101.459 89.4359 101.418 89.723 101.418 90.0283ZM111.054 91.0674H109.529C109.534 90.6436 109.571 90.2881 109.639 90.001C109.707 89.7093 109.821 89.445 109.981 89.208C110.145 88.971 110.361 88.7204 110.63 88.4561C110.84 88.2555 111.029 88.0664 111.197 87.8887C111.366 87.7064 111.501 87.515 111.601 87.3145C111.701 87.1094 111.751 86.8747 111.751 86.6104C111.751 86.3232 111.703 86.0794 111.608 85.8789C111.512 85.6784 111.371 85.5257 111.184 85.4209C111.002 85.3161 110.774 85.2637 110.5 85.2637C110.272 85.2637 110.058 85.3092 109.858 85.4004C109.657 85.487 109.495 85.6237 109.372 85.8105C109.249 85.9928 109.183 86.2344 109.174 86.5352H107.527C107.536 85.9609 107.672 85.4779 107.937 85.0859C108.201 84.694 108.557 84.4001 109.003 84.2041C109.45 84.0081 109.949 83.9102 110.5 83.9102C111.111 83.9102 111.633 84.015 112.066 84.2246C112.499 84.4297 112.829 84.7305 113.057 85.127C113.289 85.5189 113.405 85.9928 113.405 86.5488C113.405 86.9499 113.326 87.3145 113.166 87.6426C113.007 87.9661 112.799 88.2692 112.544 88.5518C112.289 88.8298 112.013 89.1077 111.717 89.3857C111.462 89.6182 111.289 89.8711 111.197 90.1445C111.106 90.4134 111.058 90.721 111.054 91.0674ZM109.393 93.2002C109.393 92.9541 109.477 92.7467 109.646 92.5781C109.814 92.4049 110.044 92.3184 110.336 92.3184C110.628 92.3184 110.858 92.4049 111.027 92.5781C111.195 92.7467 111.279 92.9541 111.279 93.2002C111.279 93.4463 111.195 93.6559 111.027 93.8291C110.858 93.9977 110.628 94.082 110.336 94.082C110.044 94.082 109.814 93.9977 109.646 93.8291C109.477 93.6559 109.393 93.4463 109.393 93.2002Z" fill="#078DBA"/>
</g>
<rect x="20" y="126" width="8" height="8" rx="2" fill="#8AFEF5"/>
<path d="M36.875 125.469H38.1875L40.6543 132.049L43.1152 125.469H44.4277L41.1699 134H40.127L36.875 125.469ZM36.2773 125.469H37.5254L37.7422 131.164V134H36.2773V125.469ZM43.7773 125.469H45.0312V134H43.5605V131.164L43.7773 125.469ZM48.6484 127.66V134H47.2305V127.66H48.6484ZM47.1367 125.996C47.1367 125.781 47.207 125.604 47.3477 125.463C47.4922 125.318 47.6914 125.246 47.9453 125.246C48.1953 125.246 48.3926 125.318 48.5371 125.463C48.6816 125.604 48.7539 125.781 48.7539 125.996C48.7539 126.207 48.6816 126.383 48.5371 126.523C48.3926 126.664 48.1953 126.734 47.9453 126.734C47.6914 126.734 47.4922 126.664 47.3477 126.523C47.207 126.383 47.1367 126.207 47.1367 125.996ZM53.6016 127.66V128.691H50.0273V127.66H53.6016ZM51.0586 126.107H52.4707V132.248C52.4707 132.443 52.498 132.594 52.5527 132.699C52.6113 132.801 52.6914 132.869 52.793 132.904C52.8945 132.939 53.0137 132.957 53.1504 132.957C53.248 132.957 53.3418 132.951 53.4316 132.939C53.5215 132.928 53.5938 132.916 53.6484 132.904L53.6543 133.982C53.5371 134.018 53.4004 134.049 53.2441 134.076C53.0918 134.104 52.916 134.117 52.7168 134.117C52.3926 134.117 52.1055 134.061 51.8555 133.947C51.6055 133.83 51.4102 133.641 51.2695 133.379C51.1289 133.117 51.0586 132.77 51.0586 132.336V126.107ZM58.7656 132.729V129.705C58.7656 129.479 58.7246 129.283 58.6426 129.119C58.5605 128.955 58.4355 128.828 58.2676 128.738C58.1035 128.648 57.8965 128.604 57.6465 128.604C57.416 128.604 57.2168 128.643 57.0488 128.721C56.8809 128.799 56.75 128.904 56.6562 129.037C56.5625 129.17 56.5156 129.32 56.5156 129.488H55.1094C55.1094 129.238 55.1699 128.996 55.291 128.762C55.4121 128.527 55.5879 128.318 55.8184 128.135C56.0488 127.951 56.3242 127.807 56.6445 127.701C56.9648 127.596 57.3242 127.543 57.7227 127.543C58.1992 127.543 58.6211 127.623 58.9883 127.783C59.3594 127.943 59.6504 128.186 59.8613 128.51C60.0762 128.83 60.1836 129.232 60.1836 129.717V132.535C60.1836 132.824 60.2031 133.084 60.2422 133.314C60.2852 133.541 60.3457 133.738 60.4238 133.906V134H58.9766C58.9102 133.848 58.8574 133.654 58.8184 133.42C58.7832 133.182 58.7656 132.951 58.7656 132.729ZM58.9707 130.145L58.9824 131.018H57.9688C57.707 131.018 57.4766 131.043 57.2773 131.094C57.0781 131.141 56.9121 131.211 56.7793 131.305C56.6465 131.398 56.5469 131.512 56.4805 131.645C56.4141 131.777 56.3809 131.928 56.3809 132.096C56.3809 132.264 56.4199 132.418 56.498 132.559C56.5762 132.695 56.6895 132.803 56.8379 132.881C56.9902 132.959 57.1738 132.998 57.3887 132.998C57.6777 132.998 57.9297 132.939 58.1445 132.822C58.3633 132.701 58.5352 132.555 58.6602 132.383C58.7852 132.207 58.8516 132.041 58.8594 131.885L59.3164 132.512C59.2695 132.672 59.1895 132.844 59.0762 133.027C58.9629 133.211 58.8145 133.387 58.6309 133.555C58.4512 133.719 58.2344 133.854 57.9805 133.959C57.7305 134.064 57.4414 134.117 57.1133 134.117C56.6992 134.117 56.3301 134.035 56.0059 133.871C55.6816 133.703 55.4277 133.479 55.2441 133.197C55.0605 132.912 54.9688 132.59 54.9688 132.23C54.9688 131.895 55.0312 131.598 55.1562 131.34C55.2852 131.078 55.4727 130.859 55.7188 130.684C55.9688 130.508 56.2734 130.375 56.6328 130.285C56.9922 130.191 57.4023 130.145 57.8633 130.145H58.9707ZM63.5781 128.867V134H62.166V127.66H63.5137L63.5781 128.867ZM65.5176 127.619L65.5059 128.932C65.4199 128.916 65.3262 128.904 65.2246 128.896C65.127 128.889 65.0293 128.885 64.9316 128.885C64.6895 128.885 64.4766 128.92 64.293 128.99C64.1094 129.057 63.9551 129.154 63.8301 129.283C63.709 129.408 63.6152 129.561 63.5488 129.74C63.4824 129.92 63.4434 130.121 63.4316 130.344L63.1094 130.367C63.1094 129.969 63.1484 129.6 63.2266 129.26C63.3047 128.92 63.4219 128.621 63.5781 128.363C63.7383 128.105 63.9375 127.904 64.1758 127.76C64.418 127.615 64.6973 127.543 65.0137 127.543C65.0996 127.543 65.1914 127.551 65.2891 127.566C65.3906 127.582 65.4668 127.6 65.5176 127.619ZM66.9082 125H68.3203V132.646L68.1855 134H66.9082V125ZM72.457 130.771V130.895C72.457 131.363 72.4043 131.795 72.2988 132.189C72.1973 132.58 72.041 132.92 71.8301 133.209C71.623 133.498 71.3652 133.723 71.0566 133.883C70.752 134.039 70.3984 134.117 69.9961 134.117C69.6016 134.117 69.2578 134.043 68.9648 133.895C68.6719 133.746 68.4258 133.535 68.2266 133.262C68.0312 132.988 67.873 132.662 67.752 132.283C67.6309 131.904 67.5449 131.486 67.4941 131.029V130.637C67.5449 130.176 67.6309 129.758 67.752 129.383C67.873 129.004 68.0312 128.678 68.2266 128.404C68.4258 128.127 68.6699 127.914 68.959 127.766C69.252 127.617 69.5938 127.543 69.9844 127.543C70.3906 127.543 70.748 127.621 71.0566 127.777C71.3691 127.934 71.6289 128.156 71.8359 128.445C72.043 128.73 72.1973 129.07 72.2988 129.465C72.4043 129.859 72.457 130.295 72.457 130.771ZM71.0449 130.895V130.771C71.0449 130.486 71.0215 130.219 70.9746 129.969C70.9277 129.715 70.8496 129.492 70.7402 129.301C70.6348 129.109 70.4902 128.959 70.3066 128.85C70.127 128.736 69.9023 128.68 69.6328 128.68C69.3828 128.68 69.168 128.723 68.9883 128.809C68.8086 128.895 68.6582 129.012 68.5371 129.16C68.416 129.309 68.3203 129.48 68.25 129.676C68.1836 129.871 68.1387 130.082 68.1152 130.309V131.369C68.1504 131.662 68.2246 131.932 68.3379 132.178C68.4551 132.42 68.6191 132.615 68.8301 132.764C69.041 132.908 69.3125 132.98 69.6445 132.98C69.9062 132.98 70.127 132.928 70.3066 132.822C70.4863 132.717 70.6289 132.57 70.7344 132.383C70.8438 132.191 70.9219 131.969 70.9688 131.715C71.0195 131.461 71.0449 131.188 71.0449 130.895ZM76.9473 134.117C76.4785 134.117 76.0547 134.041 75.6758 133.889C75.3008 133.732 74.9805 133.516 74.7148 133.238C74.4531 132.961 74.252 132.635 74.1113 132.26C73.9707 131.885 73.9004 131.48 73.9004 131.047V130.812C73.9004 130.316 73.9727 129.867 74.1172 129.465C74.2617 129.062 74.4629 128.719 74.7207 128.434C74.9785 128.145 75.2832 127.924 75.6348 127.771C75.9863 127.619 76.3672 127.543 76.7773 127.543C77.2305 127.543 77.627 127.619 77.9668 127.771C78.3066 127.924 78.5879 128.139 78.8105 128.416C79.0371 128.689 79.2051 129.016 79.3145 129.395C79.4277 129.773 79.4844 130.191 79.4844 130.648V131.252H74.5859V130.238H78.0898V130.127C78.082 129.873 78.0312 129.635 77.9375 129.412C77.8477 129.189 77.709 129.01 77.5215 128.873C77.334 128.736 77.084 128.668 76.7715 128.668C76.5371 128.668 76.3281 128.719 76.1445 128.82C75.9648 128.918 75.8145 129.061 75.6934 129.248C75.5723 129.436 75.4785 129.662 75.4121 129.928C75.3496 130.189 75.3184 130.484 75.3184 130.812V131.047C75.3184 131.324 75.3555 131.582 75.4297 131.82C75.5078 132.055 75.6211 132.26 75.7695 132.436C75.918 132.611 76.0977 132.75 76.3086 132.852C76.5195 132.949 76.7598 132.998 77.0293 132.998C77.3691 132.998 77.6719 132.93 77.9375 132.793C78.2031 132.656 78.4336 132.463 78.6289 132.213L79.373 132.934C79.2363 133.133 79.0586 133.324 78.8398 133.508C78.6211 133.688 78.3535 133.834 78.0371 133.947C77.7246 134.061 77.3613 134.117 76.9473 134.117ZM82.5977 127.66V134H81.1797V127.66H82.5977ZM81.0859 125.996C81.0859 125.781 81.1562 125.604 81.2969 125.463C81.4414 125.318 81.6406 125.246 81.8945 125.246C82.1445 125.246 82.3418 125.318 82.4863 125.463C82.6309 125.604 82.7031 125.781 82.7031 125.996C82.7031 126.207 82.6309 126.383 82.4863 126.523C82.3418 126.664 82.1445 126.734 81.8945 126.734C81.6406 126.734 81.4414 126.664 81.2969 126.523C81.1562 126.383 81.0859 126.207 81.0859 125.996ZM87.5508 127.66V128.691H83.9766V127.66H87.5508ZM85.0078 126.107H86.4199V132.248C86.4199 132.443 86.4473 132.594 86.502 132.699C86.5605 132.801 86.6406 132.869 86.7422 132.904C86.8438 132.939 86.9629 132.957 87.0996 132.957C87.1973 132.957 87.291 132.951 87.3809 132.939C87.4707 132.928 87.543 132.916 87.5977 132.904L87.6035 133.982C87.4863 134.018 87.3496 134.049 87.1934 134.076C87.041 134.104 86.8652 134.117 86.666 134.117C86.3418 134.117 86.0547 134.061 85.8047 133.947C85.5547 133.83 85.3594 133.641 85.2188 133.379C85.0781 133.117 85.0078 132.77 85.0078 132.336V126.107ZM91.9355 134.117C91.4668 134.117 91.043 134.041 90.6641 133.889C90.2891 133.732 89.9688 133.516 89.7031 133.238C89.4414 132.961 89.2402 132.635 89.0996 132.26C88.959 131.885 88.8887 131.48 88.8887 131.047V130.812C88.8887 130.316 88.9609 129.867 89.1055 129.465C89.25 129.062 89.4512 128.719 89.709 128.434C89.9668 128.145 90.2715 127.924 90.623 127.771C90.9746 127.619 91.3555 127.543 91.7656 127.543C92.2188 127.543 92.6152 127.619 92.9551 127.771C93.2949 127.924 93.5762 128.139 93.7988 128.416C94.0254 128.689 94.1934 129.016 94.3027 129.395C94.416 129.773 94.4727 130.191 94.4727 130.648V131.252H89.5742V130.238H93.0781V130.127C93.0703 129.873 93.0195 129.635 92.9258 129.412C92.8359 129.189 92.6973 129.01 92.5098 128.873C92.3223 128.736 92.0723 128.668 91.7598 128.668C91.5254 128.668 91.3164 128.719 91.1328 128.82C90.9531 128.918 90.8027 129.061 90.6816 129.248C90.5605 129.436 90.4668 129.662 90.4004 129.928C90.3379 130.189 90.3066 130.484 90.3066 130.812V131.047C90.3066 131.324 90.3438 131.582 90.418 131.82C90.4961 132.055 90.6094 132.26 90.7578 132.436C90.9062 132.611 91.0859 132.75 91.2969 132.852C91.5078 132.949 91.748 132.998 92.0176 132.998C92.3574 132.998 92.6602 132.93 92.9258 132.793C93.1914 132.656 93.4219 132.463 93.6172 132.213L94.3613 132.934C94.2246 133.133 94.0469 133.324 93.8281 133.508C93.6094 133.688 93.3418 133.834 93.0254 133.947C92.7129 134.061 92.3496 134.117 91.9355 134.117ZM97.4922 128.867V134H96.0801V127.66H97.4277L97.4922 128.867ZM99.4316 127.619L99.4199 128.932C99.334 128.916 99.2402 128.904 99.1387 128.896C99.041 128.889 98.9434 128.885 98.8457 128.885C98.6035 128.885 98.3906 128.92 98.207 128.99C98.0234 129.057 97.8691 129.154 97.7441 129.283C97.623 129.408 97.5293 129.561 97.4629 129.74C97.3965 129.92 97.3574 130.121 97.3457 130.344L97.0234 130.367C97.0234 129.969 97.0625 129.6 97.1406 129.26C97.2188 128.92 97.3359 128.621 97.4922 128.363C97.6523 128.105 97.8516 127.904 98.0898 127.76C98.332 127.615 98.6113 127.543 98.9277 127.543C99.0137 127.543 99.1055 127.551 99.2031 127.566C99.3047 127.582 99.3809 127.6 99.4316 127.619Z" fill="white"/>
<rect x="20" y="146" width="8" height="8" rx="2" fill="#009A8D"/>
<path d="M37.75 145.469V154H36.2793V145.469H37.75ZM42.877 145.469L39.4199 149.576L37.4512 151.662L37.1934 150.203L38.5996 148.469L41.084 145.469H42.877ZM41.2949 154L38.4883 149.957L39.502 148.955L43.041 154H41.2949ZM47.8945 152.506V147.66H49.3125V154H47.9766L47.8945 152.506ZM48.0938 151.188L48.5684 151.176C48.5684 151.602 48.5215 151.994 48.4277 152.354C48.334 152.709 48.1895 153.02 47.9941 153.285C47.7988 153.547 47.5488 153.752 47.2441 153.9C46.9395 154.045 46.5742 154.117 46.1484 154.117C45.8398 154.117 45.5566 154.072 45.2988 153.982C45.041 153.893 44.8184 153.754 44.6309 153.566C44.4473 153.379 44.3047 153.135 44.2031 152.834C44.1016 152.533 44.0508 152.174 44.0508 151.756V147.66H45.4629V151.768C45.4629 151.998 45.4902 152.191 45.5449 152.348C45.5996 152.5 45.6738 152.623 45.7676 152.717C45.8613 152.811 45.9707 152.877 46.0957 152.916C46.2207 152.955 46.3535 152.975 46.4941 152.975C46.8965 152.975 47.2129 152.896 47.4434 152.74C47.6777 152.58 47.8438 152.365 47.9414 152.096C48.043 151.826 48.0938 151.523 48.0938 151.188ZM52.6602 149.014V154H51.248V147.66H52.5781L52.6602 149.014ZM52.4082 150.596L51.9512 150.59C51.9551 150.141 52.0176 149.729 52.1387 149.354C52.2637 148.979 52.4355 148.656 52.6543 148.387C52.877 148.117 53.1426 147.91 53.4512 147.766C53.7598 147.617 54.1035 147.543 54.4824 147.543C54.7871 147.543 55.0625 147.586 55.3086 147.672C55.5586 147.754 55.7715 147.889 55.9473 148.076C56.127 148.264 56.2637 148.508 56.3574 148.809C56.4512 149.105 56.498 149.471 56.498 149.904V154H55.0801V149.898C55.0801 149.594 55.0352 149.354 54.9453 149.178C54.8594 148.998 54.7324 148.871 54.5645 148.797C54.4004 148.719 54.1953 148.68 53.9492 148.68C53.707 148.68 53.4902 148.73 53.2988 148.832C53.1074 148.934 52.9453 149.072 52.8125 149.248C52.6836 149.424 52.584 149.627 52.5137 149.857C52.4434 150.088 52.4082 150.334 52.4082 150.596ZM62.3066 152.688V145H63.7246V154H62.4414L62.3066 152.688ZM58.1816 150.9V150.777C58.1816 150.297 58.2383 149.859 58.3516 149.465C58.4648 149.066 58.6289 148.725 58.8438 148.439C59.0586 148.15 59.3203 147.93 59.6289 147.777C59.9375 147.621 60.2852 147.543 60.6719 147.543C61.0547 147.543 61.3906 147.617 61.6797 147.766C61.9688 147.914 62.2148 148.127 62.418 148.404C62.6211 148.678 62.7832 149.006 62.9043 149.389C63.0254 149.768 63.1113 150.189 63.1621 150.654V151.047C63.1113 151.5 63.0254 151.914 62.9043 152.289C62.7832 152.664 62.6211 152.988 62.418 153.262C62.2148 153.535 61.9668 153.746 61.6738 153.895C61.3848 154.043 61.0469 154.117 60.6602 154.117C60.2773 154.117 59.9316 154.037 59.623 153.877C59.3184 153.717 59.0586 153.492 58.8438 153.203C58.6289 152.914 58.4648 152.574 58.3516 152.184C58.2383 151.789 58.1816 151.361 58.1816 150.9ZM59.5938 150.777V150.9C59.5938 151.189 59.6191 151.459 59.6699 151.709C59.7246 151.959 59.8086 152.18 59.9219 152.371C60.0352 152.559 60.1816 152.707 60.3613 152.816C60.5449 152.922 60.7637 152.975 61.0176 152.975C61.3379 152.975 61.6016 152.904 61.8086 152.764C62.0156 152.623 62.1777 152.434 62.2949 152.195C62.416 151.953 62.498 151.684 62.541 151.387V150.326C62.5176 150.096 62.4688 149.881 62.3945 149.682C62.3242 149.482 62.2285 149.309 62.1074 149.16C61.9863 149.008 61.8359 148.891 61.6562 148.809C61.4805 148.723 61.2715 148.68 61.0293 148.68C60.7715 148.68 60.5527 148.734 60.373 148.844C60.1934 148.953 60.0449 149.104 59.9277 149.295C59.8145 149.486 59.7305 149.709 59.6758 149.963C59.6211 150.217 59.5938 150.488 59.5938 150.777ZM68.4961 154.117C68.0273 154.117 67.6035 154.041 67.2246 153.889C66.8496 153.732 66.5293 153.516 66.2637 153.238C66.002 152.961 65.8008 152.635 65.6602 152.26C65.5195 151.885 65.4492 151.48 65.4492 151.047V150.812C65.4492 150.316 65.5215 149.867 65.666 149.465C65.8105 149.062 66.0117 148.719 66.2695 148.434C66.5273 148.145 66.832 147.924 67.1836 147.771C67.5352 147.619 67.916 147.543 68.3262 147.543C68.7793 147.543 69.1758 147.619 69.5156 147.771C69.8555 147.924 70.1367 148.139 70.3594 148.416C70.5859 148.689 70.7539 149.016 70.8633 149.395C70.9766 149.773 71.0332 150.191 71.0332 150.648V151.252H66.1348V150.238H69.6387V150.127C69.6309 149.873 69.5801 149.635 69.4863 149.412C69.3965 149.189 69.2578 149.01 69.0703 148.873C68.8828 148.736 68.6328 148.668 68.3203 148.668C68.0859 148.668 67.877 148.719 67.6934 148.82C67.5137 148.918 67.3633 149.061 67.2422 149.248C67.1211 149.436 67.0273 149.662 66.9609 149.928C66.8984 150.189 66.8672 150.484 66.8672 150.812V151.047C66.8672 151.324 66.9043 151.582 66.9785 151.82C67.0566 152.055 67.1699 152.26 67.3184 152.436C67.4668 152.611 67.6465 152.75 67.8574 152.852C68.0684 152.949 68.3086 152.998 68.5781 152.998C68.918 152.998 69.2207 152.93 69.4863 152.793C69.752 152.656 69.9824 152.463 70.1777 152.213L70.9219 152.934C70.7852 153.133 70.6074 153.324 70.3887 153.508C70.1699 153.688 69.9023 153.834 69.5859 153.947C69.2734 154.061 68.9102 154.117 68.4961 154.117ZM74.0352 149.014V154H72.623V147.66H73.9531L74.0352 149.014ZM73.7832 150.596L73.3262 150.59C73.3301 150.141 73.3926 149.729 73.5137 149.354C73.6387 148.979 73.8105 148.656 74.0293 148.387C74.252 148.117 74.5176 147.91 74.8262 147.766C75.1348 147.617 75.4785 147.543 75.8574 147.543C76.1621 147.543 76.4375 147.586 76.6836 147.672C76.9336 147.754 77.1465 147.889 77.3223 148.076C77.502 148.264 77.6387 148.508 77.7324 148.809C77.8262 149.105 77.873 149.471 77.873 149.904V154H76.4551V149.898C76.4551 149.594 76.4102 149.354 76.3203 149.178C76.2344 148.998 76.1074 148.871 75.9395 148.797C75.7754 148.719 75.5703 148.68 75.3242 148.68C75.082 148.68 74.8652 148.73 74.6738 148.832C74.4824 148.934 74.3203 149.072 74.1875 149.248C74.0586 149.424 73.959 149.627 73.8887 149.857C73.8184 150.088 73.7832 150.334 73.7832 150.596Z" fill="white"/>
<defs>
<filter id="filter0_d_121_1817" x="0" y="0" width="362" height="212" filterUnits="userSpaceOnUse" color-interpolation-filters="sRGB">
<feFlood flood-opacity="0" result="BackgroundImageFix"/>
<feColorMatrix in="SourceAlpha" type="matrix" values="0 0 0 0 0 0 0 0 0 0 0 0 0 0 0 0 0 0 127 0" result="hardAlpha"/>
<feMorphology radius="2" operator="dilate" in="SourceAlpha" result="effect1_dropShadow_121_1817"/>
<feOffset dx="4" dy="4"/>
<feGaussianBlur stdDeviation="2"/>
<feComposite in2="hardAlpha" operator="out"/>
<feColorMatrix type="matrix" values="0 0 0 0 0 0 0 0 0 0 0 0 0 0 0 0 0 0 0.15 0"/>
<feBlend mode="normal" in2="BackgroundImageFix" result="effect1_dropShadow_121_1817"/>
<feBlend mode="normal" in="SourceGraphic" in2="effect1_dropShadow_121_1817" result="shape"/>
</filter>
<filter id="filter1_d_121_1817" x="235.194" y="36.4766" width="36.0825" height="48.5234" filterUnits="userSpaceOnUse" color-interpolation-filters="sRGB">
<feFlood flood-opacity="0" result="BackgroundImageFix"/>
<feColorMatrix in="SourceAlpha" type="matrix" values="0 0 0 0 0 0 0 0 0 0 0 0 0 0 0 0 0 0 127 0" result="hardAlpha"/>
<feOffset dy="4"/>
<feGaussianBlur stdDeviation="2"/>
<feComposite in2="hardAlpha" operator="out"/>
<feColorMatrix type="matrix" values="0 0 0 0 0 0 0 0 0 0 0 0 0 0 0 0 0 0 0.25 0"/>
<feBlend mode="normal" in2="BackgroundImageFix" result="effect1_dropShadow_121_1817"/>
<feBlend mode="normal" in="SourceGraphic" in2="effect1_dropShadow_121_1817" result="shape"/>
</filter>
<filter id="filter2_d_121_1817" x="219.386" y="123.92" width="59.4893" height="49.0801" filterUnits="userSpaceOnUse" color-interpolation-filters="sRGB">
<feFlood flood-opacity="0" result="BackgroundImageFix"/>
<feColorMatrix in="SourceAlpha" type="matrix" values="0 0 0 0 0 0 0 0 0 0 0 0 0 0 0 0 0 0 127 0" result="hardAlpha"/>
<feOffset dy="4"/>
<feGaussianBlur stdDeviation="2"/>
<feComposite in2="hardAlpha" operator="out"/>
<feColorMatrix type="matrix" values="0 0 0 0 0 0 0 0 0 0 0 0 0 0 0 0 0 0 0.25 0"/>
<feBlend mode="normal" in2="BackgroundImageFix" result="effect1_dropShadow_121_1817"/>
<feBlend mode="normal" in="SourceGraphic" in2="effect1_dropShadow_121_1817" result="shape"/>
</filter>
<filter id="filter3_d_121_1817" x="15.5994" y="23.5" width="142.029" height="78.6367" filterUnits="userSpaceOnUse" color-interpolation-filters="sRGB">
<feFlood flood-opacity="0" result="BackgroundImageFix"/>
<feColorMatrix in="SourceAlpha" type="matrix" values="0 0 0 0 0 0 0 0 0 0 0 0 0 0 0 0 0 0 127 0" result="hardAlpha"/>
<feOffset dy="4"/>
<feGaussianBlur stdDeviation="2"/>
<feComposite in2="hardAlpha" operator="out"/>
<feColorMatrix type="matrix" values="0 0 0 0 1 0 0 0 0 1 0 0 0 0 1 0 0 0 0.15 0"/>
<feBlend mode="normal" in2="BackgroundImageFix" result="effect1_dropShadow_121_1817"/>
<feBlend mode="normal" in="SourceGraphic" in2="effect1_dropShadow_121_1817" result="shape"/>
</filter>
</defs>
</svg>
